<svg width="351" height="281" viewBox="0 0 351 281" fill="none" xmlns="http://www.w3.org/2000/svg">
<g clip-path="url(#clip0)">
<path d="M260.56 77.5295H259.343V43.5119C259.343 38.2902 257.31 33.2824 253.691 29.5901C250.072 25.8978 245.164 23.8235 240.047 23.8235H169.411C166.877 23.8235 164.368 24.3327 162.027 25.3222C159.686 26.3116 157.559 27.7618 155.767 29.5901C153.975 31.4183 152.554 33.5887 151.584 35.9774C150.614 38.3662 150.115 40.9264 150.115 43.5119V230.135C150.115 232.721 150.614 235.281 151.584 237.669C152.554 240.058 153.975 242.229 155.767 244.057C157.559 245.885 159.686 247.335 162.027 248.325C164.368 249.314 166.877 249.823 169.411 249.823H240.047C245.164 249.823 250.072 247.749 253.691 244.057C257.31 240.365 259.343 235.357 259.343 230.135V101.744H260.56L260.56 77.5295Z" fill="#535356"/>
<path d="M240.825 28.9458H231.605C232.029 30.0065 232.191 31.1573 232.076 32.2968C231.962 33.4363 231.574 34.5296 230.948 35.4804C230.322 36.4311 229.476 37.2102 228.485 37.7489C227.494 38.2875 226.389 38.5693 225.266 38.5694H184.8C183.678 38.5693 182.572 38.2875 181.581 37.7489C180.59 37.2102 179.745 36.4312 179.118 35.4804C178.492 34.5296 178.105 33.4363 177.99 32.2968C177.876 31.1573 178.038 30.0065 178.462 28.9458H169.85C166.028 28.9458 162.363 30.4949 159.66 33.2522C156.958 36.0096 155.44 39.7494 155.44 43.6489V229.998C155.44 231.929 155.812 233.841 156.536 235.625C157.261 237.409 158.322 239.03 159.66 240.395C160.998 241.76 162.587 242.843 164.335 243.582C166.084 244.321 167.957 244.701 169.85 244.701H240.825C242.718 244.701 244.591 244.321 246.34 243.582C248.088 242.843 249.677 241.76 251.015 240.395C252.353 239.03 253.414 237.409 254.138 235.625C254.863 233.841 255.235 231.929 255.235 229.998V229.998V43.6489C255.235 41.7181 254.863 39.8061 254.138 38.0223C253.414 36.2384 252.353 34.6175 251.015 33.2522C249.677 31.8869 248.088 30.8039 246.34 30.065C244.591 29.3261 242.718 28.9458 240.825 28.9458V28.9458Z" fill="white"/>
<path d="M220.04 109.751C227.099 109.751 232.822 109.195 232.822 108.509C232.822 107.823 227.099 107.266 220.04 107.266C212.98 107.266 207.257 107.823 207.257 108.509C207.257 109.195 212.98 109.751 220.04 109.751Z" fill="#E6E6E6"/>
<path d="M333.3 54.8359H215.623V94.2524H220.08V104.561L230.184 94.2524H333.3V54.8359Z" fill="#7D47D5"/>
<path d="M282.231 68.1838H228.721V69.8408H282.231V68.1838Z" fill="white"/>
<path d="M321.985 73.9156H228.721V75.5726H321.985V73.9156Z" fill="white"/>
<path d="M321.894 79.6475H228.721V81.3044H321.894V79.6475Z" fill="white"/>
<path d="M303.237 173.721H209.303V205.185H212.861V213.413L220.926 205.185H303.237V173.721Z" fill="#7D47D5"/>
<path d="M262.472 184.376H219.758V185.698H262.472V184.376Z" fill="white"/>
<path d="M294.205 188.951H219.758V190.274H294.205V188.951Z" fill="white"/>
<path d="M294.132 193.526H219.758V194.849H294.132V193.526Z" fill="white"/>
<path d="M212.828 217.556C218.464 217.556 223.032 217.112 223.032 216.564C223.032 216.017 218.464 215.573 212.828 215.573C207.193 215.573 202.625 216.017 202.625 216.564C202.625 217.112 207.193 217.556 212.828 217.556Z" fill="#E6E6E6"/>
<path d="M184.735 155.71C191.795 155.71 197.518 155.154 197.518 154.468C197.518 153.782 191.795 153.226 184.735 153.226C177.676 153.226 171.953 153.782 171.953 154.468C171.953 155.154 177.676 155.71 184.735 155.71Z" fill="#E6E6E6"/>
<path d="M106.389 116.64H189.143V144.36H186.009V151.609L178.904 144.36H106.389V116.64Z" fill="#7D47D5"/>
<path d="M152.603 125.814H114.973V126.979H152.603V125.814Z" fill="white"/>
<path d="M180.56 129.845H114.973V131.01H180.56V129.845Z" fill="white"/>
<path d="M180.495 133.875H114.973V135.041H180.495V133.875Z" fill="white"/>
<path d="M66.0777 184.255C66.4745 184.952 67.1265 185.459 67.8902 185.666C68.6539 185.873 69.4668 185.761 70.15 185.357C70.8333 184.952 71.3309 184.287 71.5335 183.507C71.736 182.728 71.6269 181.899 71.2301 181.202C71.1468 181.059 71.053 180.923 70.9495 180.795L73.4556 162.57L73.5307 162.024L74.0397 158.305L74.1148 157.769L73.8374 157.783L68.982 158.009L67.6799 158.069L67.5168 161.462L66.5933 180.536C66.1108 181.007 65.7977 181.629 65.7041 182.304C65.6106 182.979 65.7422 183.666 66.0777 184.255V184.255Z" fill="#E7B193"/>
<path d="M73.5163 162.19L67.3509 161.613C67.0311 161.582 66.7362 161.424 66.5306 161.172C66.3249 160.92 66.2252 160.595 66.2531 160.269L67.3967 147.187C67.4521 146.552 67.6319 145.934 67.9253 145.371C68.2188 144.808 68.6201 144.31 69.1053 143.908C69.5905 143.506 70.1499 143.207 70.7504 143.029C71.3508 142.851 71.9801 142.798 72.601 142.873C73.2218 142.948 73.8217 143.149 74.3651 143.464C74.9085 143.78 75.3843 144.204 75.7644 144.71C76.1445 145.216 76.4212 145.796 76.5781 146.413C76.735 147.031 76.7689 147.674 76.6778 148.305L74.8291 161.136C74.7866 161.43 74.642 161.699 74.4217 161.893C74.2014 162.088 73.92 162.195 73.6288 162.195C73.5916 162.195 73.554 162.194 73.5163 162.19Z" fill="#CCCCCC"/>
<path d="M68.8437 151.621C68.2201 149.819 68.1912 147.858 68.7614 146.037C69.3316 144.217 70.4696 142.636 72.0019 141.537C74.3268 139.914 77.5083 139.331 80.9345 143.493C87.787 151.816 89.5817 160.972 89.5817 160.972L75.5505 163.303C75.5505 163.303 70.7783 157.352 68.8437 151.621Z" fill="#CCCCCC"/>
<path d="M91.5367 245.378H95.5371L97.4402 229.634L91.5361 229.635L91.5367 245.378Z" fill="#A0616A"/>
<path d="M103.252 249.168L90.6796 249.169L90.6794 244.212L99.3727 244.212C99.8821 244.212 100.387 244.314 100.857 244.513C101.328 244.712 101.756 245.004 102.116 245.371C102.476 245.739 102.762 246.175 102.957 246.656C103.152 247.136 103.252 247.651 103.252 248.17L103.252 249.168V249.168Z" fill="#2F2E41"/>
<path d="M58.647 241.819L62.4453 243.1L69.0953 228.761L63.4895 226.87L58.647 241.819Z" fill="#A0616A"/>
<path d="M68.6049 249.169L56.6673 245.143L58.1918 240.437L66.4458 243.221C66.9296 243.384 67.3771 243.643 67.7628 243.982C68.1485 244.322 68.4649 244.736 68.6939 245.2C68.9229 245.664 69.06 246.17 69.0974 246.689C69.1348 247.207 69.0718 247.728 68.9119 248.221L68.6049 249.169Z" fill="#2F2E41"/>
<path d="M81.4951 136.407C85.3789 134.241 86.8063 129.272 84.6832 125.309C82.5601 121.347 77.6905 119.89 73.8067 122.056C69.9229 124.223 68.4955 129.191 70.6186 133.154C72.7417 137.117 77.6113 138.573 81.4951 136.407Z" fill="#E7B193"/>
<path d="M84.6681 240.996L80.9529 215.977C80.9133 215.71 80.784 215.465 80.5871 215.285C80.3902 215.104 80.138 214.999 79.8736 214.987C79.6091 214.976 79.3489 215.058 79.1373 215.22C78.9258 215.382 78.7761 215.615 78.7138 215.877L73.0563 239.72C72.9672 240.085 72.7474 240.403 72.4403 240.612C72.1331 240.82 71.7607 240.904 71.3961 240.847L55.7905 238.288C55.5835 238.254 55.3861 238.175 55.2115 238.057C55.0369 237.938 54.8891 237.783 54.778 237.602C54.667 237.421 54.5953 237.217 54.5677 237.005C54.5401 236.793 54.5573 236.578 54.6182 236.373L74.967 167.922C75.0248 167.728 75.0317 167.521 74.9869 167.322L74.3093 164.327C74.2349 164.002 74.2692 163.661 74.4069 163.359C74.5445 163.056 74.7774 162.809 75.0685 162.658C77.8394 161.215 84.8561 158.216 90.1541 161.501C90.326 161.608 90.4749 161.75 90.5915 161.917C90.7082 162.085 90.7902 162.275 90.8326 162.476L106.729 238.707C106.772 238.915 106.772 239.129 106.728 239.336C106.684 239.543 106.598 239.738 106.474 239.909C106.351 240.079 106.193 240.221 106.012 240.325C105.831 240.429 105.631 240.493 105.424 240.511L86.2509 242.263C86.2067 242.267 86.1629 242.269 86.1193 242.269C85.7683 242.268 85.4291 242.14 85.1629 241.906C84.8968 241.673 84.7213 241.35 84.6681 240.996Z" fill="#1B1B1B"/>
<path d="M72.3367 123.454C72.9408 123.083 73.477 122.608 73.921 122.049C74.14 121.767 74.2841 121.432 74.3395 121.076C74.3949 120.721 74.3597 120.357 74.2374 120.019C73.8325 119.108 72.6292 118.819 71.6969 119.13C70.7646 119.441 70.0443 120.186 69.3629 120.906C68.7627 121.54 68.1454 122.201 67.8607 123.033C67.576 123.866 67.7222 124.921 68.4304 125.426C69.1253 125.921 70.1244 125.718 70.7928 125.186C71.4612 124.654 71.875 123.864 72.2695 123.099L72.3367 123.454Z" fill="#2F2E41"/>
<path d="M69.6223 121.124C69.5779 118.82 67.0039 117.168 64.781 117.576C62.5581 117.984 60.8493 119.918 59.994 122.051C58.1869 126.558 59.5435 131.7 61.2848 136.233C63.026 140.766 65.1807 145.369 64.9268 150.231C64.7551 152.859 63.8909 155.391 62.4254 157.56C60.96 159.728 58.9477 161.453 56.6011 162.551C59.1099 163.711 62.1086 162.513 64.2168 160.704C68.8986 156.687 70.7058 149.535 68.5113 143.709C67.4289 140.836 65.5213 138.377 64.0321 135.7C62.5428 133.023 61.4502 129.867 62.2191 126.891C62.9879 123.914 66.2601 121.503 69.0575 122.656L69.6223 121.124Z" fill="#2F2E41"/>
<path d="M78.1315 132.86C77.433 131.656 76.7276 130.074 78.0049 129.021C78.2826 128.803 78.6003 128.643 78.9394 128.551C79.2784 128.46 79.632 128.439 79.9792 128.489C81.419 128.666 82.9869 128.739 84.3803 128.205C84.903 128.021 85.3841 127.733 85.7953 127.356C86.2064 126.979 86.5391 126.521 86.7736 126.011C87.4931 124.271 86.5922 122.158 85.0882 121.059C84.1681 120.41 83.0809 120.054 81.963 120.034C80.8451 120.013 79.7462 120.331 78.8042 120.945C76.8563 120.067 74.4927 120.458 72.723 121.666C70.9533 122.875 69.7423 124.81 69.0844 126.876C68.4784 128.655 68.3741 130.572 68.7833 132.408C69.1126 133.686 69.7387 134.863 70.6088 135.842C71.4788 136.82 72.567 137.57 73.7813 138.028C74.2543 138.218 74.768 138.278 75.271 138.202C75.7739 138.126 76.2484 137.916 76.647 137.594C76.647 137.594 77.7516 136.61 78.0972 135.425C78.3627 134.515 78.5048 133.504 78.1315 132.86Z" fill="#2F2E41"/>
<path d="M101.907 140.157C101.867 140.337 101.841 140.519 101.829 140.703L87.8115 148.954L84.4044 146.953L80.7722 151.804L86.4664 155.945C86.9264 156.28 87.4803 156.453 88.0451 156.439C88.6098 156.425 89.1548 156.224 89.5983 155.867L104.053 144.233C104.705 144.479 105.415 144.517 106.089 144.341C106.763 144.166 107.369 143.785 107.825 143.249C108.282 142.714 108.568 142.05 108.646 141.344C108.723 140.639 108.588 139.926 108.259 139.301C107.93 138.676 107.422 138.168 106.803 137.844C106.184 137.521 105.483 137.397 104.793 137.49C104.104 137.583 103.458 137.888 102.943 138.364C102.427 138.841 102.066 139.466 101.907 140.157V140.157Z" fill="#E7B193"/>
<path d="M87.3429 149.345L82.8126 155.336C82.6837 155.506 82.5203 155.646 82.3335 155.746C82.1468 155.847 81.941 155.904 81.7303 155.916C81.5196 155.928 81.3089 155.893 81.1126 155.815C80.9162 155.736 80.7388 155.615 80.5924 155.46L75.4637 150.026C74.6126 149.348 74.0596 148.353 73.926 147.26C73.7925 146.167 74.0893 145.064 74.7514 144.194C75.4135 143.324 76.3868 142.757 77.4578 142.618C78.5289 142.479 79.6103 142.779 80.4649 143.452L86.8974 147.122C87.0815 147.227 87.2413 147.371 87.3658 147.545C87.4903 147.719 87.5767 147.918 87.619 148.129C87.6612 148.34 87.6585 148.558 87.6108 148.768C87.5632 148.977 87.4718 149.174 87.3429 149.345V149.345Z" fill="#CCCCCC"/>
<path d="M133.427 249.824H39.681C39.5799 249.824 39.483 249.783 39.4115 249.71C39.3401 249.637 39.2999 249.538 39.2999 249.435C39.2999 249.332 39.3401 249.233 39.4115 249.16C39.483 249.087 39.5799 249.046 39.681 249.046H133.427C133.528 249.046 133.625 249.087 133.696 249.16C133.768 249.233 133.808 249.332 133.808 249.435C133.808 249.538 133.768 249.637 133.696 249.71C133.625 249.783 133.528 249.824 133.427 249.824H133.427Z" fill="#CCCCCC"/>
</g>
<path opacity="0.1" d="M203.936 61.1828C181.434 60.3071 159.999 52.1764 139.534 43.2789C119.069 34.3815 125.963 5.03697 104 0.323581C89.8736 -2.7084 46.5529 16.3492 35.1732 24.8263C24.2176 32.9998 20.6782 47.0699 18.7764 60.1398C17.3439 69.9713 16.5025 80.3166 20.4279 89.5215C23.1502 95.9125 27.9865 101.284 31.3278 107.425C42.9648 128.723 34.742 154.987 22.1315 175.783C16.2209 185.541 9.35413 194.855 4.79251 205.231C0.230891 215.608 -1.88303 227.514 2.10839 238.108C6.06851 248.617 15.5012 256.495 25.7162 262.041C46.4694 273.309 70.9151 276.531 94.7698 278.357C147.559 282.401 200.626 280.649 253.554 278.898C273.142 278.248 292.814 277.59 312.083 274.2C322.785 272.316 333.831 269.331 341.601 262.115C351.462 252.957 353.906 237.446 347.3 225.965C336.212 206.702 305.578 201.919 297.817 181.244C293.555 169.867 297.936 157.194 304.131 146.639C317.427 124.002 339.71 104.14 340.885 78.2655C341.692 60.49 330.976 42.6951 314.412 34.2842C297.053 25.4374 272.972 26.5583 260.17 41.1499C246.979 56.1853 223.802 61.9535 203.936 61.1828Z" fill="#6C63FF"/>
<defs>
<clipPath id="clip0">
<rect width="294" height="226" fill="white" transform="translate(39.2999 23.8235)"/>
</clipPath>
</defs>
</svg>
