<svg width="441" height="404" viewBox="0 0 441 404" fill="none" xmlns="http://www.w3.org/2000/svg">
<path d="M357.385 170.545C357.244 170.849 357.056 171.115 356.832 171.33C356.607 171.544 356.35 171.702 356.077 171.794C355.523 171.98 354.933 171.887 354.435 171.536C353.937 171.185 353.573 170.604 353.422 169.922C353.271 169.24 353.347 168.511 353.631 167.897C353.636 167.887 353.641 167.877 353.646 167.866C353.706 167.741 353.774 167.622 353.849 167.51L352.031 151.523L351.976 151.044L351.607 147.782L351.552 147.312L351.754 147.323L355.277 147.522L356.222 147.575L356.341 150.551L357.011 167.282C357.361 167.695 357.588 168.242 357.656 168.833C357.724 169.425 357.629 170.028 357.385 170.545H357.385Z" fill="#FFB8B8"/>
<path d="M351.987 151.189L356.461 150.683C356.693 150.656 356.907 150.517 357.057 150.296C357.206 150.075 357.278 149.79 357.258 149.504L356.429 138.029C356.349 136.923 355.916 135.903 355.226 135.191C354.536 134.479 353.644 134.135 352.748 134.233C351.852 134.332 351.024 134.866 350.447 135.717C349.87 136.568 349.591 137.667 349.671 138.773C349.676 138.852 349.684 138.93 349.693 139.009L351.035 150.265C351.066 150.523 351.171 150.758 351.331 150.929C351.491 151.099 351.695 151.193 351.906 151.194C351.933 151.194 351.96 151.193 351.987 151.189V151.189Z" fill="#CBCBCB"/>
<path d="M355.378 141.918C355.831 140.337 355.852 138.617 355.438 137.02C355.024 135.423 354.198 134.037 353.086 133.073C351.399 131.649 349.09 131.138 346.603 134.788C343.594 139.245 341.448 144.489 340.328 150.121L350.511 152.166C350.511 152.166 353.974 146.945 355.378 141.918Z" fill="#CBCBCB"/>
<path d="M338.909 224.162H336.005L334.624 210.352H338.909L338.909 224.162Z" fill="#FFB8B8"/>
<path d="M330.407 227.487H339.531V223.139H333.932C332.997 223.139 332.1 223.597 331.439 224.412C330.778 225.228 330.407 226.334 330.407 227.487V227.487Z" fill="#2F2E41"/>
<path d="M362.778 221.039L360.022 222.163L355.195 209.585L359.264 207.926L362.778 221.039Z" fill="#FFB8B8"/>
<path d="M355.551 227.487L364.215 223.955L363.109 219.827L357.792 221.994C356.904 222.356 356.17 223.138 355.749 224.168C355.329 225.198 355.258 226.392 355.551 227.487V227.487Z" fill="#2F2E41"/>
<path d="M348.986 129.452C352.198 129.452 354.802 126.24 354.802 122.278C354.802 118.317 352.198 115.105 348.986 115.105C345.774 115.105 343.17 118.317 343.17 122.278C343.17 126.24 345.774 129.452 348.986 129.452Z" fill="#FFB8B8"/>
<path d="M343.893 220.318L346.589 198.372C346.618 198.137 346.712 197.923 346.855 197.764C346.998 197.606 347.181 197.514 347.373 197.504C347.565 197.493 347.753 197.565 347.907 197.708C348.06 197.85 348.169 198.054 348.214 198.284L352.32 219.198C352.385 219.519 352.544 219.798 352.767 219.981C352.99 220.164 353.261 220.237 353.525 220.187L364.851 217.942C365.001 217.913 365.144 217.844 365.271 217.74C365.398 217.636 365.505 217.5 365.586 217.341C365.666 217.182 365.718 217.004 365.738 216.818C365.758 216.632 365.746 216.443 365.702 216.263L350.934 156.217C350.892 156.046 350.887 155.865 350.919 155.691L351.411 153.063C351.465 152.778 351.44 152.479 351.34 152.214C351.24 151.948 351.071 151.732 350.86 151.599C348.849 150.333 343.755 147.702 339.912 150.584C339.787 150.678 339.679 150.802 339.594 150.949C339.51 151.096 339.45 151.263 339.419 151.439L327.883 218.31C327.851 218.492 327.851 218.68 327.883 218.862C327.915 219.043 327.978 219.215 328.068 219.364C328.157 219.514 328.271 219.638 328.403 219.729C328.534 219.82 328.68 219.876 328.83 219.893L342.744 221.429C342.776 221.433 342.808 221.435 342.839 221.435C343.094 221.434 343.34 221.321 343.533 221.116C343.726 220.912 343.854 220.628 343.892 220.318L343.893 220.318Z" fill="#2F2E41"/>
<path d="M352.843 117.211C352.404 116.885 352.015 116.468 351.693 115.978C351.534 115.73 351.429 115.436 351.389 115.124C351.349 114.812 351.374 114.493 351.463 114.197C351.757 113.397 352.63 113.145 353.307 113.417C353.984 113.688 354.507 114.343 355.001 114.974C355.437 115.529 355.885 116.111 356.09 116.841C356.296 117.57 356.191 118.496 355.677 118.939C355.173 119.374 354.447 119.196 353.962 118.729C353.504 118.219 353.139 117.595 352.891 116.898L352.843 117.211Z" fill="#2F2E41"/>
<path d="M354.813 115.167C354.845 113.146 356.713 111.696 358.327 112.055C359.94 112.413 361.18 114.109 361.801 115.98C363.112 119.933 362.128 124.443 360.864 128.421C359.6 132.4 358.036 136.435 358.221 140.7C358.346 143.006 358.973 145.226 360.037 147.128C361.1 149.03 362.56 150.543 364.263 151.506C362.443 152.524 360.266 151.473 358.736 149.886C355.338 146.362 354.027 140.089 355.619 134.978C356.405 132.458 357.789 130.301 358.87 127.953C359.951 125.604 360.744 122.837 360.186 120.225C359.628 117.614 357.253 115.5 355.223 116.51L354.813 115.167Z" fill="#2F2E41"/>
<path d="M348.637 125.462C349.144 124.405 349.655 123.018 348.729 122.094C348.528 121.902 348.297 121.762 348.051 121.682C347.805 121.602 347.548 121.583 347.296 121.627C346.251 121.782 345.114 121.846 344.102 121.378C343.723 121.217 343.374 120.963 343.075 120.633C342.777 120.302 342.535 119.901 342.365 119.453C341.844 117.927 342.497 116.073 343.588 115.109C344.256 114.54 345.045 114.228 345.856 114.21C346.668 114.192 347.465 114.47 348.149 115.009C349.563 114.239 351.278 114.582 352.562 115.642C353.847 116.702 354.726 118.4 355.203 120.213C355.643 121.773 355.719 123.454 355.422 125.065C355.183 126.186 354.728 127.219 354.097 128.077C353.466 128.935 352.676 129.593 351.795 129.995C351.451 130.161 351.079 130.214 350.714 130.148C350.349 130.081 350.004 129.897 349.715 129.615C349.245 129.095 348.884 128.442 348.662 127.712C348.469 126.913 348.366 126.026 348.637 125.462Z" fill="#2F2E41"/>
<path d="M331.382 131.862C331.411 132.02 331.43 132.18 331.439 132.341L341.612 139.579L344.084 137.823L346.72 142.079L342.588 145.712C342.254 146.005 341.852 146.157 341.442 146.145C341.032 146.133 340.636 145.956 340.314 145.643L329.824 135.437C329.35 135.653 328.834 135.687 328.345 135.533C327.856 135.379 327.416 135.045 327.084 134.575C326.753 134.105 326.545 133.522 326.489 132.903C326.432 132.284 326.53 131.659 326.769 131.11C327.008 130.562 327.377 130.116 327.827 129.832C328.276 129.548 328.785 129.44 329.286 129.521C329.786 129.603 330.255 129.871 330.629 130.289C331.003 130.707 331.266 131.256 331.381 131.862L331.382 131.862Z" fill="#FFB8B8"/>
<path d="M341.952 139.922L345.24 145.177C345.334 145.326 345.452 145.449 345.588 145.537C345.723 145.624 345.872 145.675 346.025 145.686C346.178 145.696 346.331 145.666 346.473 145.597C346.615 145.528 346.744 145.422 346.85 145.286L350.572 140.519C350.885 140.233 351.15 139.874 351.35 139.463C351.55 139.051 351.683 138.594 351.74 138.119C351.797 137.644 351.778 137.16 351.683 136.694C351.588 136.228 351.419 135.79 351.187 135.405C350.954 135.019 350.662 134.695 350.328 134.449C349.993 134.203 349.623 134.04 349.237 133.971C348.852 133.902 348.459 133.928 348.082 134.046C347.704 134.165 347.35 134.374 347.038 134.662C347.006 134.691 346.974 134.722 346.943 134.753L342.275 137.972C342.141 138.064 342.025 138.191 341.935 138.343C341.844 138.496 341.782 138.67 341.751 138.855C341.72 139.04 341.722 139.231 341.757 139.415C341.791 139.599 341.858 139.772 341.951 139.922H341.952Z" fill="#CBCBCB"/>
<path d="M393.45 219.822C393.393 221.95 393.04 224.06 392.4 226.088C392.386 226.135 392.37 226.182 392.355 226.229H388.438C388.442 226.186 388.447 226.139 388.451 226.088C388.712 223.059 387.22 204.843 385.42 201.691C385.578 201.946 393.753 210.198 393.45 219.822Z" fill="#F1F1F1"/>
<path d="M393.447 226.088C393.418 226.135 393.388 226.182 393.358 226.229H390.779C390.798 226.189 390.821 226.141 390.847 226.088C391.273 225.202 392.534 222.555 393.704 219.81C394.962 216.86 396.116 213.799 396.019 212.691C396.049 212.94 396.92 220.559 393.447 226.088Z" fill="#F1F1F1"/>
<path d="M285.305 227.075H401.695C401.776 227.075 401.853 227.03 401.911 226.951C401.968 226.872 402 226.764 402 226.652C402 226.54 401.968 226.432 401.911 226.353C401.853 226.273 401.776 226.229 401.695 226.229H285.305C285.224 226.229 285.147 226.273 285.089 226.353C285.032 226.432 285 226.54 285 226.652C285 226.764 285.032 226.872 285.089 226.951C285.147 227.03 285.224 227.075 285.305 227.075Z" fill="#CBCBCB"/>
<path d="M11.4696 220.04C11.5163 222.164 11.8083 224.27 12.3371 226.296C12.3488 226.343 12.3619 226.389 12.3745 226.436H15.6117C15.6083 226.394 15.6048 226.347 15.6014 226.296C15.3856 223.271 16.6186 205.085 18.1066 201.937C17.9762 202.192 11.2186 210.43 11.4696 220.04Z" fill="#F1F1F1"/>
<path d="M11.7125 226.296C11.7396 226.343 11.7677 226.39 11.7966 226.436H14.2252C14.2068 226.396 14.1855 226.349 14.1607 226.296C13.7596 225.413 12.5721 222.775 11.4699 220.04C10.2858 217.1 9.19854 214.05 9.29011 212.945C9.26173 213.194 8.44203 220.786 11.7125 226.296Z" fill="#F1F1F1"/>
<path d="M106.739 226.913H7.2611C7.19185 226.913 7.12544 226.865 7.07647 226.779C7.02751 226.694 7 226.577 7 226.456C7 226.335 7.02751 226.219 7.07647 226.134C7.12544 226.048 7.19185 226 7.2611 226H106.739C106.808 226 106.875 226.048 106.924 226.134C106.972 226.219 107 226.335 107 226.456C107 226.577 106.972 226.694 106.924 226.779C106.875 226.865 106.808 226.913 106.739 226.913Z" fill="#CBCBCB"/>
<path d="M58.2123 222.743L61.3673 222.743L62.8685 209.16L58.2118 209.16L58.2123 222.743Z" fill="#A0616A"/>
<path d="M57.4075 221.593L63.621 221.593H63.6212C64.6714 221.593 65.6785 222.059 66.4211 222.888C67.1637 223.716 67.5809 224.84 67.581 226.012V226.156L57.4077 226.157L57.4075 221.593Z" fill="#2F2E41"/>
<path d="M33.6458 221.219L36.7654 221.745L40.0687 208.565L35.9789 207.789L33.6458 221.219Z" fill="#A0616A"/>
<path d="M33.0038 219.948L39.1475 220.984L39.1478 220.984C40.1861 221.159 41.1196 221.788 41.7428 222.731C42.3661 223.675 42.628 224.856 42.4711 226.015L42.4519 226.157L32.3928 224.46L33.0038 219.948Z" fill="#2F2E41"/>
<path d="M51.5333 139.849C51.2563 139.32 51.1216 138.713 51.1455 138.1C51.1694 137.488 51.3508 136.896 51.668 136.396C51.9562 135.912 52.3646 135.532 52.8433 135.303C53.3219 135.075 53.85 135.007 54.3627 135.108C54.7284 135.176 55.0764 135.333 55.3824 135.566C55.6884 135.8 55.9451 136.105 56.1346 136.461C57.9208 139.594 59.8783 144.617 59.8979 144.667L59.9289 144.747L56.5231 149.428L51.5333 139.849Z" fill="#CBCBCB"/>
<path d="M44.0412 149.659L47.5444 150.683L47.3113 157.022L47.2825 168.564C47.6276 168.83 47.8921 169.207 48.0411 169.645C48.19 170.083 48.2163 170.561 48.1165 171.016C48.0168 171.471 47.7956 171.881 47.4823 172.193C47.169 172.505 46.7783 172.703 46.362 172.761C45.9456 172.82 45.5232 172.736 45.1505 172.52C44.7779 172.305 44.4727 171.968 44.2751 171.555C44.0776 171.142 43.9972 170.671 44.0444 170.206C44.0917 169.74 44.2644 169.302 44.5397 168.949L43.4633 157.365L44.0412 149.659Z" fill="#A0616A"/>
<path d="M43.4315 142.398C43.4508 141.785 43.6278 141.192 43.9413 140.689C44.2548 140.185 44.6915 139.793 45.1993 139.56C45.6746 139.322 46.2016 139.245 46.7157 139.337C47.2299 139.429 47.7086 139.687 48.0933 140.079C48.3698 140.355 48.589 140.694 48.7358 141.074C48.8825 141.454 48.9532 141.866 48.943 142.279C48.9522 145.993 48.2011 151.406 48.1935 151.46L48.1815 151.546L43.061 153.471L43.4315 142.398Z" fill="#CBCBCB"/>
<path d="M52.5872 152.939L60.419 150.677L64.0393 164.285L64.168 214.982L58.1789 214.94L55.6754 173.907L39.7196 211.822L33.2858 210.961L47.3114 170.317C47.3114 170.317 46.5394 163.136 48.9842 159.546L48.4695 155.812L52.5872 152.939Z" fill="#2F2E41"/>
<path d="M47.3063 156.325C47.1968 156.177 47.1172 156.004 47.073 155.818C47.0289 155.632 47.0211 155.437 47.0502 155.248L43.4778 143.286C43.3111 142.727 43.2933 142.126 43.4268 141.556C43.5603 140.985 43.8393 140.471 44.2298 140.074L45.7807 138.501L46.8316 133.809L52.8721 135.457L52.3744 137.679L55.1081 137.124L60.8661 151.437L48.8304 156.807L48.2376 156.817C48.0594 156.818 47.8833 156.774 47.7222 156.689C47.5611 156.603 47.419 156.479 47.3063 156.325V156.325Z" fill="#CBCBCB"/>
<path d="M55.6902 146.226L59.1415 145.001L61.9805 150.498L67.4836 160.269C67.9029 160.289 68.307 160.45 68.6426 160.731C68.9782 161.012 69.2294 161.4 69.363 161.844C69.4965 162.288 69.5062 162.767 69.3906 163.217C69.2751 163.668 69.0397 164.068 68.7158 164.366C68.3919 164.664 67.9946 164.845 67.5765 164.885C67.1584 164.925 66.7392 164.823 66.3744 164.591C66.0096 164.36 65.7163 164.01 65.5333 163.589C65.3504 163.167 65.2864 162.694 65.3498 162.231L58.8923 153.083L55.6902 146.226Z" fill="#A0616A"/>
<path d="M51.3007 132.936C53.9513 132.936 56.1 130.537 56.1 127.579C56.1 124.621 53.9513 122.222 51.3007 122.222C48.6501 122.222 46.5013 124.621 46.5013 127.579C46.5013 130.537 48.6501 132.936 51.3007 132.936Z" fill="#A0616A"/>
<path d="M42.8193 125.32C45.3725 125.32 47.4422 123.009 47.4422 120.16C47.4422 117.31 45.3725 115 42.8193 115C40.2661 115 38.1963 117.31 38.1963 120.16C38.1963 123.009 40.2661 125.32 42.8193 125.32Z" fill="#2F2E41"/>
<path d="M38.8317 124.432C39.4301 124.915 40.1233 125.231 40.8534 125.353C41.5835 125.476 42.3292 125.401 43.0282 125.136C43.7272 124.871 44.3591 124.422 44.8711 123.829C45.383 123.235 45.7601 122.513 45.9708 121.723C45.8911 122.431 45.6808 123.112 45.3531 123.725C45.0254 124.337 44.5876 124.867 44.0672 125.281C43.5467 125.695 42.9551 125.984 42.3295 126.13C41.7039 126.276 41.058 126.276 40.4326 126.129C39.8072 125.982 39.2158 125.692 38.6958 125.278C38.1758 124.863 37.7385 124.332 37.4115 123.72C37.0845 123.107 36.8749 122.425 36.7959 121.717C36.717 121.009 36.7703 120.291 36.9527 119.607C36.8491 120.526 36.9689 121.458 37.2995 122.307C37.6302 123.156 38.1594 123.89 38.8317 124.432Z" fill="#2F2E41"/>
<path d="M57.076 124.438C56.269 122.825 55.9602 122.152 54.9196 121.171C53.9994 120.304 52.8675 120.049 51.9546 120.871C50.8745 120.35 49.6728 120.232 48.5279 120.534C47.383 120.836 46.3559 121.543 45.5993 122.548C44.8426 123.554 44.3968 124.805 44.328 126.116C44.2592 127.427 44.571 128.727 45.2173 129.825C45.8635 130.922 46.8097 131.757 47.9151 132.207C49.0206 132.656 50.2265 132.695 51.3536 132.319C52.4807 131.942 53.469 131.17 54.1715 130.117C54.8741 129.064 55.2535 127.785 55.2534 126.472C55.2526 126.242 55.2402 126.011 55.2162 125.782C56.0098 125.658 56.2825 124.562 57.076 124.438Z" fill="#2F2E41"/>
<g clip-path="url(#clip0)">
<path d="M161.064 295.004C159.719 295.55 158.274 295.687 156.87 295.401C155.466 295.116 154.149 294.417 153.046 293.373C150.238 290.651 149.358 286.167 148.641 282.014L146.522 269.733L150.959 273.26C154.149 275.797 157.411 278.415 159.62 282.09C161.829 285.764 162.793 290.78 161.018 294.756" fill="#E6E6E6"/>
<path d="M160.685 309.874C161.134 306.097 161.595 302.271 161.28 298.454C161.001 295.063 160.105 291.752 158.282 289.037C157.314 287.598 156.136 286.366 154.801 285.395C154.453 285.141 154.133 285.778 154.48 286.031C156.789 287.716 158.575 290.205 159.58 293.138C160.691 296.4 160.869 299.956 160.678 303.421C160.562 305.517 160.317 307.599 160.07 309.678C160.05 309.772 160.062 309.871 160.104 309.955C160.145 310.039 160.213 310.102 160.292 310.131C160.374 310.156 160.461 310.143 160.534 310.095C160.608 310.047 160.662 309.968 160.685 309.874V309.874Z" fill="#F2F2F2"/>
<path d="M156.36 303.19C155.783 304.203 154.99 305.027 154.057 305.583C153.124 306.139 152.083 306.408 151.035 306.364C148.339 306.217 146.091 304.044 144.068 301.981L138.084 295.879L142.045 295.661C144.893 295.503 147.814 295.356 150.527 296.371C153.24 297.385 155.741 299.826 156.237 303.069" fill="#E6E6E6"/>
<path d="M161.954 312.045C159.792 307.629 157.286 302.721 152.807 301.152C151.561 300.717 150.255 300.562 148.959 300.693C148.551 300.734 148.653 301.461 149.06 301.421C151.233 301.212 153.401 301.875 155.2 303.296C156.931 304.657 158.279 306.549 159.42 308.555C160.119 309.784 160.745 311.065 161.371 312.345C161.571 312.754 162.156 312.458 161.954 312.045V312.045Z" fill="#F2F2F2"/>
<path d="M189.702 213.8L173.996 228.832C173.709 229.107 173.339 229.239 172.968 229.199C172.596 229.159 172.254 228.95 172.016 228.618C171.777 228.286 171.663 227.859 171.698 227.43C171.733 227.001 171.914 226.606 172.201 226.331L187.906 211.298C188.194 211.023 188.564 210.891 188.935 210.932C189.307 210.972 189.649 211.181 189.887 211.512C190.125 211.844 190.24 212.272 190.205 212.701C190.17 213.13 189.989 213.525 189.702 213.8Z" fill="#CCCCCC"/>
<path d="M185.496 309.216L188.725 309.215L190.262 294.829L185.495 294.829L185.496 309.216Z" fill="#FFB8B8"/>
<path d="M184.672 307.998L191.032 307.998H191.033C191.565 307.998 192.092 308.119 192.584 308.354C193.076 308.589 193.522 308.934 193.899 309.369C194.275 309.803 194.574 310.319 194.778 310.887C194.981 311.455 195.086 312.064 195.086 312.679V312.831L184.672 312.831L184.672 307.998Z" fill="#2F2E41"/>
<path d="M173.905 309.216L177.134 309.215L178.671 294.829L173.904 294.829L173.905 309.216Z" fill="#FFB8B8"/>
<path d="M173.081 307.998L179.441 307.998H179.442C179.974 307.998 180.501 308.119 180.993 308.354C181.484 308.589 181.931 308.934 182.308 309.369C182.684 309.803 182.983 310.319 183.186 310.887C183.39 311.455 183.495 312.064 183.495 312.679V312.831L173.081 312.831L173.081 307.998Z" fill="#2F2E41"/>
<path d="M177.146 304.814H177.145L174.399 304.813C174.091 304.814 173.796 304.677 173.575 304.431C173.354 304.184 173.224 303.848 173.215 303.493L173.128 300.718C172.434 278.528 171.716 255.582 176.162 245.268L176.197 245.187L190.918 244.572L193.873 275.88C193.999 277.216 193.953 278.566 193.736 279.885L189.829 303.66C189.776 303.983 189.625 304.272 189.403 304.477C189.181 304.681 188.902 304.786 188.618 304.773L185.533 304.658C185.372 304.65 185.213 304.605 185.067 304.524C184.922 304.443 184.792 304.329 184.686 304.188C184.579 304.047 184.499 303.883 184.45 303.705C184.401 303.527 184.384 303.339 184.4 303.154L186.823 281.164C186.906 280.215 186.831 279.257 186.604 278.34L183.59 266.172C183.565 266.072 183.511 265.984 183.436 265.924C183.362 265.864 183.272 265.835 183.182 265.843C183.092 265.85 183.006 265.893 182.94 265.965C182.874 266.036 182.831 266.132 182.818 266.235L178.32 303.633C178.279 303.96 178.139 304.259 177.923 304.476C177.707 304.693 177.432 304.813 177.146 304.814V304.814Z" fill="#2F2E41"/>
<path d="M178.906 213.271C182.479 213.271 185.376 209.925 185.376 205.799C185.376 201.672 182.479 198.326 178.906 198.326C175.333 198.326 172.436 201.672 172.436 205.799C172.436 209.925 175.333 213.271 178.906 213.271Z" fill="#FFB8B8"/>
<path d="M190.228 246.883H176.839C176.669 246.883 176.501 246.841 176.346 246.759C176.191 246.677 176.054 246.558 175.942 246.41C175.831 246.261 175.749 246.086 175.701 245.898C175.653 245.709 175.641 245.511 175.666 245.316L176.327 240.085L172.443 227.747C172.042 226.474 171.893 225.112 172.007 223.764C172.121 222.415 172.495 221.112 173.102 219.952C173.708 218.792 174.532 217.803 175.513 217.059C176.493 216.314 177.605 215.832 178.768 215.649V215.649C180.425 215.382 182.112 215.735 183.582 216.656C185.053 217.576 186.23 219.016 186.94 220.765L187.793 222.861L191.393 245.265C191.425 245.462 191.419 245.665 191.375 245.86C191.331 246.054 191.25 246.235 191.139 246.39C191.028 246.544 190.889 246.668 190.731 246.754C190.574 246.839 190.402 246.883 190.228 246.883H190.228Z" fill="#6C63FF"/>
<path d="M161.965 260.006C162.368 259.898 162.745 259.689 163.071 259.395C163.396 259.1 163.662 258.726 163.849 258.3C164.036 257.874 164.14 257.405 164.153 256.928C164.166 256.45 164.089 255.975 163.926 255.536L174.359 228.316L168.391 226.58L160.012 253.882C159.391 254.247 158.908 254.862 158.654 255.611C158.4 256.36 158.392 257.191 158.633 257.946C158.874 258.701 159.346 259.327 159.96 259.707C160.574 260.087 161.287 260.193 161.965 260.006H161.965Z" fill="#FFB8B8"/>
<path d="M172.946 233.184L167.142 230.046C166.977 229.957 166.83 229.828 166.712 229.667C166.594 229.507 166.508 229.319 166.458 229.116C166.409 228.913 166.398 228.701 166.426 228.492C166.454 228.284 166.521 228.086 166.622 227.91L170.149 221.758C170.55 220.785 171.268 220.036 172.146 219.674C173.025 219.311 173.991 219.366 174.835 219.825C175.678 220.285 176.33 221.112 176.646 222.125C176.963 223.138 176.919 224.255 176.524 225.23L174.7 232.277C174.648 232.479 174.558 232.665 174.438 232.823C174.318 232.982 174.169 233.108 174.003 233.194C173.836 233.28 173.656 233.324 173.474 233.322C173.291 233.32 173.111 233.273 172.946 233.184H172.946Z" fill="#6C63FF"/>
<path d="M205.484 189.961C205.61 190.417 205.649 190.898 205.596 191.372C205.543 191.846 205.401 192.301 205.18 192.704C204.959 193.108 204.664 193.451 204.315 193.709C203.967 193.966 203.574 194.133 203.164 194.196L188.262 218.484L183.914 213.453L199.93 191.161C199.883 190.358 200.093 189.564 200.52 188.928C200.947 188.292 201.561 187.86 202.246 187.712C202.93 187.564 203.638 187.711 204.235 188.126C204.832 188.541 205.277 189.194 205.484 189.961V189.961Z" fill="#FFB8B8"/>
<path d="M191.708 215.633C191.729 215.842 191.711 216.054 191.655 216.255C191.599 216.455 191.506 216.639 191.383 216.794L187.076 222.212C186.552 223.104 185.744 223.721 184.828 223.926C183.913 224.131 182.964 223.908 182.19 223.307C181.416 222.705 180.88 221.774 180.7 220.716C180.519 219.659 180.71 218.563 181.229 217.667L183.998 211.018C184.077 210.828 184.19 210.66 184.331 210.525C184.471 210.391 184.635 210.293 184.811 210.238C184.987 210.183 185.171 210.173 185.351 210.207C185.531 210.242 185.702 210.321 185.853 210.44L191.159 214.59C191.31 214.708 191.437 214.862 191.532 215.042C191.627 215.222 191.687 215.424 191.708 215.633V215.633Z" fill="#6C63FF"/>
<path d="M187.408 202.671C187.403 201.995 187.322 201.322 187.166 200.67C186.123 196.222 182.275 193.552 178.413 194.222C177.662 193.973 176.884 193.847 176.103 193.848V193.848C174.115 193.848 172.193 194.669 170.684 196.162C169.174 197.656 168.177 199.723 167.872 201.992L164.752 225.184H181.612L184.334 204.945C184.435 204.193 184.459 203.429 184.405 202.671H187.408Z" fill="#2F2E41"/>
<path d="M208.362 313H152.778C152.708 313 152.641 312.968 152.591 312.911C152.542 312.854 152.514 312.777 152.514 312.696C152.514 312.615 152.542 312.538 152.591 312.481C152.641 312.424 152.708 312.392 152.778 312.392H208.362C208.432 312.392 208.499 312.424 208.549 312.481C208.598 312.538 208.626 312.615 208.626 312.696C208.626 312.777 208.598 312.854 208.549 312.911C208.499 312.968 208.432 313 208.362 313Z" fill="#CCCCCC"/>
<path d="M264.361 163.629C264.746 163.586 265.135 163.641 265.5 163.791C265.865 163.94 266.198 164.18 266.474 164.494C266.749 164.808 266.962 165.188 267.097 165.607C267.233 166.026 267.286 166.474 267.255 166.92L275.871 171.299L271.761 174.363L264.209 169.735C263.564 169.625 262.977 169.245 262.558 168.668C262.139 168.091 261.918 167.357 261.937 166.604C261.955 165.851 262.212 165.133 262.659 164.584C263.106 164.036 263.712 163.696 264.361 163.629V163.629Z" fill="#A0616A"/>
<path d="M299.116 158.166C302.69 158.166 305.587 154.82 305.587 150.693C305.587 146.567 302.69 143.221 299.116 143.221C295.543 143.221 292.646 146.567 292.646 150.693C292.646 154.82 295.543 158.166 299.116 158.166Z" fill="#A0616A"/>
<path d="M287.406 257.239L284.176 257.238L282.64 242.852L287.407 242.852L287.406 257.239Z" fill="#A0616A"/>
<path d="M288.23 260.854L277.816 260.853V260.701C277.816 260.086 277.921 259.478 278.125 258.91C278.328 258.342 278.627 257.826 279.003 257.391C279.38 256.957 279.826 256.612 280.318 256.377C280.81 256.141 281.337 256.02 281.869 256.02H281.87L288.23 256.021L288.23 260.854Z" fill="#2F2E41"/>
<path d="M300.841 257.239L297.612 257.238L296.075 242.852L300.842 242.852L300.841 257.239Z" fill="#A0616A"/>
<path d="M301.665 260.854L291.251 260.853V260.701C291.251 260.086 291.356 259.478 291.56 258.91C291.764 258.342 292.062 257.826 292.439 257.391C292.815 256.957 293.262 256.612 293.754 256.377C294.245 256.141 294.772 256.02 295.305 256.02H295.305L301.665 256.021L301.665 260.854Z" fill="#2F2E41"/>
<path d="M300.688 254.174C300.64 254.174 300.592 254.171 300.544 254.164L295.816 253.492C295.539 253.453 295.283 253.302 295.093 253.067C294.903 252.831 294.791 252.525 294.777 252.203L293.399 216.376C293.395 216.275 293.361 216.178 293.303 216.101C293.245 216.024 293.167 215.972 293.08 215.953C292.994 215.933 292.904 215.948 292.825 215.994C292.747 216.04 292.684 216.116 292.647 216.208L289.108 229.832L288.379 251.718C288.373 251.906 288.333 252.091 288.261 252.261C288.19 252.431 288.089 252.583 287.965 252.705C287.841 252.828 287.696 252.92 287.539 252.975C287.383 253.029 287.218 253.046 287.056 253.024L282.962 252.468C282.669 252.429 282.399 252.265 282.206 252.009C282.012 251.752 281.908 251.422 281.915 251.081L282.263 230.481L285.036 198.144L285.16 198.149L302.026 198.9L301.874 252.81C301.873 253.172 301.747 253.519 301.525 253.775C301.303 254.031 301.002 254.174 300.688 254.174H300.688Z" fill="#2F2E41"/>
<path d="M301.387 201.855C301.376 201.855 301.366 201.855 301.356 201.855L284.37 201.341C284.203 201.336 284.04 201.29 283.889 201.207C283.739 201.124 283.606 201.006 283.498 200.859C283.39 200.713 283.31 200.542 283.263 200.357C283.216 200.172 283.204 199.978 283.226 199.788L286.49 172.045C286.694 170.172 287.238 168.369 288.086 166.755C288.933 165.141 290.067 163.751 291.411 162.677C292.594 161.737 293.937 161.1 295.35 160.809C296.764 160.518 298.215 160.579 299.606 160.99C305.535 162.725 309.092 170.077 307.535 177.379L302.538 200.813C302.473 201.11 302.325 201.373 302.117 201.562C301.908 201.751 301.652 201.854 301.387 201.855V201.855Z" fill="#3F3D56"/>
<path d="M279.103 179.825C277.983 179.826 276.888 179.45 275.951 178.743L266.045 171.238C265.9 171.128 265.778 170.983 265.687 170.813C265.596 170.642 265.538 170.451 265.518 170.252C265.498 170.053 265.516 169.851 265.57 169.661C265.625 169.471 265.715 169.297 265.835 169.152L267.327 167.333C267.49 167.133 267.701 166.995 267.932 166.936C268.164 166.877 268.406 166.9 268.626 167.002L279.691 172.09L289.941 163.637C290.42 163.242 290.965 162.966 291.542 162.826C292.118 162.687 292.713 162.687 293.29 162.827C293.866 162.967 294.411 163.244 294.89 163.64C295.369 164.035 295.771 164.541 296.072 165.126C296.373 165.711 296.566 166.361 296.638 167.036C296.71 167.711 296.659 168.396 296.49 169.048C296.321 169.699 296.037 170.303 295.655 170.821C295.274 171.339 294.803 171.76 294.273 172.057L281.605 179.163C280.825 179.6 279.969 179.826 279.103 179.825V179.825Z" fill="#3F3D56"/>
<path d="M301.358 157.839C302.462 158.14 303.794 158.371 304.583 157.43C304.723 157.252 304.847 157.06 304.956 156.855L305.987 155.037C306.777 153.644 307.581 152.214 307.916 150.594C308.108 149.664 308.138 148.698 308.004 147.754C307.87 146.809 307.576 145.905 307.137 145.093C306.698 144.282 306.124 143.579 305.448 143.026C304.771 142.473 304.007 142.08 303.198 141.871C301.658 141.473 300.151 140.788 298.577 140.913C297.003 141.038 295.156 140.997 293.835 140C293.918 140.444 294.363 142.407 294.363 142.407C294.363 142.407 292.376 144.512 291.978 145.037C292.499 144.77 293.067 144.645 293.637 144.671C294.207 144.697 294.764 144.873 295.266 145.187C295.768 145.5 296.201 145.942 296.531 146.479C296.862 147.016 297.082 147.633 297.173 148.284C297.286 149.083 297.22 149.968 297.631 150.624C298.022 151.248 298.723 151.466 299.312 151.826C300.161 152.385 300.81 153.276 301.141 154.338C301.471 155.401 301.463 156.565 301.116 157.62L301.358 157.839Z" fill="#2F2E41"/>
<path d="M292.759 200.785C292.802 200.34 292.928 199.912 293.13 199.53C293.331 199.148 293.603 198.822 293.925 198.574C294.248 198.326 294.613 198.163 294.996 198.096C295.379 198.03 295.77 198.06 296.141 198.187L301.617 189.343L303.372 194.616L297.904 202.206C297.679 202.912 297.237 203.499 296.662 203.854C296.087 204.21 295.419 204.309 294.785 204.134C294.151 203.959 293.594 203.521 293.221 202.904C292.848 202.287 292.683 201.533 292.759 200.785H292.759Z" fill="#A0616A"/>
<path d="M299.031 200.308C298.945 200.316 298.858 200.313 298.773 200.3C298.601 200.274 298.436 200.204 298.29 200.095C298.144 199.987 298.021 199.843 297.928 199.673L296.771 197.554C296.644 197.322 296.58 197.052 296.588 196.778C296.596 196.504 296.675 196.239 296.816 196.018L303.823 184.897L299.268 171.336C298.862 170.143 298.877 168.813 299.311 167.632C299.746 166.452 300.564 165.516 301.59 165.026V165.026C302.17 164.746 302.797 164.617 303.425 164.649C304.053 164.681 304.667 164.874 305.223 165.213C305.779 165.552 306.263 166.029 306.641 166.61C307.018 167.191 307.279 167.861 307.405 168.572L310.231 184.506C310.428 185.629 310.37 186.793 310.063 187.883C309.756 188.973 309.21 189.953 308.479 190.729L299.731 199.954C299.538 200.158 299.292 200.283 299.031 200.308V200.308Z" fill="#3F3D56"/>
<path d="M313.737 261.585H258.152C258.082 261.585 258.015 261.553 257.965 261.496C257.916 261.439 257.888 261.362 257.888 261.281C257.888 261.201 257.916 261.123 257.965 261.066C258.015 261.009 258.082 260.977 258.152 260.977H313.737C313.806 260.977 313.873 261.009 313.923 261.066C313.972 261.123 314 261.201 314 261.281C314 261.362 313.972 261.439 313.923 261.496C313.873 261.553 313.806 261.585 313.737 261.585Z" fill="#CCCCCC"/>
<path d="M124.606 165.833H98.0976C97.7706 165.833 97.457 165.683 97.2257 165.416C96.9945 165.149 96.8646 164.787 96.8646 164.41C96.8646 164.032 96.9945 163.67 97.2257 163.403C97.457 163.136 97.7706 162.986 98.0976 162.986H124.606C124.933 162.986 125.246 163.136 125.477 163.403C125.709 163.67 125.839 164.032 125.839 164.41C125.839 164.787 125.709 165.149 125.477 165.416C125.246 165.683 124.933 165.833 124.606 165.833V165.833Z" fill="#CCCCCC"/>
<path d="M87.1244 165.833C89.2523 165.833 90.9773 163.841 90.9773 161.384C90.9773 158.926 89.2523 156.934 87.1244 156.934C84.9965 156.934 83.2715 158.926 83.2715 161.384C83.2715 163.841 84.9965 165.833 87.1244 165.833Z" fill="#6C63FF"/>
<path d="M129.378 145.467C129.014 145.619 128.682 145.861 128.408 146.176C128.133 146.491 127.922 146.872 127.788 147.292C127.655 147.712 127.603 148.161 127.636 148.606C127.669 149.052 127.786 149.484 127.979 149.871L121.809 158.083L126.659 158.825L131.774 150.913C132.317 150.496 132.707 149.862 132.873 149.134C133.038 148.406 132.966 147.632 132.671 146.961C132.375 146.29 131.877 145.767 131.27 145.492C130.663 145.216 129.99 145.208 129.378 145.467V145.467Z" fill="#FFB8B8"/>
<path d="M88.1828 148.755C88.3144 149.175 88.3646 149.624 88.3297 150.07C88.2949 150.515 88.1759 150.946 87.9811 151.333C87.7864 151.719 87.5206 152.052 87.2025 152.307C86.8844 152.562 86.5217 152.734 86.1401 152.809L84.6047 163.535L81.0148 159.698L83.0231 150.1C82.9554 149.351 83.128 148.6 83.5081 147.988C83.8882 147.376 84.4494 146.947 85.0854 146.781C85.7214 146.615 86.388 146.724 86.9589 147.088C87.5298 147.452 87.9653 148.045 88.1828 148.755V148.755Z" fill="#FFB8B8"/>
<path d="M97.8249 257.239L101.055 257.238L102.591 242.852L97.8243 242.852L97.8249 257.239Z" fill="#FFB8B8"/>
<path d="M97.001 256.021L103.361 256.02H103.362C103.894 256.02 104.421 256.141 104.913 256.377C105.404 256.612 105.851 256.957 106.228 257.391C106.604 257.826 106.903 258.342 107.106 258.91C107.31 259.478 107.415 260.086 107.415 260.701V260.853L97.0012 260.854L97.001 256.021Z" fill="#2F2E41"/>
<path d="M81.2284 257.239L84.4581 257.238L85.9945 242.852L81.2279 242.852L81.2284 257.239Z" fill="#FFB8B8"/>
<path d="M80.4045 256.021L86.7649 256.02H86.7651C87.2974 256.02 87.8245 256.141 88.3163 256.377C88.8081 256.612 89.2549 256.957 89.6313 257.391C90.0077 257.826 90.3062 258.342 90.5099 258.91C90.7136 259.478 90.8185 260.086 90.8185 260.701V260.853L80.4047 260.854L80.4045 256.021Z" fill="#2F2E41"/>
<path d="M97.1507 159.017C100.724 159.017 103.621 155.671 103.621 151.545C103.621 147.418 100.724 144.072 97.1507 144.072C93.5772 144.072 90.6804 147.418 90.6804 151.545C90.6804 155.671 93.5772 159.017 97.1507 159.017Z" fill="#FFB8B8"/>
<path d="M96.375 252.459L95.84 213.09C95.8387 212.979 95.8021 212.872 95.7373 212.79C95.6724 212.707 95.5838 212.655 95.488 212.643C95.3922 212.631 95.2958 212.66 95.2171 212.724C95.1384 212.788 95.0826 212.883 95.0604 212.992L86.2904 251.5C86.2244 251.808 86.0688 252.08 85.8497 252.272C85.6305 252.463 85.361 252.562 85.0863 252.552L80.268 252.314C80.1042 252.306 79.9437 252.258 79.7965 252.175C79.6493 252.092 79.5187 251.974 79.413 251.829C79.3072 251.684 79.2286 251.516 79.1821 251.334C79.1355 251.153 79.1221 250.962 79.1426 250.774L86.5844 201.289L86.5996 201.15L107.327 202.282L107.462 202.289L103.018 252.541C102.994 252.886 102.86 253.207 102.641 253.442C102.422 253.676 102.134 253.808 101.836 253.809H97.5603C97.2492 253.807 96.9509 253.665 96.7294 253.413C96.5078 253.161 96.3806 252.818 96.375 252.459V252.459Z" fill="#2F2E41"/>
<path d="M112.746 205.617L82.6677 202.766C82.4861 202.749 82.3105 202.684 82.1543 202.576C81.9981 202.467 81.8657 202.319 81.7672 202.142C81.6688 201.965 81.607 201.764 81.5866 201.555C81.5663 201.346 81.5879 201.134 81.6499 200.937L86.3867 185.813L86.6592 167.863C86.6691 167.211 86.7909 166.568 87.0176 165.971C87.2443 165.374 87.5714 164.836 87.9798 164.386C88.3883 163.936 88.87 163.584 89.397 163.351C89.924 163.118 90.4858 163.008 91.0499 163.028L93.0502 160.934H100.379L101.017 161.9L106.116 162.805C107.025 162.971 107.863 163.469 108.507 164.227C109.151 164.985 109.567 165.962 109.694 167.014L114.018 204.07C114.04 204.263 114.027 204.46 113.978 204.647C113.93 204.834 113.847 205.006 113.736 205.153C113.625 205.3 113.488 205.418 113.334 205.499C113.18 205.58 113.013 205.622 112.845 205.622C112.812 205.622 112.779 205.62 112.746 205.617Z" fill="#2F2E41"/>
<path d="M106.886 164.545L119.711 160.206L125.515 151.381C125.675 151.138 125.9 150.964 126.156 150.885C126.411 150.807 126.682 150.83 126.925 150.95L130.549 152.739C130.703 152.815 130.842 152.929 130.956 153.072C131.069 153.214 131.156 153.384 131.208 153.568C131.261 153.752 131.279 153.947 131.262 154.14C131.244 154.333 131.192 154.519 131.107 154.687L126.769 163.283C126.063 164.69 124.988 165.8 123.699 166.454L108.615 174.155L106.886 164.545Z" fill="#2F2E41"/>
<path d="M82.2805 171.037C81.5141 170.399 80.9029 169.544 80.5059 168.554C80.1089 167.564 79.9394 166.473 80.014 165.386L80.5768 156.774C80.6 156.43 80.7345 156.108 80.9536 155.874C81.1727 155.639 81.4602 155.508 81.759 155.508H81.7694L86.0191 155.551C86.1932 155.553 86.3648 155.599 86.5218 155.686C86.6787 155.773 86.8171 155.899 86.9271 156.055C87.0372 156.211 87.1162 156.393 87.1585 156.588C87.2008 156.783 87.2054 156.986 87.1719 157.184L86.3834 161.83L92.0104 164.575L87.272 175.221L82.2805 171.037Z" fill="#2F2E41"/>
<path d="M100.915 142.585C100.915 142.585 94.1482 138.377 90.4601 143.343C86.772 148.309 91.8652 156.074 91.8652 156.074L99.1224 157.131C99.1224 157.131 99.3858 151.434 101.114 151.545C102.842 151.655 108.208 144.466 100.915 142.585Z" fill="#2F2E41"/>
<path d="M119.848 261.281H64.2634C64.1936 261.281 64.1266 261.249 64.0772 261.192C64.0278 261.135 64 261.058 64 260.977C64 260.896 64.0278 260.819 64.0772 260.762C64.1266 260.705 64.1936 260.673 64.2634 260.673H119.848C119.918 260.673 119.985 260.705 120.035 260.762C120.084 260.819 120.112 260.896 120.112 260.977C120.112 261.058 120.084 261.135 120.035 261.192C119.985 261.249 119.918 261.281 119.848 261.281Z" fill="#CCCCCC"/>
</g>
<path d="M139.771 41.052H145.387V66H139.771V41.052ZM167.901 66C166.293 63.144 164.553 60.324 162.681 57.54C160.809 54.756 158.817 52.128 156.705 49.656V66H151.161V41.052H155.733C156.525 41.844 157.401 42.816 158.361 43.968C159.321 45.12 160.293 46.356 161.277 47.676C162.285 48.972 163.281 50.328 164.265 51.744C165.249 53.136 166.173 54.48 167.037 55.776V41.052H172.617V66H167.901ZM185.176 61.716C185.968 61.716 186.616 61.656 187.12 61.536C187.648 61.392 188.068 61.212 188.38 60.996C188.692 60.756 188.908 60.48 189.028 60.168C189.148 59.856 189.208 59.508 189.208 59.124C189.208 58.308 188.824 57.636 188.056 57.108C187.288 56.556 185.968 55.968 184.096 55.344C183.28 55.056 182.464 54.732 181.648 54.372C180.832 53.988 180.1 53.52 179.452 52.968C178.804 52.392 178.276 51.708 177.868 50.916C177.46 50.1 177.256 49.116 177.256 47.964C177.256 46.812 177.472 45.78 177.904 44.868C178.336 43.932 178.948 43.14 179.74 42.492C180.532 41.844 181.492 41.352 182.62 41.016C183.748 40.656 185.02 40.476 186.436 40.476C188.116 40.476 189.568 40.656 190.792 41.016C192.016 41.376 193.024 41.772 193.816 42.204L192.196 46.632C191.5 46.272 190.72 45.96 189.856 45.696C189.016 45.408 187.996 45.264 186.796 45.264C185.452 45.264 184.48 45.456 183.88 45.84C183.304 46.2 183.016 46.764 183.016 47.532C183.016 47.988 183.124 48.372 183.34 48.684C183.556 48.996 183.856 49.284 184.24 49.548C184.648 49.788 185.104 50.016 185.608 50.232C186.136 50.424 186.712 50.628 187.336 50.844C188.632 51.324 189.76 51.804 190.72 52.284C191.68 52.74 192.472 53.28 193.096 53.904C193.744 54.528 194.224 55.26 194.536 56.1C194.848 56.94 195.004 57.96 195.004 59.16C195.004 61.488 194.188 63.3 192.556 64.596C190.924 65.868 188.464 66.504 185.176 66.504C184.072 66.504 183.076 66.432 182.188 66.288C181.3 66.168 180.508 66.012 179.812 65.82C179.14 65.628 178.552 65.424 178.048 65.208C177.568 64.992 177.16 64.788 176.824 64.596L178.408 60.132C179.152 60.54 180.064 60.912 181.144 61.248C182.248 61.56 183.592 61.716 185.176 61.716ZM210.701 66.504C206.645 66.504 203.549 65.376 201.413 63.12C199.301 60.864 198.245 57.66 198.245 53.508C198.245 51.444 198.569 49.608 199.217 48C199.865 46.368 200.753 45 201.881 43.896C203.009 42.768 204.353 41.916 205.913 41.34C207.473 40.764 209.165 40.476 210.989 40.476C212.045 40.476 213.005 40.56 213.869 40.728C214.733 40.872 215.489 41.052 216.137 41.268C216.785 41.46 217.325 41.664 217.757 41.88C218.189 42.096 218.501 42.264 218.693 42.384L217.073 46.92C216.305 46.512 215.405 46.164 214.373 45.876C213.365 45.588 212.213 45.444 210.917 45.444C210.053 45.444 209.201 45.588 208.361 45.876C207.545 46.164 206.813 46.632 206.165 47.28C205.541 47.904 205.037 48.72 204.653 49.728C204.269 50.736 204.077 51.96 204.077 53.4C204.077 54.552 204.197 55.632 204.437 56.64C204.701 57.624 205.109 58.476 205.661 59.196C206.237 59.916 206.981 60.492 207.893 60.924C208.805 61.332 209.909 61.536 211.205 61.536C212.021 61.536 212.753 61.488 213.401 61.392C214.049 61.296 214.625 61.188 215.129 61.068C215.633 60.924 216.077 60.768 216.461 60.6C216.845 60.432 217.193 60.276 217.505 60.132L219.053 64.632C218.261 65.112 217.145 65.544 215.705 65.928C214.265 66.312 212.597 66.504 210.701 66.504ZM226.471 53.508C226.471 54.732 226.615 55.836 226.903 56.82C227.215 57.804 227.647 58.656 228.199 59.376C228.775 60.072 229.471 60.612 230.287 60.996C231.103 61.38 232.039 61.572 233.095 61.572C234.127 61.572 235.051 61.38 235.867 60.996C236.707 60.612 237.403 60.072 237.955 59.376C238.531 58.656 238.963 57.804 239.251 56.82C239.563 55.836 239.719 54.732 239.719 53.508C239.719 52.284 239.563 51.18 239.251 50.196C238.963 49.188 238.531 48.336 237.955 47.64C237.403 46.92 236.707 46.368 235.867 45.984C235.051 45.6 234.127 45.408 233.095 45.408C232.039 45.408 231.103 45.612 230.287 46.02C229.471 46.404 228.775 46.956 228.199 47.676C227.647 48.372 227.215 49.224 226.903 50.232C226.615 51.216 226.471 52.308 226.471 53.508ZM245.515 53.508C245.515 55.644 245.191 57.528 244.543 59.16C243.919 60.768 243.055 62.124 241.951 63.228C240.847 64.308 239.527 65.124 237.991 65.676C236.479 66.228 234.847 66.504 233.095 66.504C231.391 66.504 229.783 66.228 228.271 65.676C226.759 65.124 225.439 64.308 224.311 63.228C223.183 62.124 222.295 60.768 221.647 59.16C220.999 57.528 220.675 55.644 220.675 53.508C220.675 51.372 221.011 49.5 221.683 47.892C222.355 46.26 223.255 44.892 224.383 43.788C225.535 42.684 226.855 41.856 228.343 41.304C229.855 40.752 231.439 40.476 233.095 40.476C234.799 40.476 236.407 40.752 237.919 41.304C239.431 41.856 240.751 42.684 241.879 43.788C243.007 44.892 243.895 46.26 244.543 47.892C245.191 49.5 245.515 51.372 245.515 53.508ZM99.256 107.504C95.2 107.504 92.104 106.376 89.968 104.12C87.856 101.864 86.8 98.66 86.8 94.508C86.8 92.444 87.124 90.608 87.772 89C88.42 87.368 89.308 86 90.436 84.896C91.564 83.768 92.908 82.916 94.468 82.34C96.028 81.764 97.72 81.476 99.544 81.476C100.6 81.476 101.56 81.56 102.424 81.728C103.288 81.872 104.044 82.052 104.692 82.268C105.34 82.46 105.88 82.664 106.312 82.88C106.744 83.096 107.056 83.264 107.248 83.384L105.628 87.92C104.86 87.512 103.96 87.164 102.928 86.876C101.92 86.588 100.768 86.444 99.472 86.444C98.608 86.444 97.756 86.588 96.916 86.876C96.1 87.164 95.368 87.632 94.72 88.28C94.096 88.904 93.592 89.72 93.208 90.728C92.824 91.736 92.632 92.96 92.632 94.4C92.632 95.552 92.752 96.632 92.992 97.64C93.256 98.624 93.664 99.476 94.216 100.196C94.792 100.916 95.536 101.492 96.448 101.924C97.36 102.332 98.464 102.536 99.76 102.536C100.576 102.536 101.308 102.488 101.956 102.392C102.604 102.296 103.18 102.188 103.684 102.068C104.188 101.924 104.632 101.768 105.016 101.6C105.4 101.432 105.748 101.276 106.06 101.132L107.608 105.632C106.816 106.112 105.7 106.544 104.26 106.928C102.82 107.312 101.152 107.504 99.256 107.504ZM115.026 94.508C115.026 95.732 115.17 96.836 115.458 97.82C115.77 98.804 116.202 99.656 116.754 100.376C117.33 101.072 118.026 101.612 118.842 101.996C119.658 102.38 120.594 102.572 121.65 102.572C122.682 102.572 123.606 102.38 124.422 101.996C125.262 101.612 125.958 101.072 126.51 100.376C127.086 99.656 127.518 98.804 127.806 97.82C128.118 96.836 128.274 95.732 128.274 94.508C128.274 93.284 128.118 92.18 127.806 91.196C127.518 90.188 127.086 89.336 126.51 88.64C125.958 87.92 125.262 87.368 124.422 86.984C123.606 86.6 122.682 86.408 121.65 86.408C120.594 86.408 119.658 86.612 118.842 87.02C118.026 87.404 117.33 87.956 116.754 88.676C116.202 89.372 115.77 90.224 115.458 91.232C115.17 92.216 115.026 93.308 115.026 94.508ZM134.07 94.508C134.07 96.644 133.746 98.528 133.098 100.16C132.474 101.768 131.61 103.124 130.506 104.228C129.402 105.308 128.082 106.124 126.546 106.676C125.034 107.228 123.402 107.504 121.65 107.504C119.946 107.504 118.338 107.228 116.826 106.676C115.314 106.124 113.994 105.308 112.866 104.228C111.738 103.124 110.85 101.768 110.202 100.16C109.554 98.528 109.23 96.644 109.23 94.508C109.23 92.372 109.566 90.5 110.238 88.892C110.91 87.26 111.81 85.892 112.938 84.788C114.09 83.684 115.41 82.856 116.898 82.304C118.41 81.752 119.994 81.476 121.65 81.476C123.354 81.476 124.962 81.752 126.474 82.304C127.986 82.856 129.306 83.684 130.434 84.788C131.562 85.892 132.45 87.26 133.098 88.892C133.746 90.5 134.07 92.372 134.07 94.508ZM145.375 82.052C145.807 82.844 146.299 83.828 146.851 85.004C147.427 86.156 148.015 87.416 148.615 88.784C149.239 90.128 149.851 91.508 150.451 92.924C151.051 94.34 151.615 95.672 152.143 96.92C152.671 95.672 153.235 94.34 153.835 92.924C154.435 91.508 155.035 90.128 155.635 88.784C156.259 87.416 156.847 86.156 157.399 85.004C157.975 83.828 158.479 82.844 158.911 82.052H164.023C164.263 83.708 164.479 85.568 164.671 87.632C164.887 89.672 165.067 91.808 165.211 94.04C165.379 96.248 165.523 98.468 165.643 100.7C165.787 102.932 165.907 105.032 166.003 107H160.531C160.459 104.576 160.363 101.936 160.243 99.08C160.123 96.224 159.943 93.344 159.703 90.44C159.271 91.448 158.791 92.564 158.263 93.788C157.735 95.012 157.207 96.236 156.679 97.46C156.175 98.684 155.683 99.86 155.203 100.988C154.723 102.092 154.315 103.04 153.979 103.832H150.055C149.719 103.04 149.311 102.092 148.831 100.988C148.351 99.86 147.847 98.684 147.319 97.46C146.815 96.236 146.299 95.012 145.771 93.788C145.243 92.564 144.763 91.448 144.331 90.44C144.091 93.344 143.911 96.224 143.791 99.08C143.671 101.936 143.575 104.576 143.503 107H138.031C138.127 105.032 138.235 102.932 138.355 100.7C138.499 98.468 138.643 96.248 138.787 94.04C138.955 91.808 139.135 89.672 139.327 87.632C139.543 85.568 139.771 83.708 140.011 82.052H145.375ZM177.684 82.052C178.116 82.844 178.608 83.828 179.16 85.004C179.736 86.156 180.324 87.416 180.924 88.784C181.548 90.128 182.16 91.508 182.76 92.924C183.36 94.34 183.924 95.672 184.452 96.92C184.98 95.672 185.544 94.34 186.144 92.924C186.744 91.508 187.344 90.128 187.944 88.784C188.568 87.416 189.156 86.156 189.708 85.004C190.284 83.828 190.788 82.844 191.22 82.052H196.332C196.572 83.708 196.788 85.568 196.98 87.632C197.196 89.672 197.376 91.808 197.52 94.04C197.688 96.248 197.832 98.468 197.952 100.7C198.096 102.932 198.216 105.032 198.312 107H192.84C192.768 104.576 192.672 101.936 192.552 99.08C192.432 96.224 192.252 93.344 192.012 90.44C191.58 91.448 191.1 92.564 190.572 93.788C190.044 95.012 189.516 96.236 188.988 97.46C188.484 98.684 187.992 99.86 187.512 100.988C187.032 102.092 186.624 103.04 186.288 103.832H182.364C182.028 103.04 181.62 102.092 181.14 100.988C180.66 99.86 180.156 98.684 179.628 97.46C179.124 96.236 178.608 95.012 178.08 93.788C177.552 92.564 177.072 91.448 176.64 90.44C176.4 93.344 176.22 96.224 176.1 99.08C175.98 101.936 175.884 104.576 175.812 107H170.34C170.436 105.032 170.544 102.932 170.664 100.7C170.808 98.468 170.952 96.248 171.096 94.04C171.264 91.808 171.444 89.672 171.636 87.632C171.852 85.568 172.08 83.708 172.32 82.052H177.684ZM213.124 107.504C211.372 107.504 209.86 107.264 208.588 106.784C207.316 106.28 206.26 105.596 205.42 104.732C204.604 103.844 203.992 102.8 203.584 101.6C203.2 100.376 203.008 99.032 203.008 97.568V82.052H208.624V97.1C208.624 98.108 208.732 98.972 208.948 99.692C209.188 100.388 209.5 100.964 209.884 101.42C210.292 101.852 210.772 102.164 211.324 102.356C211.9 102.548 212.524 102.644 213.196 102.644C214.564 102.644 215.668 102.224 216.508 101.384C217.372 100.544 217.804 99.116 217.804 97.1V82.052H223.42V97.568C223.42 99.032 223.216 100.376 222.808 101.6C222.4 102.824 221.776 103.88 220.936 104.768C220.096 105.632 219.028 106.304 217.732 106.784C216.436 107.264 214.9 107.504 213.124 107.504ZM245.561 107C243.953 104.144 242.213 101.324 240.341 98.54C238.469 95.756 236.477 93.128 234.365 90.656V107H228.821V82.052H233.393C234.185 82.844 235.061 83.816 236.021 84.968C236.981 86.12 237.953 87.356 238.937 88.676C239.945 89.972 240.941 91.328 241.925 92.744C242.909 94.136 243.833 95.48 244.697 96.776V82.052H250.277V107H245.561ZM256.032 82.052H261.648V107H256.032V82.052ZM285.927 82.052V86.84H278.403V107H272.787V86.84H265.263V82.052H285.927ZM299.911 92.312C300.919 90.608 301.879 88.904 302.791 87.2C303.703 85.496 304.543 83.78 305.311 82.052H311.503C310.135 84.74 308.719 87.344 307.255 89.864C305.791 92.384 304.243 94.916 302.611 97.46V107H296.995V97.532C295.363 94.988 293.803 92.444 292.315 89.9C290.851 87.356 289.435 84.74 288.067 82.052H294.583C295.351 83.78 296.179 85.496 297.067 87.2C297.955 88.904 298.903 90.608 299.911 92.312Z" fill="url(#paint0_linear)"/>
<path opacity="0.1" d="M312.597 97.8323C312.54 98.2067 312.483 98.5811 312.42 98.9555C310.385 111.705 307.064 123.996 302.125 135.282C301.962 135.656 301.797 136.03 301.629 136.405C298.46 143.521 294.567 150.208 290.029 156.335C287.568 159.641 284.886 162.779 281.696 165.046C277.225 168.221 271.998 169.512 266.861 170.568C261.522 171.668 256.115 172.574 250.72 173.577C248.808 173.924 246.907 174.289 245.019 174.67C239.807 175.719 234.633 176.933 229.583 178.541C223.339 180.546 217.281 183.13 211.579 186.791C211.123 187.08 210.672 187.378 210.226 187.683C209.779 187.984 209.326 188.292 208.891 188.606C208.456 188.92 208.018 189.231 207.585 189.548L206.919 190.05C206.7 190.21 206.484 190.384 206.268 190.545C205.626 191.033 204.993 191.547 204.36 192.042L204.336 192.062C203.919 192.397 203.505 192.731 203.09 193.065C200.753 194.994 198.466 197.013 196.189 199.039L194.752 200.319C194.009 200.974 193.267 201.628 192.525 202.281C192.09 202.666 191.649 203.047 191.211 203.428C190.893 203.705 190.578 203.983 190.254 204.257C188.63 205.651 186.986 207.015 185.309 208.318C184.909 208.629 184.504 208.94 184.108 209.244C180.751 211.803 177.179 213.995 173.444 215.789L173.396 215.813C171.556 216.686 169.663 217.414 167.731 217.989C166.623 218.323 165.516 218.587 164.394 218.795C161.404 219.371 158.353 219.429 155.347 218.968C149.439 218.036 143.902 214.957 138.009 213.927C125.85 211.825 114.043 218.607 102.601 223.932C99.8005 225.238 96.9689 226.464 94.1062 227.609C92.2098 228.372 90.3044 229.097 88.3899 229.786C76.7268 233.988 64.7087 236.852 52.523 238.333C47.5479 238.938 42.3597 239.226 37.2946 238.791C35.3818 238.635 33.4784 238.359 31.5933 237.965C25.1809 236.628 19.1946 233.79 14.3725 228.606C10.3666 224.364 7.53996 218.818 5.38548 213.032C4.51929 210.707 3.75612 208.329 3.09597 205.898C2.05834 202.088 1.27898 198.196 0.764454 194.255C0.647428 193.366 0.542404 192.473 0.464387 191.581C0.308352 190.05 0.192325 188.512 0.116308 186.968C-0.303821 178.76 0.415809 170.529 2.24978 162.565C4.29324 153.744 7.702 145.297 9.20233 136.391C9.26534 136.017 9.32236 135.643 9.37937 135.268C9.57941 133.931 9.73145 132.569 9.83547 131.183C10.5916 120.293 7.66599 109.632 5.35548 98.9555C5.27446 98.5811 5.19344 98.2067 5.11542 97.8323C4.86537 96.649 4.62831 95.4645 4.40426 94.2789C2.26479 82.987 1.67966 70.9028 3.57908 59.6343C3.63909 59.2599 3.70811 58.8821 3.77712 58.5111C5.05841 51.5313 7.32091 44.8925 10.7867 38.9791C14.3425 32.9086 19.0115 27.8577 23.9896 23.4184C26.4202 21.2568 28.9337 19.2344 31.5303 17.3513C33.3967 16.0008 35.2971 14.7227 37.2316 13.5171C52.862 3.82301 70.695 -0.913726 88.3269 0.145939C89.2611 0.199423 90.1933 0.270736 91.1236 0.359877C92.0998 0.453475 93.073 0.564902 94.0432 0.694156C105.395 2.15496 116.44 5.7752 127.42 9.73641C131.098 11.0735 134.768 12.4106 138.438 13.7478C140.07 14.3405 141.702 14.9255 143.332 15.5027C151.329 18.314 159.458 20.8512 167.662 22.7633C169.564 23.209 171.464 23.6157 173.363 23.9834C179.963 25.3005 186.642 26.067 193.344 26.2765C195.945 26.3478 198.545 26.3178 201.146 26.1863C202.46 26.1194 203.776 26.0214 205.092 25.8921C218.688 24.5951 231.798 20.2461 244.962 16.1613C246.864 15.5696 248.77 14.9812 250.663 14.413C253.166 13.6642 255.671 12.9388 258.186 12.2702C273.843 8.08173 287.796 10.4885 302.353 19.1263C305.653 21.0885 308.954 23.4552 310.994 27.1189C313.035 30.7826 313.53 35.3188 313.908 39.6845C314.442 45.8954 314.808 52.1932 314.925 58.5178C314.925 58.8922 314.925 59.2665 314.946 59.6409C315.21 72.4472 314.511 85.3503 312.597 97.8323Z" fill="#6C63FF"/>
<path opacity="0.1" d="M295.189 127.913C275.873 118.819 260.269 103.535 245.806 87.912C231.343 72.2892 217.419 55.8657 200.044 43.4877C188.869 35.5261 174.922 29.1789 161.735 32.6761C149.034 36.0542 140.55 47.5191 133.88 58.6802C128.861 67.0752 124.161 76.1545 124.061 85.9568C123.99 92.7613 126.155 99.4199 126.719 106.227C128.719 129.849 111.472 150.654 92.488 164.878C83.5861 171.554 74.0193 177.475 66.0585 185.211C58.0976 192.946 51.6882 202.973 51.1136 214.061C50.5445 225.059 55.7633 235.688 62.5588 244.489C76.3651 262.37 50.8661 283.046 71 293.5C115.553 316.639 208.184 325.885 255.08 343.814C272.437 350.449 289.87 357.107 307.997 361.136C318.066 363.373 328.857 364.737 338.409 361.054C350.531 356.378 358.61 343.202 357.241 330.345C354.94 308.773 330.019 293.133 331.166 271.506C331.803 259.608 340.486 249.722 349.943 242.426C370.23 226.784 397.304 216.975 408.247 193.924C415.764 178.088 413.226 157.985 401.984 144.243C390.213 129.811 368.753 121.947 351.98 130.47C334.697 139.251 312.245 135.939 295.189 127.913Z" fill="#9E63FF"/>
<defs>
<linearGradient id="paint0_linear" x1="68" y1="7.99999" x2="362" y2="114" gradientUnits="userSpaceOnUse">
<stop stop-color="#6374CE"/>
<stop offset="1" stop-color="#AF5AE3"/>
</linearGradient>
<clipPath id="clip0">
<rect width="250" height="173" fill="white" transform="translate(64 140)"/>
</clipPath>
</defs>
</svg>
