<svg width="414" height="736" viewBox="0 0 414 736" fill="none" xmlns="http://www.w3.org/2000/svg">
<rect width="414" height="736" fill="url(#paint0_linear)"/>
<path d="M86.7688 240.25H89.0188V292H86.7688V240.25ZM82.2688 240.25H84.5188V292H82.2688V240.25ZM77.7688 240.25H80.0188V292H77.7688V240.25ZM73.2688 240.25H75.5188V292H73.2688V240.25ZM141.306 267.094L139.056 263.375V240.25H141.306V267.094ZM145.806 274.469L143.556 270.688V240.25H145.806V274.469ZM150.306 281.938L148.056 278.125V240.25H150.306V281.938ZM118.056 265.156L120.306 268.875V292H118.056V265.156ZM113.556 257.781L115.806 261.562V292H113.556V257.781ZM109.056 250.312L111.306 254.125V292H109.056V250.312ZM109.838 240.25H112.463L144.275 292H141.65L109.838 240.25ZM115.15 240.25H117.806L149.588 292H146.9L115.15 240.25ZM120.431 240.25H123.056L152.556 288.344V240.25H154.806V292C154.806 292 153.921 292 152.15 292L120.431 240.25ZM106.806 243.906V292H104.556V240.25C104.556 240.25 105.452 240.25 107.244 240.25L138.963 292H136.369L106.806 243.906ZM191.25 260.5H187.469C185.865 260.5 184.708 260.094 184 259.281C183.292 258.448 182.938 257.354 182.938 256C182.938 253 185.177 251.5 189.656 251.5C193.865 251.5 197.031 252.125 199.156 253.375L197.344 254.75C195.885 254.083 193.323 253.75 189.656 253.75C187.865 253.75 186.656 253.948 186.031 254.344C185.427 254.74 185.125 255.292 185.125 256C185.125 256.708 185.292 257.26 185.625 257.656C185.958 258.052 186.573 258.25 187.469 258.25H191.344C194.156 258.25 196.688 258.729 198.938 259.688C201.208 260.646 203.073 261.958 204.531 263.625C205.99 265.271 207.104 267.177 207.875 269.344C208.646 271.49 209.031 273.792 209.031 276.25C209.031 278.25 208.75 280.146 208.188 281.938C207.625 283.729 206.771 285.375 205.625 286.875C204.5 288.375 203.135 289.677 201.531 290.781C199.948 291.865 198.052 292.708 195.844 293.312C193.656 293.938 191.281 294.25 188.719 294.25C184.698 294.25 180.927 293.635 177.406 292.406C173.906 291.198 170.99 289.5 168.656 287.312L170.469 285.969C172.594 287.885 175.25 289.375 178.438 290.438C181.646 291.479 185.073 292 188.719 292C191.573 292 194.146 291.594 196.438 290.781C198.75 289.948 200.646 288.812 202.125 287.375C203.625 285.938 204.771 284.271 205.562 282.375C206.375 280.479 206.781 278.438 206.781 276.25C206.781 273.354 206.198 270.74 205.031 268.406C203.865 266.052 202.083 264.146 199.688 262.688C197.312 261.229 194.5 260.5 191.25 260.5ZM187.469 262.75H191.031C195.26 262.75 198.562 264.042 200.938 266.625C203.333 269.208 204.531 272.417 204.531 276.25C204.531 280.146 203.146 283.375 200.375 285.938C197.604 288.479 193.719 289.75 188.719 289.75C185.385 289.75 182.271 289.292 179.375 288.375C176.479 287.458 174.073 286.167 172.156 284.5L173.906 283.094C175.615 284.49 177.76 285.573 180.344 286.344C182.948 287.115 185.74 287.5 188.719 287.5C193.115 287.5 196.469 286.448 198.781 284.344C201.115 282.24 202.281 279.542 202.281 276.25C202.281 273 201.302 270.312 199.344 268.188C197.406 266.062 194.625 265 191 265H187.469C184.427 265 182.146 264.167 180.625 262.5C179.104 260.833 178.344 258.667 178.344 256C178.344 253.333 179.281 251.167 181.156 249.5C183.052 247.833 185.885 247 189.656 247C192.302 247 194.76 247.312 197.031 247.938C199.302 248.542 201.177 249.417 202.656 250.562L200.875 251.938C198.271 250.146 194.531 249.25 189.656 249.25C186.51 249.25 184.208 249.875 182.75 251.125C181.312 252.354 180.594 253.979 180.594 256C180.594 258.042 181.125 259.677 182.188 260.906C183.271 262.135 185.031 262.75 187.469 262.75ZM187.469 267.25H190.906C193.948 267.25 196.229 268.094 197.75 269.781C199.271 271.469 200.031 273.625 200.031 276.25C200.031 278.917 199.083 281.083 197.188 282.75C195.312 284.417 192.49 285.25 188.719 285.25C186.073 285.25 183.604 284.948 181.312 284.344C179.042 283.719 177.167 282.833 175.688 281.688L177.469 280.312C180.073 282.104 183.823 283 188.719 283C191.865 283 194.156 282.385 195.594 281.156C197.052 279.906 197.781 278.271 197.781 276.25C197.781 274.229 197.24 272.604 196.156 271.375C195.073 270.125 193.312 269.5 190.875 269.5H187.469C183.198 269.5 179.854 268.229 177.438 265.688C175.042 263.125 173.844 259.896 173.844 256C173.844 252.104 175.229 248.885 178 246.344C180.771 243.781 184.656 242.5 189.656 242.5C192.99 242.5 196.094 242.958 198.969 243.875C201.865 244.792 204.271 246.083 206.188 247.75L204.438 249.156C202.729 247.76 200.583 246.677 198 245.906C195.417 245.135 192.635 244.75 189.656 244.75C185.26 244.75 181.896 245.802 179.562 247.906C177.25 250.01 176.094 252.708 176.094 256C176.094 259.271 177.073 261.969 179.031 264.094C180.99 266.198 183.802 267.25 187.469 267.25ZM187.469 271.75H190.906C192.51 271.75 193.667 272.167 194.375 273C195.083 273.833 195.438 274.917 195.438 276.25C195.438 279.25 193.198 280.75 188.719 280.75C184.49 280.75 181.312 280.125 179.188 278.875L181 277.5C182.458 278.167 185.031 278.5 188.719 278.5C190.51 278.5 191.708 278.302 192.312 277.906C192.938 277.51 193.25 276.958 193.25 276.25C193.25 275.562 193.073 275.021 192.719 274.625C192.385 274.208 191.76 274 190.844 274H187.469C184.594 274 181.99 273.531 179.656 272.594C177.344 271.656 175.438 270.365 173.938 268.719C172.458 267.073 171.323 265.167 170.531 263C169.74 260.833 169.344 258.5 169.344 256C169.344 254 169.625 252.104 170.188 250.312C170.75 248.521 171.594 246.875 172.719 245.375C173.865 243.875 175.229 242.583 176.812 241.5C178.417 240.396 180.312 239.542 182.5 238.938C184.708 238.312 187.094 238 189.656 238C193.677 238 197.438 238.615 200.938 239.844C204.438 241.052 207.354 242.75 209.688 244.938L207.875 246.281C205.75 244.365 203.094 242.885 199.906 241.844C196.719 240.781 193.302 240.25 189.656 240.25C186.802 240.25 184.219 240.667 181.906 241.5C179.615 242.312 177.719 243.438 176.219 244.875C174.74 246.312 173.594 247.979 172.781 249.875C171.99 251.771 171.594 253.812 171.594 256C171.594 258.938 172.188 261.583 173.375 263.938C174.562 266.292 176.375 268.188 178.812 269.625C181.25 271.042 184.135 271.75 187.469 271.75ZM262.694 257.938L260.85 259.156C259.725 257.49 258.256 256.177 256.444 255.219C254.652 254.24 252.704 253.75 250.6 253.75C247.183 253.75 244.267 254.958 241.85 257.375C239.433 259.792 238.225 262.708 238.225 266.125C238.225 269.542 239.433 272.458 241.85 274.875C244.267 277.292 247.183 278.5 250.6 278.5C252.704 278.5 254.652 278.01 256.444 277.031C258.256 276.052 259.725 274.729 260.85 273.062L262.663 274.375C261.329 276.333 259.6 277.885 257.475 279.031C255.35 280.177 253.058 280.75 250.6 280.75C248.621 280.75 246.725 280.365 244.913 279.594C243.121 278.823 241.569 277.781 240.256 276.469C238.944 275.156 237.902 273.604 237.131 271.812C236.36 270 235.975 268.104 235.975 266.125C235.975 264.146 236.36 262.26 237.131 260.469C237.902 258.656 238.944 257.094 240.256 255.781C241.569 254.469 243.121 253.427 244.913 252.656C246.725 251.885 248.621 251.5 250.6 251.5C253.079 251.5 255.381 252.083 257.506 253.25C259.631 254.396 261.36 255.958 262.694 257.938ZM266.413 255.375L264.538 256.594C262.996 254.344 260.996 252.562 258.538 251.25C256.1 249.917 253.454 249.25 250.6 249.25C247.538 249.25 244.715 250.01 242.131 251.531C239.548 253.031 237.496 255.073 235.975 257.656C234.475 260.24 233.725 263.062 233.725 266.125C233.725 269.188 234.475 272.01 235.975 274.594C237.496 277.177 239.548 279.229 242.131 280.75C244.715 282.25 247.538 283 250.6 283C253.454 283 256.11 282.333 258.569 281C261.027 279.667 263.027 277.865 264.569 275.594L266.413 276.875C264.663 279.458 262.392 281.5 259.6 283C256.829 284.5 253.829 285.25 250.6 285.25C247.142 285.25 243.944 284.396 241.006 282.688C238.069 280.979 235.746 278.656 234.038 275.719C232.329 272.781 231.475 269.583 231.475 266.125C231.475 262.667 232.329 259.469 234.038 256.531C235.746 253.594 238.069 251.271 241.006 249.562C243.944 247.854 247.142 247 250.6 247C253.829 247 256.829 247.75 259.6 249.25C262.392 250.75 264.663 252.792 266.413 255.375ZM270.163 252.875L268.288 254.094C266.329 251.219 263.788 248.948 260.663 247.281C257.558 245.594 254.204 244.75 250.6 244.75C247.704 244.75 244.933 245.312 242.288 246.438C239.642 247.562 237.36 249.083 235.444 251C233.548 252.896 232.038 255.167 230.913 257.812C229.788 260.458 229.225 263.229 229.225 266.125C229.225 269.021 229.788 271.792 230.913 274.438C232.038 277.083 233.548 279.365 235.444 281.281C237.36 283.177 239.642 284.688 242.288 285.812C244.933 286.938 247.704 287.5 250.6 287.5C254.225 287.5 257.59 286.656 260.694 284.969C263.798 283.281 266.329 281 268.288 278.125L270.1 279.469C267.933 282.635 265.131 285.146 261.694 287C258.277 288.833 254.579 289.75 250.6 289.75C246.329 289.75 242.381 288.698 238.756 286.594C235.131 284.469 232.256 281.594 230.131 277.969C228.027 274.344 226.975 270.396 226.975 266.125C226.975 261.854 228.027 257.906 230.131 254.281C232.256 250.656 235.131 247.792 238.756 245.688C242.381 243.562 246.329 242.5 250.6 242.5C254.6 242.5 258.319 243.438 261.756 245.312C265.194 247.167 267.996 249.688 270.163 252.875ZM273.85 250.312L271.975 251.531C269.6 248.052 266.527 245.302 262.756 243.281C259.006 241.26 254.954 240.25 250.6 240.25C247.1 240.25 243.746 240.938 240.538 242.312C237.35 243.667 234.6 245.5 232.288 247.812C229.975 250.125 228.131 252.885 226.756 256.094C225.402 259.281 224.725 262.625 224.725 266.125C224.725 269.625 225.402 272.979 226.756 276.188C228.131 279.375 229.975 282.125 232.288 284.438C234.6 286.75 237.35 288.594 240.538 289.969C243.746 291.323 247.1 292 250.6 292C254.954 292 259.017 290.979 262.788 288.938C266.558 286.896 269.631 284.135 272.006 280.656L273.819 282.031C271.235 285.781 267.902 288.76 263.819 290.969C259.735 293.156 255.329 294.25 250.6 294.25C246.788 294.25 243.142 293.5 239.663 292C236.204 290.521 233.215 288.531 230.694 286.031C228.194 283.51 226.194 280.521 224.694 277.062C223.215 273.583 222.475 269.938 222.475 266.125C222.475 262.312 223.215 258.677 224.694 255.219C226.194 251.74 228.194 248.75 230.694 246.25C233.215 243.729 236.204 241.729 239.663 240.25C243.142 238.75 246.788 238 250.6 238C255.35 238 259.767 239.104 263.85 241.312C267.933 243.521 271.267 246.521 273.85 250.312ZM306.012 257.375C303.596 259.792 302.387 262.708 302.387 266.125C302.387 269.542 303.596 272.458 306.012 274.875C308.429 277.292 311.346 278.5 314.762 278.5C318.179 278.5 321.096 277.292 323.512 274.875C325.929 272.458 327.137 269.542 327.137 266.125C327.137 262.708 325.929 259.792 323.512 257.375C321.096 254.958 318.179 253.75 314.762 253.75C311.346 253.75 308.429 254.958 306.012 257.375ZM301.294 271.812C300.523 270 300.137 268.104 300.137 266.125C300.137 264.146 300.523 262.26 301.294 260.469C302.065 258.656 303.106 257.094 304.419 255.781C305.731 254.469 307.283 253.427 309.075 252.656C310.887 251.885 312.783 251.5 314.762 251.5C316.742 251.5 318.627 251.885 320.419 252.656C322.231 253.427 323.794 254.469 325.106 255.781C326.419 257.094 327.46 258.656 328.231 260.469C329.002 262.26 329.387 264.146 329.387 266.125C329.387 268.104 329.002 270 328.231 271.812C327.46 273.604 326.419 275.156 325.106 276.469C323.794 277.781 322.231 278.823 320.419 279.594C318.627 280.365 316.742 280.75 314.762 280.75C312.783 280.75 310.887 280.365 309.075 279.594C307.283 278.823 305.731 277.781 304.419 276.469C303.106 275.156 302.065 273.604 301.294 271.812ZM300.137 257.656C298.637 260.24 297.887 263.062 297.887 266.125C297.887 269.188 298.637 272.01 300.137 274.594C301.658 277.177 303.71 279.229 306.294 280.75C308.877 282.25 311.7 283 314.762 283C317.825 283 320.648 282.25 323.231 280.75C325.815 279.229 327.856 277.177 329.356 274.594C330.877 272.01 331.637 269.188 331.637 266.125C331.637 263.062 330.877 260.24 329.356 257.656C327.856 255.073 325.815 253.031 323.231 251.531C320.648 250.01 317.825 249.25 314.762 249.25C311.7 249.25 308.877 250.01 306.294 251.531C303.71 253.031 301.658 255.073 300.137 257.656ZM298.2 275.719C296.492 272.781 295.637 269.583 295.637 266.125C295.637 262.667 296.492 259.469 298.2 256.531C299.908 253.594 302.231 251.271 305.169 249.562C308.106 247.854 311.304 247 314.762 247C318.221 247 321.419 247.854 324.356 249.562C327.294 251.271 329.617 253.594 331.325 256.531C333.033 259.469 333.887 262.667 333.887 266.125C333.887 269.583 333.033 272.781 331.325 275.719C329.617 278.656 327.294 280.979 324.356 282.688C321.419 284.396 318.221 285.25 314.762 285.25C311.304 285.25 308.106 284.396 305.169 282.688C302.231 280.979 299.908 278.656 298.2 275.719ZM295.075 257.812C293.95 260.458 293.387 263.229 293.387 266.125C293.387 269.021 293.95 271.792 295.075 274.438C296.2 277.083 297.71 279.365 299.606 281.281C301.523 283.177 303.804 284.688 306.45 285.812C309.096 286.938 311.867 287.5 314.762 287.5C317.658 287.5 320.429 286.938 323.075 285.812C325.721 284.688 327.992 283.177 329.887 281.281C331.804 279.365 333.325 277.083 334.45 274.438C335.575 271.792 336.137 269.021 336.137 266.125C336.137 263.229 335.575 260.458 334.45 257.812C333.325 255.167 331.804 252.896 329.887 251C327.992 249.083 325.721 247.562 323.075 246.438C320.429 245.312 317.658 244.75 314.762 244.75C311.867 244.75 309.096 245.312 306.45 246.438C303.804 247.562 301.523 249.083 299.606 251C297.71 252.896 296.2 255.167 295.075 257.812ZM294.294 277.969C292.19 274.344 291.137 270.396 291.137 266.125C291.137 261.854 292.19 257.906 294.294 254.281C296.419 250.656 299.294 247.792 302.919 245.688C306.544 243.562 310.492 242.5 314.762 242.5C319.033 242.5 322.981 243.562 326.606 245.688C330.231 247.792 333.096 250.656 335.2 254.281C337.325 257.906 338.387 261.854 338.387 266.125C338.387 270.396 337.325 274.344 335.2 277.969C333.096 281.594 330.231 284.469 326.606 286.594C322.981 288.698 319.033 289.75 314.762 289.75C310.492 289.75 306.544 288.698 302.919 286.594C299.294 284.469 296.419 281.594 294.294 277.969ZM290.919 256.094C289.565 259.281 288.887 262.625 288.887 266.125C288.887 269.625 289.565 272.979 290.919 276.188C292.294 279.375 294.137 282.125 296.45 284.438C298.762 286.75 301.512 288.594 304.7 289.969C307.908 291.323 311.262 292 314.762 292C318.262 292 321.606 291.323 324.794 289.969C328.002 288.594 330.762 286.75 333.075 284.438C335.387 282.125 337.221 279.375 338.575 276.188C339.95 272.979 340.637 269.625 340.637 266.125C340.637 262.625 339.95 259.281 338.575 256.094C337.221 252.885 335.387 250.125 333.075 247.812C330.762 245.5 328.002 243.667 324.794 242.312C321.606 240.938 318.262 240.25 314.762 240.25C311.262 240.25 307.908 240.938 304.7 242.312C301.512 243.667 298.762 245.5 296.45 247.812C294.137 250.125 292.294 252.885 290.919 256.094ZM288.856 277.062C287.377 273.583 286.637 269.938 286.637 266.125C286.637 262.312 287.377 258.677 288.856 255.219C290.356 251.74 292.356 248.75 294.856 246.25C297.377 243.729 300.367 241.729 303.825 240.25C307.304 238.75 310.95 238 314.762 238C318.575 238 322.21 238.75 325.669 240.25C329.148 241.729 332.137 243.729 334.637 246.25C337.158 248.75 339.158 251.74 340.637 255.219C342.137 258.677 342.887 262.312 342.887 266.125C342.887 269.938 342.137 273.583 340.637 277.062C339.158 280.521 337.158 283.51 334.637 286.031C332.137 288.531 329.148 290.521 325.669 292C322.21 293.5 318.575 294.25 314.762 294.25C310.95 294.25 307.304 293.5 303.825 292C300.367 290.521 297.377 288.531 294.856 286.031C292.356 283.51 290.356 280.521 288.856 277.062Z" fill="white"/>
<path d="M133.815 368.288C135.339 368.288 136.581 367.754 137.541 366.686C138.513 365.618 138.999 364.244 138.999 362.564V358.928H135.363V362.564C135.363 363.86 134.871 364.508 133.887 364.508C133.503 364.508 133.179 364.334 132.915 363.986C132.651 363.626 132.519 363.152 132.519 362.564V346.976C132.519 346.376 132.639 345.902 132.879 345.554C133.131 345.206 133.467 345.032 133.887 345.032C134.871 345.032 135.363 345.68 135.363 346.976V350.612H138.999V346.976C138.999 345.26 138.519 343.88 137.559 342.836C136.611 341.78 135.363 341.252 133.815 341.252C132.243 341.252 130.983 341.774 130.035 342.818C129.099 343.85 128.631 345.236 128.631 346.976V362.564C128.631 364.34 129.111 365.738 130.071 366.758C131.031 367.778 132.279 368.288 133.815 368.288ZM151.66 368.288C153.196 368.288 154.432 367.778 155.368 366.758C156.304 365.726 156.796 364.328 156.844 362.564V346.976C156.796 345.224 156.304 343.832 155.368 342.8C154.432 341.768 153.196 341.252 151.66 341.252C150.136 341.252 148.906 341.768 147.97 342.8C147.034 343.82 146.536 345.212 146.476 346.976V362.564C146.548 364.34 147.046 365.738 147.97 366.758C148.894 367.778 150.124 368.288 151.66 368.288ZM151.66 364.508C151.252 364.508 150.934 364.334 150.706 363.986C150.478 363.638 150.364 363.164 150.364 362.564V346.976C150.364 345.68 150.796 345.032 151.66 345.032C152.524 345.032 152.956 345.68 152.956 346.976V362.564C152.956 363.164 152.842 363.638 152.614 363.986C152.386 364.334 152.068 364.508 151.66 364.508ZM164.855 368H168.455V350.252H168.671L168.815 351.368L171.299 368H172.955L175.439 351.368L175.583 350.252H175.799V368H179.399V341.54H174.647L172.343 353.636L172.163 355.04H172.091L171.911 353.636L169.607 341.54H164.855V368ZM187.692 368H191.292V350.252H191.508L191.652 351.368L194.136 368H195.792L198.276 351.368L198.42 350.252H198.636V368H202.236V341.54H197.484L195.18 353.636L195 355.04H194.928L194.748 353.636L192.444 341.54H187.692V368ZM215.678 368.288C217.214 368.288 218.45 367.778 219.386 366.758C220.322 365.726 220.814 364.328 220.862 362.564V341.54H216.974V362.564C216.974 363.164 216.86 363.638 216.632 363.986C216.404 364.334 216.086 364.508 215.678 364.508C215.27 364.508 214.952 364.334 214.724 363.986C214.496 363.638 214.382 363.164 214.382 362.564V341.54H210.494V362.564C210.566 364.34 211.064 365.738 211.988 366.758C212.912 367.778 214.142 368.288 215.678 368.288ZM229.113 368H232.677V352.988H232.893L233.217 354.212L236.997 368H240.453V341.54H236.889V356.552H236.673L236.349 355.328L232.569 341.54H229.113V368ZM248.717 368H252.605V341.54H248.717V368ZM263.206 368H267.094V345.536H270.766V341.54H259.534V345.536H263.206V368ZM280.464 368H284.352V356.732L288.312 341.54H284.496L282.552 350L282.444 350.252H282.372L282.264 350L280.32 341.54H276.504L280.464 356.732V368Z" fill="black"/>
<line x1="70" y1="355.5" x2="107.003" y2="355.5" stroke="white"/>
<line x1="308" y1="355.5" x2="345.003" y2="355.5" stroke="white"/>
<defs>
<linearGradient id="paint0_linear" x1="0" y1="0" x2="3.76445e-06" y2="729.5" gradientUnits="userSpaceOnUse">
<stop offset="0.125" stop-color="#523484"/>
<stop offset="1"/>
</linearGradient>
</defs>
</svg>
