<svg width="284" height="194" viewBox="0 0 284 194" fill="none" xmlns="http://www.w3.org/2000/svg">
<g clip-path="url(#clip0)">
<path opacity="0.1" d="M166.556 32.785C148.586 32.2483 131.468 27.2644 115.125 21.8106C98.7824 16.3567 82.595 10.3136 65.0553 7.42448C53.774 5.56598 40.8713 5.30354 31.7835 10.4997C23.0345 15.5098 20.2079 24.1343 18.6891 32.1457C17.5452 38.1721 16.8733 44.5134 20.008 50.1557C22.1821 54.0731 26.0443 57.3655 28.7126 61.1302C38.0058 74.185 31.4392 90.2841 21.3685 103.031C16.6483 109.012 11.1646 114.721 7.52172 121.082C3.87885 127.442 2.19068 134.74 5.3782 141.234C8.54073 147.676 16.0736 152.505 24.2312 155.904C40.8046 162.811 60.3268 164.786 79.3769 165.905C121.534 168.384 163.913 167.311 206.181 166.237C221.824 165.839 237.534 165.435 252.922 163.357C261.468 162.203 270.289 160.373 276.495 155.95C284.369 150.336 286.321 140.829 281.046 133.791C272.191 121.984 247.727 119.052 241.529 106.378C238.125 99.4049 241.624 91.6368 246.572 85.1667C257.189 71.2911 274.984 59.1166 275.923 43.2561C276.567 32.3604 268.01 21.4527 254.782 16.2971C240.918 10.8743 221.688 11.5614 211.464 20.5056C200.93 29.7217 182.421 33.2574 166.556 32.785Z" fill="#9E63FF"/>
<path d="M120.906 164.736L25.8694 164.338L16.4263 145.307L49.8175 143.224L43.9977 122.358L110.042 115.003L46.7993 96.1126L52.3858 94.9722L154.078 109.227L148.478 141.79L140.473 159.686L120.906 164.736Z" fill="#9E63FF"/>
<path d="M27.3271 156.367C27.3271 156.367 33.158 155.566 36.6565 159.106C36.6565 159.106 34.0909 160.843 28.5711 158.438L27.3271 156.367Z" fill="#9E63FF"/>
<path d="M26.7163 156.288C26.7163 156.288 22.9957 160.222 24.8282 164.603C24.8282 164.603 27.8602 163.56 28.1906 158.249L26.7163 156.288Z" fill="#9E63FF"/>
<path d="M23.3733 149.821C23.3733 149.821 25.7056 146.144 35.0349 151.29C35.0349 151.29 33.791 153.762 29.6706 153.562C25.5501 153.361 24.4617 151.758 23.3733 149.821Z" fill="#9E63FF"/>
<path d="M22.7707 149.556C22.7707 149.556 17.9312 149.079 17.4619 158.598C17.4619 158.598 20.53 159.144 22.7097 156.133C24.8893 153.123 23.9952 151.433 22.7707 149.556Z" fill="#9E63FF"/>
<path d="M19.9525 141.962C19.9525 141.962 22.6736 135.482 32.5471 140.092C32.5471 140.092 30.2925 146.037 20.9632 144.166L19.9525 141.962Z" fill="#9E63FF"/>
<path d="M16.9205 132.276C16.9205 132.276 22.0517 125.729 31.1477 131.799C31.1477 131.799 27.9602 137.944 17.698 134.604L16.9205 132.276Z" fill="#9E63FF"/>
<path d="M15.832 123.057C15.832 123.057 21.8183 117.043 30.8256 123.057C30.8256 123.057 25.1502 128.335 15.832 124.594V123.057Z" fill="#9E63FF"/>
<path d="M14.8992 114.103C14.8992 114.103 20.9632 107.824 29.5928 113.769C29.5928 113.769 22.7513 119.314 14.8992 115.573V114.103Z" fill="#9E63FF"/>
<path d="M15.4434 106.154C15.4434 106.154 21.8295 98.0711 29.9038 103.549C29.9038 103.549 23.0623 110.496 15.4434 107.691V106.154Z" fill="#9E63FF"/>
<path d="M16.9205 96.8688C16.9205 96.8688 23.6843 88.8527 31.5365 94.9984C31.5365 94.9984 23.5288 101.946 16.9205 98.3384V96.8688Z" fill="#9E63FF"/>
<path d="M19.175 88.5688C19.175 88.5688 27.1827 81.0345 34.1686 84.0358C34.1686 84.0358 25.825 92.0376 18.8252 90.568L19.175 88.5688Z" fill="#9E63FF"/>
<path d="M21.9739 80.7005C21.9739 80.7005 31.2143 71.4724 36.5898 74.5548C36.5898 74.5548 29.7816 81.7121 21.3186 82.4278L21.9739 80.7005Z" fill="#9E63FF"/>
<path d="M26.0137 71.575C26.0137 71.575 34.1019 64.0408 40.0105 65.9112C40.0105 65.9112 33.0913 73.7269 24.9281 73.9273L26.0137 71.575Z" fill="#9E63FF"/>
<path d="M29.6706 63.0388C29.6706 63.0388 38.6112 55.8243 42.4984 57.0935C42.4984 57.0935 36.0456 65.1096 29.2819 64.642L29.6706 63.0388Z" fill="#9E63FF"/>
<path d="M33.2468 55.1562C33.2468 55.1562 40.9435 46.5365 45.1445 47.2045C45.1445 47.2045 40.477 54.889 33.2468 56.0318V55.1562Z" fill="#9E63FF"/>
<path d="M37.1285 44.5278C37.1285 44.5278 43.9311 37.9216 47.6073 37.9359C47.6073 37.9359 42.2374 46.7632 36.848 46.6821L37.1285 44.5278Z" fill="#9E63FF"/>
<path d="M39.4275 37.4515L45.9997 23.6904C45.9997 23.6904 46.3274 36.1298 38.5918 40.0042L39.4275 37.4515Z" fill="#9E63FF"/>
<path d="M42.0958 22.2758C42.0958 22.2758 43.1842 10.7836 42.4845 9.84839C42.4845 9.84839 47.1825 19.4033 42.0514 27.3527L42.0958 22.2758Z" fill="#9E63FF"/>
<path d="M19.697 141.809C19.697 141.809 12.8833 138.18 8.47131 147.058C8.47131 147.058 14.5354 150.517 20.4995 144.073L19.697 141.809Z" fill="#9E63FF"/>
<path d="M16.7012 131.906C16.7012 131.906 8.34373 128.63 4.28992 137.899C4.28992 137.899 10.7455 141.716 17.462 134.249L16.7012 131.906Z" fill="#9E63FF"/>
<path d="M15.4434 123.608C15.4434 123.608 9.45706 117.594 0.449829 123.608C0.449829 123.608 6.12516 128.886 15.4434 125.145V123.608Z" fill="#9E63FF"/>
<path d="M14.6937 114.103C14.6937 114.103 8.62962 107.824 0 113.769C0 113.769 6.8415 119.314 14.6937 115.573V114.103Z" fill="#9E63FF"/>
<path d="M15.4433 106.383C15.4433 106.383 11.1896 97.3293 1.9436 101.223C1.9436 101.223 6.94145 109.251 15.0657 107.886L15.4433 106.383Z" fill="#9E63FF"/>
<path d="M17.4563 96.8234C17.4563 96.8234 13.2276 87.612 3.85107 91.8825C3.85107 91.8825 9.59305 100.326 17.0398 98.2454L17.4563 96.8234Z" fill="#9E63FF"/>
<path d="M20.0775 88.6141C20.0775 88.6141 18.4115 78.5152 10.6371 77.611C10.6371 77.611 12.2864 88.261 19.0307 90.4344L20.0775 88.6141Z" fill="#9E63FF"/>
<path d="M22.171 80.7196C22.171 80.7196 21.5213 68.5522 15.0935 68.1276C15.0935 68.1276 15.3101 77.3628 21.4463 82.4421L22.171 80.7196Z" fill="#9E63FF"/>
<path d="M26.6803 71.2339C26.6803 71.2339 24.7644 61.1159 18.6282 59.8801C18.6282 59.8801 19.389 69.6784 26.0722 73.7175L26.6803 71.2339Z" fill="#9E63FF"/>
<path d="M30.398 63.1223C30.398 63.1223 30.3342 52.582 26.5858 51.0337C26.5858 51.0337 24.2618 60.5767 29.3124 64.4679L30.398 63.1223Z" fill="#9E63FF"/>
<path d="M33.5327 55.037C33.5327 55.037 33.008 44.1842 29.1263 42.6549C29.1263 42.6549 27.7991 51.2436 32.9524 55.7479L33.5327 55.037Z" fill="#9E63FF"/>
<path d="M37.6699 45.3937C37.6699 45.3937 37.6477 36.5664 34.8767 34.4956C34.8767 34.4956 32.1223 44.1651 36.2233 47.1687L37.6699 45.3937Z" fill="#9E63FF"/>
<path d="M39.1027 37.0174L36.4066 22.3259C36.4066 22.3259 32.7443 34.3644 39.2304 39.6704L39.1027 37.0174Z" fill="#9E63FF"/>
<path d="M39.6274 22.4142C39.6274 22.4142 32.7082 12.5371 32.8498 11.4397C32.8498 11.4397 33.5856 21.7915 42.2902 26.9471L39.6274 22.4142Z" fill="#9E63FF"/>
<path d="M40.4382 19.4964C40.4382 19.4964 33.9077 5.46814 30.9534 4.33252C30.9534 4.33252 40.2827 8.40739 40.9824 19.0956L40.4382 19.4964Z" fill="#9E63FF"/>
<path d="M36.8147 46.7656L36.3677 46.6487C41.8792 31.2057 43.2536 21.3597 40.241 18.8904L40.5603 18.5994C43.7562 21.2046 42.4595 30.9433 36.8147 46.7656Z" fill="#444053"/>
<path d="M21.6379 82.9241L20.9771 82.7213C21.5629 81.3065 22.1932 79.8703 22.854 78.4555C28.6071 66.1355 33.505 54.6743 36.6453 45.8757L37.2201 45.6371C34.0742 54.4525 29.2624 66.3526 23.5037 78.6893C22.8457 80.0779 22.2182 81.5069 21.6379 82.9241Z" fill="#444053"/>
<path d="M35.543 167.924C35.4542 167.84 26.5219 159.197 20.294 144.441C16.6449 135.802 14.614 126.72 14.2772 117.534C13.8496 106.052 16.6539 93.2305 21.4574 81.5833L21.9794 82.1081C11.1952 108.249 15.4794 130.649 21.1631 144.138C27.3243 158.76 36.1566 167.308 36.2427 167.394L35.543 167.924Z" fill="#444053"/>
<path d="M175.127 149.573C175.127 149.573 168.833 156.174 173.831 166.153L123.575 184.882L118.752 185.75L116.531 177.4L118.016 166.862V161.103L175.127 149.573Z" fill="#D5D6DB"/>
<path d="M16.4263 145.307L85.9852 134.411L178.154 147.027L120.906 164.736L16.4263 145.307Z" fill="#9E63FF"/>
<path d="M16.4263 145.307L85.9852 134.411L178.154 147.027L120.906 164.736L16.4263 145.307Z" fill="#9E63FF"/>
<path d="M16.4262 145.304C16.4262 145.304 9.92068 155.895 17.4175 165.676L120.568 184.882C120.568 184.882 114.165 176.446 120.898 164.736L16.4262 145.304Z" fill="#9E63FF"/>
<path opacity="0.1" d="M16.4262 145.304C16.4262 145.304 9.92068 155.895 17.4175 165.676L120.568 184.882C120.568 184.882 114.165 176.446 120.898 164.736L16.4262 145.304Z" fill="black"/>
<path opacity="0.1" d="M19.4999 148.976C19.4999 148.976 15.7821 156.725 19.4999 161.74Z" fill="black"/>
<path d="M120.568 184.882L178.154 163.768C178.154 163.768 181.375 164.364 179.292 166.392C177.21 168.42 121.678 186.91 121.678 186.91L17.4175 165.676L120.568 184.882Z" fill="#9E63FF"/>
<path opacity="0.1" d="M120.568 184.882L178.154 163.768C178.154 163.768 181.375 164.364 179.292 166.392C177.21 168.42 121.678 186.91 121.678 186.91L17.4175 165.676L120.568 184.882Z" fill="black"/>
<path opacity="0.1" d="M115.847 166.869C115.847 166.869 110.294 172.595 115.847 181.184Z" fill="black"/>
<path opacity="0.1" d="M142.732 166.772L117.824 173.913L117.912 174.139L142.82 166.999L142.732 166.772Z" fill="black"/>
<path opacity="0.1" d="M147.721 166.062L117.816 175.833L117.915 176.056L147.82 166.285L147.721 166.062Z" fill="black"/>
<path opacity="0.1" d="M152.303 166.028L117.983 178.098L118.088 178.319L152.408 166.248L152.303 166.028Z" fill="black"/>
<path opacity="0.1" d="M157.286 164.994L118.383 180.094L118.498 180.311L157.4 165.211L157.286 164.994Z" fill="black"/>
<path opacity="0.1" d="M161.471 164.999L118.691 181.066L118.803 181.285L161.583 165.217L161.471 164.999Z" fill="black"/>
<path opacity="0.1" d="M170.627 163.663L119.336 182.698L119.447 182.917L170.737 163.882L170.627 163.663Z" fill="black"/>
<path opacity="0.3" d="M42.2679 146.471L91.1358 137.644L120.906 142.535L80.8625 153.628L42.2679 146.471Z" fill="white"/>
<path d="M178.154 147.027C178.154 147.027 180.681 147.902 179.198 149.255C177.715 150.608 120.898 164.736 120.898 164.736L178.154 147.027Z" fill="#9E63FF"/>
<path d="M202.696 126.626C202.696 126.626 196.404 133.225 201.402 143.207L151.146 161.936L146.323 162.809L144.102 154.459L145.609 143.923V138.157L202.696 126.626Z" fill="#D5D6DB"/>
<path d="M43.9978 122.358L113.554 111.465L205.725 124.081L148.478 141.79L43.9978 122.358Z" fill="#3A3768"/>
<path d="M43.9866 122.358C43.9866 122.358 37.4783 132.949 44.9751 142.73L148.125 161.935C148.125 161.935 141.725 153.492 148.467 141.788L43.9866 122.358Z" fill="#3A3768"/>
<path opacity="0.1" d="M43.9866 122.358C43.9866 122.358 37.4783 132.949 44.9751 142.73L148.125 161.935C148.125 161.935 141.725 153.492 148.467 141.788L115.847 135.721L43.9866 122.358Z" fill="black"/>
<path opacity="0.1" d="M47.0686 126.03C47.0686 126.03 43.3536 133.776 47.0686 138.794Z" fill="black"/>
<path d="M148.136 161.935L205.725 140.822C205.725 140.822 208.943 141.418 206.861 143.446C204.779 145.474 149.247 163.963 149.247 163.963L44.9862 142.73L148.136 161.935Z" fill="#3A3768"/>
<path opacity="0.1" d="M148.136 161.935L205.725 140.822C205.725 140.822 208.943 141.418 206.861 143.446C204.779 145.474 149.247 163.963 149.247 163.963L44.9862 142.73L148.136 161.935Z" fill="black"/>
<path opacity="0.1" d="M143.416 143.923C143.416 143.923 137.863 149.649 143.416 158.238Z" fill="black"/>
<path opacity="0.1" d="M170.303 143.829L145.395 150.969L145.482 151.195L170.391 144.055L170.303 143.829Z" fill="black"/>
<path opacity="0.1" d="M175.296 143.117L145.39 152.888L145.489 153.111L175.394 143.34L175.296 143.117Z" fill="black"/>
<path opacity="0.1" d="M179.873 143.079L145.553 155.15L145.658 155.371L179.978 143.3L179.873 143.079Z" fill="black"/>
<path opacity="0.1" d="M184.859 142.046L145.957 157.146L146.071 157.363L184.973 142.264L184.859 142.046Z" fill="black"/>
<path opacity="0.1" d="M189.041 142.048L146.261 158.115L146.372 158.334L189.152 142.267L189.041 142.048Z" fill="black"/>
<path opacity="0.1" d="M198.199 140.712L146.908 159.747L147.018 159.966L198.309 140.931L198.199 140.712Z" fill="black"/>
<path opacity="0.45" d="M69.8394 123.525L118.707 114.698L148.478 119.588L108.434 130.682L69.8394 123.525Z" fill="white"/>
<path d="M205.725 124.081C205.725 124.081 208.249 124.956 206.769 126.307C205.289 127.657 148.478 141.788 148.478 141.788L205.725 124.081Z" fill="#3A3768"/>
<path d="M205.306 100.376C205.306 100.376 199.012 112.226 204.009 122.205L153.753 135.685L148.941 136.561L146.72 128.21L148.206 117.673V111.906L205.306 100.376Z" fill="#D5D6DB"/>
<path d="M46.6161 96.1102L116.175 85.2145L208.346 97.8304L151.096 115.54L46.6161 96.1102Z" fill="#9E63FF"/>
<path d="M46.616 96.1078C46.616 96.1078 40.0993 106.698 47.5961 116.48L150.746 135.685C150.746 135.685 144.343 127.242 151.085 115.54L46.616 96.1078Z" fill="#9E63FF"/>
<path opacity="0.1" d="M46.616 96.1078C46.616 96.1078 40.0993 106.698 47.5961 116.48L150.746 135.685C150.746 135.685 144.343 127.242 151.085 115.54L46.616 96.1078Z" fill="black"/>
<path opacity="0.1" d="M49.6897 99.7794C49.6897 99.7794 45.9719 107.528 49.6897 112.543Z" fill="black"/>
<path d="M150.757 135.685L208.344 119.82C208.344 119.82 211.565 120.416 209.482 122.444C207.4 124.472 151.868 137.713 151.868 137.713L47.6073 116.48L150.757 135.685Z" fill="#9E63FF"/>
<path opacity="0.1" d="M150.757 135.685L208.344 119.82C208.344 119.82 211.565 120.416 209.482 122.444C207.4 124.472 151.868 137.713 151.868 137.713L47.6073 116.48L150.757 135.685Z" fill="black"/>
<path opacity="0.1" d="M146.037 117.673C146.037 117.673 140.484 123.398 146.037 131.987Z" fill="black"/>
<path opacity="0.1" d="M172.925 117.578L148.017 124.718L148.104 124.945L173.013 117.804L172.925 117.578Z" fill="black"/>
<path opacity="0.1" d="M177.916 116.867L148.01 126.639L148.109 126.862L178.014 117.09L177.916 116.867Z" fill="black"/>
<path opacity="0.1" d="M182.491 116.831L148.17 128.901L148.276 129.122L182.596 117.052L182.491 116.831Z" fill="black"/>
<path opacity="0.1" d="M187.48 115.796L148.578 130.895L148.693 131.113L187.595 116.013L187.48 115.796Z" fill="black"/>
<path opacity="0.1" d="M191.664 115.8L148.884 131.867L148.995 132.085L191.775 116.018L191.664 115.8Z" fill="black"/>
<path opacity="0.1" d="M200.821 114.465L149.53 133.5L149.64 133.719L200.931 114.684L200.821 114.465Z" fill="black"/>
<path opacity="0.3" d="M72.4578 97.2745L121.326 88.4471L151.096 93.338L111.052 104.432L72.4578 97.2745Z" fill="white"/>
<path d="M208.344 97.8302C208.344 97.8302 210.87 98.7058 209.388 100.058C207.905 101.411 151.096 115.54 151.096 115.54L208.344 97.8302Z" fill="#9E63FF"/>
<path d="M86.1906 25.4082C86.1906 25.4082 75.6396 24.8619 76.8724 31.2223C76.8724 31.2223 76.6253 32.346 77.8109 32.8565C77.8109 32.8565 77.8303 32.3794 78.8938 32.544C79.2732 32.6 79.6593 32.6161 80.0433 32.5917C80.5609 32.5613 81.053 32.3871 81.4454 32.0955V32.0955C81.4454 32.0955 84.4136 31.041 85.5687 26.8707C85.5687 26.8707 86.4239 25.9617 86.4017 25.7279L84.6135 26.3816C84.6135 26.3816 85.2216 27.4862 84.744 28.4047C84.744 28.4047 84.6857 26.4222 84.3414 26.4675C84.272 26.4675 83.4168 26.8516 83.4168 26.8516C83.4168 26.8516 84.4636 28.7769 83.6723 30.175C83.6723 30.175 83.9721 27.8035 83.0892 26.99L81.8342 27.6198C81.8342 27.6198 83.0586 29.6072 82.2284 31.2295C82.2284 31.2295 82.4422 28.7411 81.5704 27.7725L80.432 28.5359C80.432 28.5359 81.5843 30.4947 80.8818 31.8402C80.8818 31.8402 80.7902 28.9439 80.1877 28.7244C80.1877 28.7244 79.1909 29.4783 79.0409 29.7885C79.0409 29.7885 79.8295 31.2199 79.338 31.9619C79.338 31.9619 79.0409 30.0318 78.7827 30.0223C78.7827 30.0223 77.7915 31.301 77.6887 32.1695C77.7367 31.3598 78.0306 30.5752 78.5411 29.8934C77.9699 29.9863 77.4428 30.2211 77.0251 30.5686C77.0251 30.5686 77.1778 29.6644 78.7883 29.5857C78.7883 29.5857 79.6073 28.6147 79.8267 28.5574C79.8267 28.5574 78.2246 28.4405 77.2556 28.8103C77.2556 28.8103 78.1108 27.9586 80.1182 28.3332L81.2289 27.5459C81.2289 27.5459 79.1242 27.3073 78.2302 27.5721C78.2302 27.5721 79.2603 26.8182 81.5315 27.3669L82.756 26.7395C82.756 26.7395 80.9595 26.4079 79.8906 26.5271C79.8906 26.5271 81.0179 26.0047 83.1142 26.5701L83.986 26.2337C83.986 26.2337 82.6727 26.0118 82.2868 25.976C81.9008 25.9403 81.8814 25.8496 81.8814 25.8496C82.7149 25.732 83.5701 25.8145 84.3525 26.0882C84.3525 26.0882 86.2267 25.5084 86.1906 25.4082Z" fill="#9E63FF"/>
<path opacity="0.1" d="M234.627 51.5514C234.627 51.5514 224.076 51.0051 225.309 57.3655C225.309 57.3655 225.061 58.4892 226.247 58.9997C226.247 58.9997 226.266 58.5226 227.33 58.6872C227.71 58.7419 228.095 58.7579 228.479 58.7349C228.992 58.7024 229.479 58.5284 229.868 58.2387V58.2387C229.868 58.2387 232.839 57.1842 233.991 53.0139C233.991 53.0139 234.846 52.1049 234.824 51.8711L233.041 52.5248C233.041 52.5248 233.649 53.6294 233.172 54.5479C233.172 54.5479 233.114 52.5654 232.772 52.6107C232.703 52.6107 231.845 52.9948 231.845 52.9948C231.845 52.9948 232.891 54.9201 232.103 56.3182C232.103 56.3182 232.403 53.9467 231.517 53.1332L230.262 53.763C230.262 53.763 231.486 55.7503 230.656 57.3727C230.656 57.3727 230.87 54.8843 229.998 53.9157L228.863 54.6791C228.863 54.6791 230.012 56.6378 229.31 57.9834C229.31 57.9834 229.218 55.0871 228.615 54.8676C228.615 54.8676 227.621 55.6215 227.469 55.9317C227.469 55.9317 228.257 57.3631 227.769 58.1051C227.769 58.1051 227.469 56.175 227.213 56.1655C227.213 56.1655 226.222 57.4442 226.119 58.3126C226.167 57.5027 226.462 56.7178 226.975 56.0366C226.403 56.1297 225.875 56.3644 225.456 56.7118C225.456 56.7118 225.611 55.8076 227.219 55.7289C227.219 55.7289 228.038 54.7579 228.257 54.6982C228.257 54.6982 226.658 54.5837 225.686 54.9535C225.686 54.9535 226.541 54.1018 228.549 54.4764L229.659 53.689C229.659 53.689 227.552 53.4505 226.661 53.7153C226.661 53.7153 227.688 52.9614 229.962 53.5101L231.184 52.8827C231.184 52.8827 229.387 52.551 228.318 52.6703C228.318 52.6703 229.446 52.1479 231.542 52.7133L232.417 52.3769C232.417 52.3769 231.101 52.155 230.715 52.1192C230.329 52.0834 230.309 51.9928 230.309 51.9928C231.143 51.8736 231.998 51.9562 232.78 52.2314C232.78 52.2314 234.66 51.6516 234.627 51.5514Z" fill="#9E63FF"/>
<path opacity="0.1" d="M103.961 64.7017C103.961 64.7017 99.3627 56.5114 93.5097 60.5481C93.5097 60.5481 92.2464 60.9107 92.3074 62.0487C92.3074 62.0487 92.7933 61.8316 93.1404 62.7096C93.2701 63.0199 93.4415 63.3162 93.6513 63.5923C93.9354 63.9666 94.3535 64.2513 94.8425 64.4034C94.8425 64.4034 97.3608 66.1164 102.162 64.9474C102.162 64.9474 103.503 65.1454 103.722 65.007L102.189 63.9883C102.189 63.9883 101.356 64.9832 100.196 65.0715C100.196 65.0715 102.184 64.0623 101.97 63.8285C101.926 63.7808 101.137 63.3203 101.137 63.3203C101.137 63.3203 99.6904 65.0452 97.8856 65.1335C97.8856 65.1335 100.44 64.203 100.834 63.1414L99.5849 62.5068C99.5849 62.5068 98.1605 64.3963 96.1086 64.5633C96.1086 64.5633 98.7408 63.5112 99.2989 62.3851L97.9717 61.9079C97.9717 61.9079 96.5417 63.7259 94.8314 63.8571C94.8314 63.8571 97.7301 62.3755 97.6579 61.8149C97.6579 61.8149 96.4057 61.4379 96.017 61.4737C96.017 61.4737 94.9563 62.7597 93.9567 62.7597C93.9567 62.7597 95.7698 61.593 95.6588 61.4045C95.6588 61.4045 93.8762 61.2853 92.9377 61.6431C93.7834 61.282 94.7244 61.1174 95.6671 61.166C95.2931 60.7828 94.7971 60.5017 94.2399 60.3572C94.2399 60.3572 95.234 60.0327 96.0975 61.1994C96.0975 61.1994 97.4858 61.3401 97.6496 61.4761C97.6496 61.4761 96.986 60.2212 96.1391 59.6749C96.1391 59.6749 97.4219 59.8967 98.0078 61.5835L99.3544 62.0415C99.3544 62.0415 98.5797 60.3429 97.8662 59.8061C97.8662 59.8061 99.1323 60.2093 99.6848 62.1918L100.918 62.8026C100.918 62.8026 100.382 61.2924 99.7376 60.5504C99.7376 60.5504 100.818 61.1421 101.265 62.9887L102.034 63.4802C102.034 63.4802 101.617 62.3851 101.479 62.0797C101.34 61.7743 101.409 61.7123 101.409 61.7123C101.937 62.2787 102.272 62.9602 102.375 63.6806C102.375 63.6806 103.861 64.7732 103.961 64.7017Z" fill="#9E63FF"/>
<path opacity="0.1" d="M210.521 39.9805C210.521 39.9805 205.925 31.7902 200.069 35.8269C200.069 35.8269 198.809 36.1895 198.867 37.3275C198.867 37.3275 199.356 37.1128 199.7 37.9884C199.83 38.3 200.002 38.5971 200.214 38.8735C200.497 39.2471 200.914 39.531 201.402 39.6822V39.6822C201.402 39.6822 203.923 41.3952 208.721 40.2286C208.721 40.2286 210.062 40.4242 210.284 40.2858L208.76 39.2647C208.76 39.2647 207.927 40.262 206.769 40.3503C206.769 40.3503 208.755 39.3387 208.541 39.1049C208.496 39.0572 207.708 38.5967 207.708 38.5967C207.708 38.5967 206.264 40.3216 204.456 40.4099C204.456 40.4099 207.014 39.4795 207.408 38.4202L206.139 37.7903C206.139 37.7903 204.717 39.6775 202.663 39.8469C202.663 39.8469 205.295 38.7924 205.856 37.6663L204.526 37.1891C204.526 37.1891 203.096 39.0095 201.388 39.1383C201.388 39.1383 204.284 37.6567 204.212 37.0985C204.212 37.0985 202.963 36.7191 202.574 36.7573C202.574 36.7573 201.513 38.0408 200.511 38.0408C200.511 38.0408 202.327 36.8742 202.216 36.6857C202.216 36.6857 200.433 36.5665 199.492 36.9243C200.338 36.563 201.279 36.3985 202.221 36.4472C201.849 36.0637 201.354 35.7826 200.797 35.6384C200.797 35.6384 201.791 35.3139 202.654 36.4806C202.654 36.4806 204.043 36.6237 204.207 36.7597C204.207 36.7597 203.543 35.5024 202.693 34.9561C202.693 34.9561 203.976 35.1803 204.562 36.8766L205.911 37.3347C205.911 37.3347 205.137 35.6336 204.423 35.0968C204.423 35.0968 205.689 35.5 206.239 37.4826L207.475 38.0933C207.475 38.0933 206.936 36.5855 206.292 35.8412C206.292 35.8412 207.375 36.4328 207.819 38.2794L208.588 38.7709C208.588 38.7709 208.174 37.6758 208.033 37.3704C207.891 37.0651 207.963 37.0054 207.963 37.0054C208.49 37.5724 208.823 38.2537 208.927 38.9737C208.927 38.9737 210.434 40.0568 210.521 39.9805Z" fill="#9E63FF"/>
<path opacity="0.1" d="M225.206 80.493C225.206 80.493 220.611 72.3003 214.746 76.337C214.746 76.337 213.486 76.6996 213.544 77.8376C213.544 77.8376 214.033 77.6229 214.377 78.4985C214.506 78.81 214.677 79.1072 214.888 79.3836C215.171 79.7572 215.588 80.0412 216.076 80.1924C216.076 80.1924 218.597 81.9077 223.398 80.7387C223.398 80.7387 224.737 80.9367 224.959 80.796L223.426 79.7773C223.426 79.7773 222.593 80.7745 221.432 80.8628C221.432 80.8628 223.418 79.8512 223.204 79.6174C223.159 79.5697 222.371 79.1093 222.371 79.1093C222.371 79.1093 220.927 80.8342 219.119 80.9248C219.119 80.9248 221.677 79.992 222.071 78.9327L220.819 78.2981C220.819 78.2981 219.397 80.1876 217.342 80.3546C217.342 80.3546 219.975 79.3001 220.536 78.174L219.206 77.6969C219.206 77.6969 217.776 79.5148 216.068 79.646C216.068 79.646 218.967 78.1645 218.895 77.6038C218.895 77.6038 217.642 77.2245 217.254 77.2627C217.254 77.2627 216.193 78.5462 215.191 78.5462C215.191 78.5462 217.006 77.3796 216.895 77.1911C216.895 77.1911 215.113 77.0718 214.172 77.4297C215.018 77.0686 215.96 76.9041 216.904 76.9525C216.531 76.5685 216.034 76.2872 215.477 76.1437C215.477 76.1437 216.471 75.8169 217.334 76.9859C217.334 76.9859 218.722 77.1267 218.886 77.2627C218.886 77.2627 218.223 76.0078 217.376 75.459C217.376 75.459 218.659 75.6833 219.244 77.3796L220.591 77.8376C220.591 77.8376 219.816 76.1366 219.103 75.6022C219.103 75.6022 220.369 76.003 220.919 77.9879L222.154 78.5963C222.154 78.5963 221.616 77.0885 220.971 76.3442C220.971 76.3442 222.054 76.9358 222.501 78.7848L223.27 79.2619C223.27 79.2619 222.854 78.1669 222.715 77.8615C222.576 77.5561 222.646 77.4965 222.646 77.4965C223.174 78.0628 223.507 78.7444 223.609 79.4647C223.609 79.4647 225.12 80.5646 225.206 80.493Z" fill="#9E63FF"/>
<path opacity="0.1" d="M56.0732 187.081C59.5986 187.081 62.4565 186.807 62.4565 186.468C62.4565 186.129 59.5986 185.855 56.0732 185.855C52.5477 185.855 49.6898 186.129 49.6898 186.468C49.6898 186.807 52.5477 187.081 56.0732 187.081Z" fill="#9E63FF"/>
<path opacity="0.1" d="M14.2272 176.66C17.7527 176.66 20.6106 176.386 20.6106 176.047C20.6106 175.709 17.7527 175.434 14.2272 175.434C10.7018 175.434 7.84387 175.709 7.84387 176.047C7.84387 176.386 10.7018 176.66 14.2272 176.66Z" fill="#9E63FF"/>
<path opacity="0.1" d="M87.9704 194.002C91.4958 194.002 94.3538 193.728 94.3538 193.389C94.3538 193.051 91.4958 192.776 87.9704 192.776C84.445 192.776 81.587 193.051 81.587 193.389C81.587 193.728 84.445 194.002 87.9704 194.002Z" fill="#9E63FF"/>
<path opacity="0.1" d="M251.428 178.927C254.953 178.927 257.811 178.652 257.811 178.314C257.811 177.975 254.953 177.7 251.428 177.7C247.902 177.7 245.044 177.975 245.044 178.314C245.044 178.652 247.902 178.927 251.428 178.927Z" fill="#9E63FF"/>
<path opacity="0.1" d="M198.309 175.952C201.835 175.952 204.693 175.677 204.693 175.339C204.693 175 201.835 174.725 198.309 174.725C194.784 174.725 191.926 175 191.926 175.339C191.926 175.677 194.784 175.952 198.309 175.952Z" fill="#9E63FF"/>
<path opacity="0.1" d="M163.946 190.462C168.116 190.462 171.496 189.963 171.496 189.348C171.496 188.732 168.116 188.234 163.946 188.234C159.777 188.234 156.397 188.732 156.397 189.348C156.397 189.963 159.777 190.462 163.946 190.462Z" fill="#9E63FF"/>
<path d="M167.314 178.149C167.314 178.149 156.802 182.816 162.233 188.312C162.233 188.312 162.744 189.505 164.221 189.422C164.221 189.422 163.927 188.959 165.054 188.589C165.455 188.456 165.836 188.282 166.19 188.071C166.667 187.788 167.024 187.378 167.206 186.905V186.905C167.206 186.905 169.355 184.433 167.689 179.86C167.689 179.86 167.906 178.567 167.717 178.357L166.44 179.862C166.44 179.862 167.758 180.623 167.911 181.742C167.911 181.742 166.523 179.865 166.245 180.072C166.184 180.115 165.612 180.895 165.612 180.895C165.612 180.895 167.9 182.229 168.069 183.961C168.069 183.961 166.781 181.535 165.39 181.189L164.593 182.41C164.593 182.41 167.092 183.717 167.37 185.683C167.37 185.683 165.918 183.19 164.435 182.687L163.849 183.978C163.849 183.978 166.259 185.294 166.481 186.931C166.481 186.931 164.465 184.195 163.741 184.281C163.741 184.281 163.285 185.493 163.346 185.867C163.346 185.867 165.048 186.845 165.079 187.807C165.079 187.807 163.507 186.101 163.266 186.213C163.266 186.213 163.166 187.928 163.649 188.821C163.649 188.821 162.816 187.547 162.952 186.213C162.465 186.583 162.115 187.067 161.944 187.606C161.944 187.606 161.492 186.664 162.983 185.795C162.983 185.795 163.124 184.462 163.296 184.297C163.296 184.297 161.683 184.975 160.997 185.805C160.997 185.805 161.25 184.567 163.438 183.951L163.993 182.644C163.993 182.644 161.805 183.441 161.131 184.142C161.131 184.142 161.617 182.914 164.166 182.324L164.921 181.131C164.921 181.131 162.977 181.694 162.028 182.324C162.028 182.324 162.763 181.267 165.154 180.781L165.768 180.029C165.768 180.029 164.357 180.461 163.963 180.616C163.569 180.771 163.491 180.695 163.491 180.695C164.211 180.171 165.087 179.829 166.02 179.707C166.02 179.707 167.411 178.23 167.314 178.149Z" fill="#9E63FF"/>
<path d="M198.514 90.012C196.699 85.7725 186.703 85.3741 182.366 86.4549C179.284 87.2255 172.787 88.0939 169.316 88.5305L169.091 88.3468C169.541 88.2323 169.552 87.9507 169.496 87.5332C169.464 86.983 169.473 86.4315 169.524 85.8823C171.651 86.4501 173.545 85.1069 173.545 85.1069C176.044 84.1526 175.372 80.0682 175.849 78.9517C176.207 78.1167 176.593 73.1972 176.766 70.7447H176.802L176.821 69.9216C176.846 69.5661 176.857 69.3586 176.857 69.3586C176.857 69.3586 177.101 63.3608 177.579 62.1464C178.023 61.0299 178.384 55.4043 178.44 54.512C178.44 54.4357 178.44 54.3951 178.44 54.3951L178.404 53.875C178.429 53.4957 178.44 53.0734 178.437 52.6296C178.437 50.5898 178.19 48.0204 178.159 47.6053C178.159 47.5456 178.159 47.474 178.159 47.3881C178.179 46.5173 178.051 42.1562 173.733 40.5076C172.142 39.8969 170.229 39.1692 168.377 38.4607C167.9 34.9178 166.809 31.3941 166.903 27.825C166.903 27.2882 166.959 26.7514 167.02 26.217C167.02 26.372 167 26.5295 166.997 26.6941C166.997 27.04 166.997 27.3884 166.997 27.7343C167.161 23.2706 169.124 18.783 168.941 14.4146C168.924 14.8417 168.888 15.2711 168.841 15.7006C168.937 14.223 168.757 12.7418 168.308 11.3132C168.141 10.8098 167.917 10.2897 167.436 9.95328C166.982 9.68236 166.461 9.50519 165.915 9.43557C164.601 9.1466 163.266 8.933 161.919 8.79619C161.714 8.2579 161.411 7.75126 161.019 7.29555C158.204 3.97458 154.034 0.854011 149.102 0.138285C146.628 -0.219578 143.782 0.0786407 142.1 1.59837C141.924 1.73187 141.759 1.87534 141.606 2.0278C140.7 2.95586 140.312 4.17498 139.384 5.10065C139.323 5.16268 139.254 5.21994 139.187 5.27959C137.371 6.67525 134.542 6.96631 132.523 8.21884C132.168 8.44368 131.834 8.69345 131.527 8.96558C130.713 9.65814 129.984 10.4199 129.35 11.2392C128.442 12.3366 127.509 13.4794 127.22 14.7892C126.64 17.4135 128.719 19.9019 129.105 22.5429C129.966 28.4524 122.356 33.6963 123.797 39.5271C124.181 40.9595 125.03 42.269 126.246 43.3037C123.277 45.6131 120.751 47.8534 120.751 47.8534V47.987H120.281L120.329 48.4641H120.281L120.54 51.0527L120.281 54.8222C120.281 54.8222 120.281 54.8627 120.281 54.9391V54.9581V55.0607C120.281 55.0607 120.281 55.1013 120.281 55.1776H120.298C120.384 56.559 120.726 61.5261 121.131 62.5735C121.609 63.7878 121.85 69.7856 121.85 69.7856C121.85 69.7856 122.378 78.2622 122.861 79.3835C123.344 80.5048 122.658 84.5773 125.165 85.5387C125.899 86.0222 126.767 86.3315 127.684 86.4358C127.556 87.3281 127.637 87.9746 128.05 88.1774C128.227 88.2668 128.428 88.3161 128.633 88.3205C128.463 88.5373 128.312 88.7646 128.181 89.0005C127.186 88.9112 126.208 88.7132 125.271 88.4112C122.578 87.4569 113.64 85.3097 111.044 86.8199C108.448 88.3301 102.2 89.6995 105.085 95.7784C107.97 101.857 109.314 102.01 109.314 102.01C110.202 102.564 110.981 103.236 111.621 104.002C112.488 105.121 120.559 107.681 122.578 107.681C123.436 107.67 124.294 107.706 125.146 107.791C125.146 107.791 122.955 109.442 123.247 110.401C123.538 111.36 122.58 119.037 122.58 119.037C122.58 119.037 124.802 120.96 125.751 118.438L125.785 118.476C125.962 118.684 126.923 119.622 128.731 118.438C129.47 117.956 130.256 117.528 131.08 117.16L139.831 116.095C140.744 116.046 141.659 116.041 142.572 116.079C143.96 116.177 145.323 115.47 146.181 114.924C147.995 115.516 150.033 116.162 151.002 116.398C152.967 116.876 162.002 118.958 164.115 118.307C164.555 118.157 164.945 117.918 165.254 117.61L167.27 117.665L166.326 117.828C166.326 117.828 168.164 117.854 170.663 117.882L170.557 117.935L173.692 117.911C178.279 117.947 183.432 117.959 184.11 117.828C185.17 117.625 190.682 117.768 192.306 117.828H192.759C192.759 117.828 198.814 116.79 196.315 111.51C194.394 107.454 188.488 106.276 185.867 105.951C186.606 105.825 187.242 105.727 187.664 105.67C189.493 105.431 193.047 104 193.336 103.511C193.625 103.022 196.604 101.602 197.373 100.793C198.142 99.9845 200.339 94.2515 198.514 90.012ZM148.355 101.876L148.058 101.96L147.858 102.017L147.475 102.342C147.17 102.165 146.842 101.979 146.501 101.788C147.103 101.819 147.722 101.85 148.355 101.876Z" fill="url(#paint0_linear)"/>
<path d="M166.059 76.7211C166.059 76.7211 170.307 86.2641 172.723 85.3098C175.138 84.3555 174.483 80.2997 174.944 79.188C175.405 78.0762 175.916 69.645 175.916 69.645C175.916 69.645 176.149 63.6806 176.61 62.4734C177.038 61.364 177.385 55.7694 177.443 54.8891C177.443 54.8127 177.443 54.7722 177.443 54.7722L176.985 47.8535L174.392 47.2976L168.378 49.2062L167.545 53.293L167.22 54.8891L167.081 55.569L166.059 76.7211Z" fill="#BE6F72"/>
<path opacity="0.1" d="M167.459 75.1226C167.459 75.1226 171.512 77.9735 172.734 78.224C173.956 78.4745 174.706 80.6981 174.706 80.6981" fill="black"/>
<path d="M132.837 77.1386C132.837 77.1386 128.589 86.6816 126.174 85.7273C123.758 84.773 124.413 80.7172 123.952 79.6055C123.491 78.4937 122.98 70.0624 122.98 70.0624C122.98 70.0624 122.747 64.0981 122.286 62.8909C121.859 61.7815 121.512 56.1869 121.453 55.3066C121.453 55.2302 121.453 55.1897 121.453 55.1897L121.914 48.271L124.508 47.7151L130.522 49.6237L131.355 53.7105L131.68 55.3066L131.818 55.9865L132.837 77.1386Z" fill="#BE6F72"/>
<path d="M160.5 26.0691H151.018V38.7685H160.5V26.0691Z" fill="#3E373A"/>
<path opacity="0.1" d="M160.5 26.0691H151.018V38.7685H160.5V26.0691Z" fill="black"/>
<path d="M131.171 86.6434C131.171 86.6434 127.931 89.7043 129.133 90.2602C130.335 90.816 138.113 101.235 138.113 101.235C138.113 101.235 163.657 103.938 168.475 99.8819C173.292 95.8261 173.195 88.5806 173.195 88.5806C173.195 88.5806 169.324 89.2963 168.902 88.9074C168.48 88.5186 166.162 86.6434 166.162 86.6434C166.162 86.6434 133.392 84.9352 131.171 86.6434Z" fill="#4B4B5B"/>
<path opacity="0.02" d="M131.171 86.6434C131.171 86.6434 127.931 89.7043 129.133 90.2602C130.335 90.816 138.113 101.235 138.113 101.235C138.113 101.235 163.657 103.938 168.475 99.8819C173.292 95.8261 173.195 88.5806 173.195 88.5806C173.195 88.5806 169.324 89.2963 168.902 88.9074C168.48 88.5186 166.162 86.6434 166.162 86.6434C166.162 86.6434 133.392 84.9352 131.171 86.6434Z" fill="black"/>
<path d="M177.157 47.9537L168.827 53.6795L166.309 53.8369L165.384 53.8942L149.855 54.8724L133.751 53.8608L131.354 53.7105L128.3 53.5196L121.914 48.271C121.914 48.271 126.434 44.1102 130.394 41.3022C131.954 40.1928 133.429 39.2958 134.503 38.9427L134.686 38.8878C135.362 38.6613 135.966 38.2999 136.447 37.8333C139.573 35.0634 142.464 28.2283 142.464 28.2283C142.464 28.2283 156.255 22.1064 154.589 30.1369C152.923 38.1673 160.789 36.1824 160.789 36.1824L163.382 37.1987L164.407 37.6019L167.02 38.6302L172.914 40.9539C177.54 42.7837 177.157 47.9537 177.157 47.9537Z" fill="#BE6F72"/>
<path opacity="0.1" d="M149.208 34.7676C156.058 34.7676 161.611 29.9962 161.611 24.1104C161.611 18.2246 156.058 13.4532 149.208 13.4532C142.358 13.4532 136.805 18.2246 136.805 24.1104C136.805 29.9962 142.358 34.7676 149.208 34.7676Z" fill="black"/>
<path opacity="0.1" d="M177.177 55.5452H121.453C121.453 55.4688 121.453 55.4283 121.453 55.4283L121.914 48.5096C121.914 48.5096 126.435 44.3488 130.394 41.5408L165.379 40.3479L167.006 38.8735L172.901 41.1973C177.529 43.0247 177.157 48.1947 177.157 48.1947C177.157 48.1947 177.79 54.1853 177.177 55.5452Z" fill="black"/>
<path d="M177.177 55.3067H121.453C121.453 55.2303 121.453 55.1898 121.453 55.1898L121.914 48.2711C121.914 48.2711 126.435 44.1103 130.394 41.3023L165.379 40.1094L167.006 38.635L172.901 40.9587C177.529 42.7862 177.157 47.9562 177.157 47.9562C177.157 47.9562 177.79 53.9468 177.177 55.3067Z" fill="#E7C7CA"/>
<path opacity="0.1" d="M140.276 35.9055C140.276 35.9055 149.066 45.5297 160.775 35.7075C172.484 25.8854 162.072 57.6159 162.072 57.6159L136.805 60.1925L140.276 35.9055Z" fill="black"/>
<path d="M140.276 36.3827C140.276 36.3827 149.066 46.0068 160.775 36.1847C172.484 26.3625 162.072 58.0931 162.072 58.0931L136.805 60.6697L140.276 36.3827Z" fill="#E7C7CA"/>
<path opacity="0.1" d="M164.393 38.0719L165.323 50.2607L166.32 54.3165L167.081 57.418C167.081 57.418 169.024 81.2755 168.469 82.4684C167.914 83.6612 168.747 84.6155 168.863 85.2502C168.98 85.8848 168.747 87.4785 168.838 88.1942C168.93 88.9099 168.838 89.2272 166.712 88.9719C164.585 88.7167 161.619 88.2729 161.619 88.2729C161.619 88.2729 154.123 88.7501 151.532 87.9556C148.941 87.1611 144.035 87.1588 144.035 87.1588C144.035 87.1588 136.63 87.3186 134.226 87.08C131.821 86.8415 130.522 89.6256 128.95 88.8288C127.379 88.0319 130.799 80.3212 131.91 78.0929C133.021 75.8646 130.43 70.2199 130.43 70.2199L133.762 54.3379L134.503 50.7378V39.4198L134.686 39.3649C135.362 39.1385 135.966 38.777 136.447 38.3104L137.28 49.7L163.38 50.4969V37.6782" fill="black"/>
<path d="M164.393 37.5947L165.323 49.7835L166.32 53.8393L167.081 56.9408C167.081 56.9408 169.024 80.7983 168.469 81.9912C167.914 83.1841 168.747 84.1384 168.863 84.773C168.98 85.4076 168.747 87.0013 168.838 87.717C168.93 88.4327 168.838 88.75 166.712 88.4948C164.585 88.2395 161.619 87.7957 161.619 87.7957C161.619 87.7957 154.123 88.2729 151.532 87.4784C148.941 86.684 144.035 86.6816 144.035 86.6816C144.035 86.6816 136.63 86.8414 134.226 86.6029C131.821 86.3643 130.522 89.1485 128.95 88.3516C127.379 87.5548 130.799 79.844 131.91 77.6157C133.021 75.3874 130.43 69.7427 130.43 69.7427L133.762 53.8608L134.503 50.2607V38.9426L134.686 38.8878C135.362 38.6613 135.966 38.2998 136.447 37.8333L137.28 49.2229L163.38 50.0197V37.201" fill="#E7C7CA"/>
<path opacity="0.1" d="M167.395 12.1577C167.236 11.6591 167.017 11.1414 166.562 10.8074C166.127 10.5391 165.625 10.3625 165.096 10.292C163.829 10.0059 162.542 9.79387 161.242 9.65743C161.056 9.12768 160.775 8.62616 160.409 8.1711C157.688 4.86922 153.662 1.75581 148.925 1.05202C146.445 0.682225 143.572 1.01384 141.983 2.69341C141.111 3.6167 140.737 4.84059 139.856 5.74718C138.16 7.50787 135.097 7.72497 132.959 9.08724C131.818 9.80296 130.991 10.8408 130.183 11.8476C129.308 12.9378 128.409 14.0735 128.131 15.3761C127.576 17.9789 129.578 20.4601 129.947 23.0868C130.78 28.9629 123.45 34.1758 124.835 39.9732C125.643 43.3538 129.278 45.7348 133.037 46.942C134.362 47.369 135.875 47.7937 136.494 48.8864C136.772 49.3635 136.819 49.9146 137.08 50.3966C137.957 52.0046 140.842 52.0666 142.391 50.8952C143.941 49.7238 144.429 47.8295 144.613 46.0616C145.357 38.3413 141.758 30.7141 142.178 22.9747C142.303 20.6343 143.069 17.9789 145.51 16.9197C148.794 15.4882 152.745 17.874 156.36 17.4183C158.071 20.9949 158.434 24.9422 157.399 28.7053C156.824 30.7642 155.83 32.7611 155.758 34.8844C155.65 38.1171 157.679 41.0706 159.434 43.9288C159.811 44.4632 160.062 45.0556 160.176 45.6728C160.203 46.299 160.067 46.9225 159.778 47.4979C158.787 49.7906 157.077 51.9187 156.882 54.3593C156.826 54.6442 156.9 54.9369 157.091 55.1752C157.286 55.3343 157.539 55.4318 157.807 55.452C160.806 55.8933 163.399 53.6102 164.862 51.3175C166.494 48.7852 167.444 45.9711 167.645 43.0818C167.947 38.2244 165.92 33.4458 166.045 28.5836C166.19 23.0558 169.097 17.4899 167.395 12.1577Z" fill="black"/>
<path d="M167.672 11.9192C167.514 11.4206 167.295 10.9028 166.839 10.5688C166.404 10.3006 165.902 10.124 165.373 10.0535C164.107 9.76737 162.819 9.55535 161.519 9.41891C161.334 8.88915 161.052 8.38764 160.686 7.93258C157.965 4.6307 153.939 1.51729 149.202 0.813492C146.723 0.4437 143.849 0.775319 142.261 2.45489C141.389 3.37818 141.014 4.60207 140.134 5.50866C138.438 7.26934 135.375 7.48645 133.237 8.84871C132.096 9.56444 131.268 10.6022 130.46 11.609C129.586 12.6993 128.686 13.8349 128.408 15.1376C127.853 17.7404 129.855 20.2216 130.224 22.8483C131.057 28.7244 123.727 33.9373 125.113 39.7347C125.921 43.1153 129.555 45.4963 133.315 46.7035C134.639 47.1305 136.152 47.5552 136.772 48.6479C137.049 49.125 137.096 49.6761 137.357 50.158C138.235 51.766 141.12 51.8281 142.669 50.6567C144.218 49.4853 144.707 47.591 144.89 45.8231C145.634 38.1028 142.036 30.4756 142.455 22.7362C142.58 20.3958 143.347 17.7404 145.787 16.6811C149.072 15.2497 153.023 17.6354 156.638 17.1798C158.349 20.7563 158.712 24.7037 157.676 28.4668C157.102 30.5257 156.108 32.5226 156.035 34.6459C155.927 37.8786 157.957 40.8321 159.712 43.6903C160.088 44.2247 160.34 44.8171 160.453 45.4343C160.481 46.0604 160.345 46.684 160.056 47.2594C159.065 49.5521 157.354 51.6802 157.16 54.1208C157.103 54.4057 157.178 54.6984 157.368 54.9367C157.564 55.0957 157.816 55.1933 158.085 55.2135C161.083 55.6548 163.677 53.3717 165.14 51.0789C166.771 48.5467 167.722 45.7326 167.922 42.8433C168.225 37.9859 166.198 33.2073 166.323 28.3451C166.467 22.8173 169.374 17.2513 167.672 11.9192Z" fill="#3E373A"/>
<path d="M161.539 117.553L172.554 117.856L170.974 110.837L162.536 111.527L161.539 117.553Z" fill="#C3C7D9"/>
<path d="M195.669 100.917C194.927 101.712 192.059 103.143 191.781 103.621C191.504 104.098 188.08 105.529 186.32 105.768C184.56 106.006 179.009 107.042 177.99 107.598C177.26 107.998 171.399 109.268 167.547 109.971C166.504 110.183 165.449 110.347 164.385 110.46C162.719 110.539 144.488 105.212 144.488 105.212L148.003 102.11L148.197 102.053C149.191 101.764 153.784 100.431 156.333 99.7961C159.204 99.0804 162.536 96.1388 162.536 96.1388C162.536 96.1388 167.439 94.7073 168.089 94.5475C168.739 94.3876 166.423 88.9815 166.423 88.9815C166.423 88.9815 177.066 87.7123 181.23 86.6363C185.395 85.5603 195.022 85.9588 196.779 90.1744C198.537 94.39 196.421 100.123 195.669 100.917Z" fill="#4B4B5B"/>
<path d="M147.17 114.356C147.17 114.356 145.043 116.265 142.913 116.108C140.784 115.95 133.337 116.585 133.337 116.585C131.987 117.047 130.724 117.677 129.586 118.453C127.845 119.631 126.92 118.691 126.748 118.491L126.718 118.453C125.79 120.96 123.663 119.049 123.663 119.049C123.663 119.049 124.588 111.415 124.305 110.46C124.022 109.506 126.134 107.867 126.134 107.867L128.633 107.321L134.964 105.927L144.035 108.631L147.17 114.356Z" fill="#E7C7CA"/>
<path opacity="0.1" d="M128.622 107.321L126.748 118.491L126.718 118.453C125.79 120.96 123.663 119.049 123.663 119.049C123.663 119.049 124.588 111.415 124.305 110.46C124.022 109.506 126.134 107.867 126.134 107.867L128.622 107.321Z" fill="black"/>
<path opacity="0.1" d="M141.722 75.5474C141.722 75.5474 146.626 76.9788 150.885 75.5474Z" fill="black"/>
<path opacity="0.1" d="M158.462 78.2528C158.462 78.2528 160.498 79.126 162.072 78.2528Z" fill="black"/>
<path opacity="0.1" d="M158.462 80.3235C158.462 80.3235 161.886 80.7172 162.536 79.9227Z" fill="black"/>
<path opacity="0.1" d="M157.352 84.7731C157.352 84.7731 163.782 84.0573 165.379 83.103Z" fill="black"/>
<path opacity="0.1" d="M137.73 83.103C137.73 83.103 141.339 84.8518 144.024 84.773Z" fill="black"/>
<path opacity="0.1" d="M167.545 109.971C166.501 110.183 165.446 110.347 164.382 110.46C162.716 110.539 144.485 105.212 144.485 105.212L148 102.11L148.195 102.053C148.75 102.389 149.205 102.678 149.53 102.898C151.06 103.933 152.537 102.58 153.092 102.58C153.648 102.58 158.46 105.999 158.46 105.999C158.46 105.999 162.902 106.875 163.643 107.669C164.385 108.464 166.975 108.306 167.436 108.862C167.575 109.034 167.592 109.456 167.545 109.971Z" fill="black"/>
<path d="M133.337 89.3059C133.337 89.3059 128.845 89.5278 126.254 88.5902C123.664 87.6526 115.056 85.4887 112.557 87.0084C110.058 88.5282 104.041 89.8714 106.818 95.9169C109.595 101.962 110.891 102.12 110.891 102.12C111.75 102.673 112.5 103.342 113.113 104.1C113.945 105.214 121.72 107.757 123.664 107.757C125.607 107.757 129.031 107.757 133.843 110.62C138.654 113.483 143.005 113.803 143.005 113.803C143.005 113.803 149.114 115.95 151.016 116.427C152.918 116.904 161.608 118.97 163.646 118.336C165.684 117.701 166.978 113.722 166.978 113.722C166.978 113.722 167.903 110.143 167.439 109.587C166.975 109.031 164.385 109.189 163.646 108.394C162.908 107.6 158.462 106.724 158.462 106.724C158.462 106.724 153.662 103.303 153.106 103.303C152.551 103.303 151.074 104.653 149.544 103.62C146.497 101.681 143.295 99.9271 139.962 98.3718C136.447 96.7805 133.337 89.3059 133.337 89.3059Z" fill="#4B4B5B"/>
<path opacity="0.1" d="M124.305 91.613C125.105 91.4726 125.932 91.4927 126.721 91.6719C127.51 91.8511 128.241 92.1844 128.856 92.646C131.077 94.2373 138.552 97.4319 138.552 97.4319" fill="black"/>
<path opacity="0.1" d="M179.842 91.5128C179.842 91.5128 169.938 92.8011 168.089 94.5499Z" fill="black"/>
<path d="M191.226 117.856H190.79C189.224 117.809 183.918 117.665 182.896 117.856C181.694 118.095 165.773 117.856 165.773 117.856L168.886 117.3C168.886 117.3 167.731 113.822 168.464 113.533C168.464 113.533 164.299 111.176 167.439 109.585C170.579 107.994 173.964 108.664 173.964 108.664L181.847 106.369L183.36 105.927C183.36 105.927 192.245 106.326 194.65 111.575C197.054 116.823 191.226 117.856 191.226 117.856Z" fill="#E7C7CA"/>
<path opacity="0.1" d="M191.226 117.856H190.79C193.375 116.024 199.223 110.446 181.847 106.381L183.36 105.939C183.36 105.939 192.245 106.338 194.65 111.586C197.054 116.835 191.226 117.856 191.226 117.856Z" fill="black"/>
<path d="M174.892 111.672C175.16 111.672 175.377 111.485 175.377 111.255C175.377 111.024 175.16 110.837 174.892 110.837C174.623 110.837 174.406 111.024 174.406 111.255C174.406 111.485 174.623 111.672 174.892 111.672Z" fill="#4B4B5B"/>
<path d="M172.068 112.362C172.336 112.362 172.554 112.175 172.554 111.944C172.554 111.714 172.336 111.527 172.068 111.527C171.799 111.527 171.582 111.714 171.582 111.944C171.582 112.175 171.799 112.362 172.068 112.362Z" fill="#4B4B5B"/>
<g opacity="0.1">
<path opacity="0.1" d="M158.31 23.7167C158.417 21.0926 157.874 18.4788 156.716 16.0489C153.106 16.5117 149.153 14.1188 145.865 15.5503C143.433 16.6096 142.669 19.2649 142.533 21.6053C142.5 22.2232 142.494 22.8412 142.508 23.4591C142.508 23.2396 142.508 23.0177 142.533 22.7982C142.661 20.4578 143.424 17.8024 145.865 16.7432C149.153 15.3117 153.101 17.6975 156.716 17.2418C157.697 19.3 158.237 21.4935 158.31 23.7167V23.7167Z" fill="black"/>
<path opacity="0.1" d="M130.338 23.2803C130.386 22.7604 130.374 22.2378 130.302 21.72C130.008 19.6205 128.672 17.6141 128.431 15.5671C128.12 18.0364 129.95 20.4078 130.302 22.9129C130.338 23.0417 130.338 23.1562 130.338 23.2803Z" fill="black"/>
<path opacity="0.1" d="M144.968 44.69C144.796 46.4602 144.31 48.3521 142.747 49.5259C141.184 50.6997 138.304 50.6353 137.435 49.0273C137.158 48.5501 137.116 47.9942 136.847 47.5171C136.23 46.4244 134.714 45.9998 133.39 45.5727C129.628 44.3631 125.999 41.9941 125.191 38.6039C125.118 38.2968 125.069 37.986 125.044 37.6735C124.975 38.3837 125.025 39.0986 125.191 39.7968C125.999 43.1774 129.633 45.556 133.39 46.7656C134.714 47.1926 136.23 47.6173 136.847 48.71C137.124 49.1871 137.172 49.7382 137.435 50.2202C138.31 51.8282 141.195 51.8902 142.747 50.7188C144.299 49.5474 144.782 47.6531 144.968 45.8828C145.053 44.9511 145.082 44.0162 145.054 43.082C145.054 43.6235 145.018 44.1579 144.968 44.69Z" fill="black"/>
<path opacity="0.1" d="M166.415 27.2143C166.415 27.5603 166.415 27.9038 166.415 28.2474C166.57 23.8099 168.464 19.3485 168.278 15.004C168.133 19.0216 166.52 23.1299 166.415 27.2143Z" fill="black"/>
<path opacity="0.1" d="M160.456 45.1648C160.524 44.8817 160.546 44.5917 160.52 44.3035C160.408 43.6861 160.156 43.0935 159.779 42.5595C158.174 39.9352 156.344 37.2488 156.127 34.3358C156.127 34.4599 156.108 34.5744 156.105 34.708C155.994 37.9383 158.024 40.8943 159.779 43.7524C160.077 44.1951 160.305 44.6701 160.456 45.1648V45.1648Z" fill="black"/>
<path opacity="0.1" d="M168.011 41.7126C167.804 44.603 166.847 47.417 165.21 49.9483C163.744 52.241 161.153 54.5241 158.152 54.0828C157.883 54.0629 157.63 53.9643 157.435 53.8036C157.379 53.749 157.335 53.6859 157.305 53.6175C157.271 53.8036 157.244 53.9921 157.227 54.183C157.17 54.4671 157.244 54.7593 157.435 54.9965C157.63 55.1572 157.883 55.2557 158.152 55.2756C161.153 55.717 163.744 53.4338 165.21 51.1411C166.847 48.6098 167.804 45.7959 168.011 42.9055C168.045 42.3472 168.047 41.7914 168.028 41.2355C168.022 41.3953 168.022 41.5528 168.011 41.7126Z" fill="black"/>
</g>
<path opacity="0.1" d="M168.464 113.533C168.464 113.533 175.491 116.067 180.125 110.46" stroke="black" stroke-miterlimit="10"/>
<path opacity="0.1" d="M169.846 117.961C169.846 117.961 175.586 114.755 182.896 117.856" stroke="black" stroke-miterlimit="10"/>
<path opacity="0.1" d="M131.429 117.234C131.429 117.234 133.84 112.562 140.276 116.124" stroke="black" stroke-miterlimit="10"/>
<path opacity="0.1" d="M123.616 48.1517L128.531 44.3345C128.531 44.3345 147.586 43.2609 148.375 48.8269C148.375 48.8269 155.13 42.2279 169.338 43.6975L175.349 47.8105L158.734 54.0755L142.589 58.8876L130.696 54.3141L123.616 48.1517Z" fill="black"/>
<path d="M123.616 48.3902L128.531 44.573C128.531 44.573 147.586 43.4994 148.375 49.0654C148.375 49.0654 155.13 42.4664 169.338 43.936L175.349 48.0491L158.734 54.3141L142.589 59.1261L130.696 54.5526L123.616 48.3902Z" fill="#D5D6DB"/>
<path opacity="0.1" d="M121.442 48.8674L123.616 71.2148L146.662 72.2096L145.662 49.9577L145.643 49.5832L121.442 48.8674Z" fill="black"/>
<path d="M121.442 48.3903L123.616 70.7376L146.662 71.7325L145.662 49.4805L145.643 49.106L121.442 48.3903Z" fill="#9E63FF"/>
<path opacity="0.1" d="M176.405 48.3903L152.632 51.4536V73.9011L175.863 71.0167L176.405 48.3903Z" fill="black"/>
<path d="M176.405 47.9132L152.632 50.9765V73.4241L175.863 70.5397L176.405 47.9132Z" fill="#9E63FF"/>
<path opacity="0.3" d="M170.799 53.3907L157.957 54.617L158.237 58.377L170.79 57.1984L170.799 53.3907Z" fill="white"/>
<path d="M124.866 82.7046L126.174 85.7274C126.174 85.7274 128.117 87.1588 130.244 86.4431C132.371 85.7274 134.226 85.3719 135.15 84.6753C136.075 83.9786 137.372 80.4787 137.372 80.4787C137.372 80.4787 138.668 76.6615 139.962 75.7072C141.256 74.7529 144.682 61.605 139.962 62.8909C135.242 64.1768 131.632 76.1056 131.632 76.1056C131.632 76.1056 130.799 76.9788 129.597 77.0599C128.395 77.1411 125.988 76.9001 125.524 77.7757C125.06 78.6512 123.477 80.9559 124.866 82.7046Z" fill="#BE6F72"/>
<path opacity="0.1" d="M152.631 51.4511C151.414 51.6868 150.15 51.6745 148.939 51.4151C147.729 51.1558 146.605 50.6567 145.659 49.9576L146.662 72.2072C146.662 72.2072 149.022 74.4021 152.631 73.9011V51.4511Z" fill="black"/>
<path d="M152.631 50.9741C151.414 51.2097 150.15 51.1974 148.939 50.9381C147.729 50.6788 146.605 50.1796 145.659 49.4806L146.662 71.7301C146.662 71.7301 149.022 73.925 152.631 73.424V50.9741Z" fill="#9E63FF"/>
<path opacity="0.1" d="M152.631 50.9741C151.414 51.2097 150.15 51.1974 148.939 50.9381C147.729 50.6788 146.605 50.1796 145.659 49.4806L146.662 71.7301C146.662 71.7301 149.022 73.925 152.631 73.424V50.9741Z" fill="black"/>
<path opacity="0.1" d="M153.187 48.4666C153.187 48.4666 162.858 45.9258 165.379 46.2837Z" fill="black"/>
<path opacity="0.1" d="M142.369 47.3572C142.369 47.3572 132.995 45.4486 131.429 45.9902Z" fill="black"/>
<path opacity="0.1" d="M159.284 48.7838C159.284 48.7838 165.751 46.7464 168.089 47.715Z" fill="black"/>
<path opacity="0.1" d="M156.027 99.894C157.029 99.2473 158.096 98.6781 159.215 98.1929C160.881 97.5034 163.935 95.7141 163.935 95.7141" fill="black"/>
<path opacity="0.1" d="M131.43 75.5474C131.43 75.5474 127.373 78.3983 126.154 78.6488C124.935 78.8993 124.183 81.1229 124.183 81.1229" fill="black"/>
<path d="M174.02 82.28L172.726 85.3099C172.726 85.3099 170.782 86.7413 168.653 86.0256C166.523 85.3099 164.674 84.9544 163.746 84.2578C162.819 83.5611 161.525 80.0612 161.525 80.0612C161.525 80.0612 160.231 76.244 158.934 75.2897C157.638 74.3354 154.214 61.1875 158.934 62.4734C163.655 63.7594 167.264 75.6881 167.264 75.6881C167.264 75.6881 168.097 76.5613 169.299 76.6424C170.502 76.7236 172.909 76.4826 173.373 77.3582C173.836 78.2337 175.408 80.5384 174.02 82.28Z" fill="#BE6F72"/>
<path opacity="0.1" d="M171.751 76.7068C171.751 76.7068 174.403 78.1716 174.392 79.9228Z" fill="black"/>
<path d="M149.252 34.2451C156.102 34.2451 161.655 29.4737 161.655 23.5879C161.655 17.7022 156.102 12.9308 149.252 12.9308C142.402 12.9308 136.849 17.7022 136.849 23.5879C136.849 29.4737 142.402 34.2451 149.252 34.2451Z" fill="#BE6F72"/>
<path d="M141.464 20.7275C142.969 20.5247 144.288 19.7732 145.726 19.3414C148.944 18.3704 152.504 19.036 155.761 19.9116C157.01 20.248 158.279 20.6273 159.59 20.6273C160.9 20.6273 162.291 20.1668 162.96 19.1958C163.577 18.3036 163.457 17.1441 162.938 16.2065C162.419 15.2689 161.55 14.515 160.672 13.804C157.785 11.4612 154.203 9.2711 150.241 9.50968C148.647 9.60749 147.123 10.0966 145.657 10.6381C143.811 11.3217 142.014 12.0992 140.276 12.9666C138.94 13.6323 136.466 14.5221 135.697 15.7389C133.948 18.4801 138.743 21.0949 141.464 20.7275Z" fill="#3E373A"/>
<path opacity="0.1" d="M162.96 18.1938C162.291 19.1648 160.9 19.6253 159.59 19.6253C158.279 19.6253 157.01 19.2603 155.758 18.9239C152.501 18.0483 148.944 17.3803 145.723 18.3537C144.288 18.7855 142.966 19.5466 141.461 19.7374C139.268 20.0333 135.736 18.3919 135.353 16.3043C134.923 18.7163 139.018 20.7824 141.461 20.4531C142.966 20.2504 144.288 19.4988 145.723 19.0694C148.944 18.096 152.501 18.764 155.758 19.6396C157.01 19.976 158.276 20.3553 159.59 20.341C160.903 20.3267 162.291 19.883 162.96 18.9096C163.307 18.38 163.444 17.7678 163.349 17.1656C163.306 17.5281 163.173 17.8786 162.96 18.1938Z" fill="black"/>
<path d="M263.614 147.49C263.614 147.49 265.261 149.339 262.853 152.132C260.446 154.926 258.464 157.283 259.263 159.025C259.263 159.025 262.895 153.838 265.849 153.764C268.804 153.69 266.86 150.608 263.614 147.49Z" fill="#9E63FF"/>
<path opacity="0.1" d="M263.614 147.49C263.758 147.668 263.871 147.864 263.95 148.069C266.832 150.98 268.371 153.697 265.597 153.764C263.015 153.829 259.919 157.796 259.177 158.796C259.201 158.877 259.23 158.956 259.263 159.034C259.263 159.034 262.895 153.848 265.849 153.774C268.804 153.7 266.86 150.608 263.614 147.49Z" fill="black"/>
<path d="M266.668 149.847C266.668 150.498 266.582 151.025 266.48 151.025C266.377 151.025 266.288 150.498 266.288 149.847C266.288 149.196 266.394 149.503 266.499 149.503C266.605 149.503 266.668 149.196 266.668 149.847Z" fill="#FFD037"/>
<path d="M267.721 150.625C267.057 150.935 266.477 151.123 266.427 151.045C266.377 150.966 266.874 150.648 267.538 150.329C268.201 150.009 267.94 150.243 267.99 150.329C268.04 150.415 268.387 150.312 267.721 150.625Z" fill="#FFD037"/>
<path d="M254.913 147.49C254.913 147.49 253.266 149.339 255.673 152.132C258.081 154.926 260.063 157.283 259.261 159.025C259.261 159.025 255.632 153.838 252.675 153.764C249.718 153.69 251.675 150.608 254.913 147.49Z" fill="#9E63FF"/>
<path opacity="0.1" d="M254.913 147.49C254.769 147.668 254.656 147.864 254.577 148.069C251.695 150.98 250.156 153.697 252.93 153.764C255.51 153.829 258.608 157.796 259.35 158.796C259.326 158.877 259.297 158.957 259.261 159.034C259.261 159.034 255.632 153.848 252.675 153.774C249.718 153.7 251.675 150.608 254.913 147.49Z" fill="black"/>
<path d="M251.853 149.847C251.853 150.498 251.936 151.025 252.041 151.025C252.147 151.025 252.233 150.498 252.233 149.847C252.233 149.196 252.125 149.503 252.022 149.503C251.919 149.503 251.853 149.196 251.853 149.847Z" fill="#FFD037"/>
<path d="M250.803 150.625C251.467 150.935 252.047 151.123 252.097 151.045C252.147 150.966 251.65 150.648 250.986 150.329C250.323 150.009 250.584 150.243 250.534 150.329C250.484 150.415 250.137 150.312 250.803 150.625Z" fill="#FFD037"/>
<path opacity="0.1" d="M259.263 173.177C268.771 173.177 276.478 172.161 276.478 170.908C276.478 169.655 268.771 168.639 259.263 168.639C249.756 168.639 242.049 169.655 242.049 170.908C242.049 172.161 249.756 173.177 259.263 173.177Z" fill="#9E63FF"/>
<path d="M268.123 156.532L268.04 157.109L267.924 157.925L267.876 158.266L267.76 159.082L267.71 159.423L267.596 160.237L266.277 169.517C266.16 170.345 264.586 170.992 262.684 170.992H255.84C253.938 170.992 252.366 170.345 252.247 169.517L250.928 160.237L250.811 159.423L250.764 159.082L250.648 158.266L250.598 157.925L250.484 157.109L250.4 156.532C250.337 156.055 251.186 155.668 252.264 155.668H266.263C267.338 155.668 268.19 156.062 268.123 156.532Z" fill="#65617D"/>
<path d="M268.04 157.109L267.926 157.925H250.601L250.484 157.109H268.04Z" fill="#9D9CB5"/>
<path d="M267.876 158.266L267.763 159.082H250.764L250.648 158.266H267.876Z" fill="#9D9CB5"/>
<path d="M267.712 159.423L267.596 160.239H250.928L250.814 159.423H267.712Z" fill="#9D9CB5"/>
<path d="M182.207 130.658C181.882 130.606 181.55 130.617 181.23 130.689C180.909 130.762 180.607 130.895 180.341 131.081C180.075 131.266 179.849 131.501 179.678 131.771C179.507 132.041 179.393 132.342 179.343 132.654L178.372 138.785L181.677 139.628L184.099 133.916C184.24 133.584 184.301 133.226 184.279 132.868C184.256 132.511 184.15 132.162 183.968 131.849C183.786 131.536 183.533 131.267 183.229 131.061C182.924 130.854 182.574 130.717 182.207 130.658Z" fill="#A0616A"/>
<path d="M182.145 138.774C183.979 145.784 183.19 152.196 176.359 157.23C168.166 155.058 162.716 149.818 159.392 142.203C159.185 141.729 159.08 141.221 159.084 140.707C159.087 140.194 159.199 139.686 159.412 139.215C159.625 138.744 159.935 138.32 160.323 137.967C160.712 137.615 161.17 137.342 161.671 137.164V137.164C162.425 136.898 163.244 136.859 164.021 137.051C164.798 137.244 165.496 137.659 166.021 138.242L174.06 147.164L177.831 138.168L182.145 138.774Z" fill="#6C63FF"/>
<path d="M224.124 175.552C216.643 175.17 211.996 172.7 210.87 167.635L212.075 165.51L225.87 171.553C226.219 171.706 226.512 171.955 226.713 172.268C226.914 172.581 227.013 172.945 226.999 173.313C226.984 173.68 226.856 174.036 226.631 174.333C226.406 174.631 226.094 174.857 225.735 174.984L224.124 175.552Z" fill="#A0616A"/>
<path d="M218.344 175.603C214.457 175.489 210.718 175.525 207.176 175.755C206.555 175.796 205.942 175.6 205.47 175.209C204.999 174.818 204.706 174.264 204.657 173.667L204.444 171.111L201.432 166.476L204.042 163.966C208.43 168.168 213.241 171.697 218.956 173.795C219.139 173.916 219.277 174.091 219.349 174.293C219.421 174.496 219.422 174.715 219.353 174.919C219.284 175.122 219.149 175.299 218.967 175.422C218.785 175.546 218.566 175.609 218.344 175.603V175.603Z" fill="#A0616A"/>
<path d="M197.215 157.4C192.251 165.94 187.37 171.698 180.948 174.78C173.048 177.287 167.275 173.965 162.774 167.152L175.828 158.849L177.735 160.683L195.025 148.031C195.448 147.647 196.011 147.438 196.592 147.45C197.174 147.463 197.727 147.695 198.131 148.098L212.879 165.511L211.071 168.407L197.215 157.4Z" fill="#2F2E41"/>
<path d="M201.633 167.442L194.805 157.4L196.411 154.504L205.448 163.579L201.633 167.442Z" fill="#2F2E41"/>
<path d="M162.272 135.387C166.043 135.387 169.1 132.447 169.1 128.821C169.1 125.195 166.043 122.256 162.272 122.256C158.501 122.256 155.444 125.195 155.444 128.821C155.444 132.447 158.501 135.387 162.272 135.387Z" fill="#A0616A"/>
<path d="M164.079 140.987L156.448 138.476C157.578 136.751 158.073 134.711 157.854 132.683H164.079C163.725 135.629 163.672 138.424 164.079 140.987Z" fill="#A0616A"/>
<path d="M180.346 158.559C179.202 159.011 179.118 160.475 178.036 160.973C172.807 163.378 167.275 165.331 163.477 168.793C154.602 162.998 146.376 145 157.051 137.125C160.695 139.175 163.949 140.642 163.879 137.125L180.346 158.559Z" fill="#6C63FF"/>
<path opacity="0.2" d="M175.727 150.835L172.012 149.58L164.682 155.083L161.396 143.709C161.168 142.92 160.799 143.32 160.269 143.868C159.716 143.376 159.029 143.046 158.288 142.918C157.547 142.789 156.783 142.867 156.086 143.142C155.389 143.417 154.789 143.878 154.356 144.47C153.923 145.063 153.675 145.762 153.642 146.485C153.251 154.736 155.838 161.716 162.272 167.055C170.688 165.323 174.26 159.855 175.727 152.766L175.329 152.511C175.476 151.963 175.609 151.404 175.727 150.835Z" fill="black"/>
<path d="M163.191 120.184C165.443 120.679 168.007 121.38 168.15 122.032C170.467 122.593 172.216 123.938 172.573 125.988C172.603 126.165 172.592 126.346 172.541 126.519C172.49 126.692 172.4 126.852 172.278 126.987C172.156 127.123 172.004 127.231 171.834 127.305C171.664 127.378 171.479 127.414 171.292 127.412C170.032 127.396 168.141 127.28 166.892 126.778C163.263 129.026 162.654 134.873 164.239 138.853L161.746 138.633L159.166 131.372L158.507 138.347L152.818 137.624L153.55 128.729C153.776 126.632 154.518 124.618 155.715 122.852C155.839 122.675 155.975 122.505 156.122 122.345C156.988 121.404 158.102 120.707 159.346 120.327C160.591 119.946 161.92 119.897 163.191 120.184V120.184Z" fill="#2F2E41"/>
<path d="M176.028 142.226L182.276 149.291L191.65 138.653L185.316 131.264L176.028 142.226Z" fill="#3F3D56"/>
<path d="M190.045 138.897L182.614 133.051C183.036 132.076 185.063 132.401 185.063 132.401L190.88 138.072C191.083 138.269 191.256 138.492 191.397 138.735V138.735L190.045 138.897Z" fill="#F2F2F2"/>
<path d="M190.383 138.491L181.939 132.158L172.565 145.799L181.39 151.524C182.234 151.849 183.079 151.28 183.079 151.28L191.692 138.613L190.383 138.491Z" fill="#3F3D56"/>
<path d="M182.992 134.134L182.912 134.241L188.317 137.976L188.397 137.869L182.992 134.134Z" fill="#6C63FF"/>
<path d="M188.468 139.267L181.375 149.579L181.489 149.652L188.582 139.339L188.468 139.267Z" fill="#6C63FF"/>
<path d="M181.967 134.312L174.62 144.462L174.733 144.537L182.079 134.387L181.967 134.312Z" fill="#6C63FF"/>
<path d="M184.236 132.321L184.179 132.38L190.861 138.277L190.918 138.218L184.236 132.321Z" fill="#B3B3B3"/>
<path d="M183.68 132.371L183.624 132.432L190.607 138.36L190.663 138.299L183.68 132.371Z" fill="#B3B3B3"/>
<path d="M183.243 132.489L183.189 132.552L190.438 138.363L190.492 138.3L183.243 132.489Z" fill="#B3B3B3"/>
<path d="M179.401 144.3C179.131 144.12 178.826 143.992 178.504 143.926C178.182 143.859 177.85 143.855 177.527 143.913C177.203 143.971 176.895 144.09 176.62 144.264C176.345 144.437 176.108 144.662 175.924 144.924L172.313 150.062L174.924 152.186L179.658 148.024C179.933 147.782 180.148 147.484 180.287 147.151C180.426 146.819 180.485 146.46 180.461 146.103C180.436 145.745 180.328 145.397 180.144 145.085C179.961 144.773 179.707 144.505 179.401 144.3V144.3Z" fill="#A0616A"/>
<path d="M175.727 151.607C174.26 158.697 170.688 164.164 162.272 165.897C155.838 160.557 153.251 153.577 153.642 145.327C153.666 144.814 153.798 144.311 154.03 143.848C154.262 143.386 154.589 142.973 154.992 142.636C155.394 142.298 155.863 142.042 156.371 141.884C156.879 141.726 157.415 141.668 157.947 141.714V141.714C158.746 141.784 159.504 142.086 160.12 142.58C160.737 143.075 161.182 143.738 161.396 144.481L164.682 155.855L172.1 149.282L175.727 151.607Z" fill="#6C63FF"/>
</g>
<defs>
<linearGradient id="paint0_linear" x1="151.779" y1="119.746" x2="151.779" y2="-8.96415e-05" gradientUnits="userSpaceOnUse">
<stop stop-color="#808080" stop-opacity="0.25"/>
<stop offset="0.54" stop-color="#808080" stop-opacity="0.12"/>
<stop offset="1" stop-color="#808080" stop-opacity="0.1"/>
</linearGradient>
<clipPath id="clip0">
<rect width="284" height="194" fill="white"/>
</clipPath>
</defs>
</svg>
