<svg width="315" height="239" viewBox="0 0 315 239" fill="none" xmlns="http://www.w3.org/2000/svg">
<g clip-path="url(#clip0)">
<path d="M22.3804 213.688C18.5942 212.61 13.9864 208.125 14.9729 201.961C15.4621 198.904 17.3399 196.925 19.287 195.645C21.9801 193.875 25.0473 193.208 28.0031 193.039C31.4125 192.845 34.818 193.335 38.2019 193.853C41.5425 194.365 44.8834 194.823 48.2389 195.103C61.3691 196.189 74.5796 195.155 87.4137 192.036C90.5813 191.265 93.7299 190.361 96.8595 189.323C99.8252 188.402 102.725 187.26 105.536 185.904C109.257 184.02 115.308 180.355 114.814 173.566C114.553 169.967 112.542 167.092 110.515 165.089C108.063 162.668 105.226 161.075 102.448 159.527C89.5235 152.33 76.5741 145.219 63.6373 138.065C60.618 136.396 57.5786 134.771 54.6483 132.815C51.9049 130.983 49.1743 128.855 46.9665 125.913C45.0382 123.343 43.315 119.893 43.3758 116.037C43.4263 112.839 44.8065 110.125 46.4969 108.097C50.682 103.075 56.6023 101.039 61.9531 99.9727C68.6008 98.6477 75.3448 98.6546 81.9968 97.3751C87.368 96.3421 93.107 94.3477 97.4753 89.6743C99.3231 87.7735 100.63 85.3656 101.249 82.7228C101.806 79.9548 101.535 77.0724 100.473 74.4739C99.2894 71.4936 97.4019 69.1195 95.4172 67.1755C93.1373 64.9735 90.5515 63.1519 87.7495 61.7739C81.8497 58.8095 75.6459 57.266 69.6026 54.9911C66.6389 53.8754 63.6452 52.652 60.8932 50.7356C58.5616 49.112 56.0218 46.9236 54.7246 43.6692C52.0483 36.9547 58.4332 32.9529 62.051 31.4371C64.5101 30.4536 67.0429 29.6891 69.623 29.1514C70.1685 29.0279 69.937 27.8797 69.394 28.0026C66.6782 28.5609 64.0166 29.3804 61.4426 30.4508C59.2609 31.4066 57.0099 32.6627 55.2962 34.8242C54.516 35.8001 53.9391 36.9381 53.603 38.1644C53.267 39.3906 53.1792 40.6777 53.3454 41.942C53.7994 45.1637 55.7725 47.6462 57.6255 49.4442C60.076 51.822 62.87 53.3748 65.7028 54.6406C68.6863 55.9737 71.7331 57.0127 74.7789 58.0318C80.865 60.0681 87.2242 61.8829 92.7183 66.2161C96.5616 69.2474 101.783 74.9308 100.504 81.9756C99.9367 85.1028 98.2134 87.5477 96.3537 89.346C94.1697 91.3956 91.6512 93.0104 88.9204 94.1118C76.7455 99.2783 63.3461 95.5836 51.4848 102.601C47.452 104.987 42.5534 109.331 42.514 116.166C42.4935 119.716 43.8433 122.973 45.512 125.547C47.5106 128.629 50.0987 130.909 52.7319 132.814C55.5046 134.747 58.3836 136.505 61.3537 138.078C64.5982 139.875 67.8435 141.67 71.0895 143.462L90.788 154.354L100.575 159.766C103.562 161.418 106.626 163.002 109.342 165.427C111.566 167.412 114.193 170.669 113.967 174.714C113.786 177.926 111.763 180.244 109.914 181.793C107.519 183.8 104.83 185.098 102.154 186.176C99.0668 187.42 95.9293 188.452 92.7857 189.38C86.3464 191.278 79.7746 192.634 73.1319 193.436C66.5058 194.241 59.8305 194.503 53.1659 194.221C49.7986 194.078 46.4364 193.794 43.0795 193.369C39.6193 192.93 36.1738 192.253 32.7047 191.952C29.5667 191.681 26.3986 191.744 23.3083 192.617C20.728 193.346 18.002 194.646 16.0434 197.181C14.5997 199.117 13.8768 201.543 14.0106 204.002C14.1432 206.455 14.9729 208.81 16.3917 210.76C17.8329 212.751 19.8578 214.185 22.1516 214.837C22.6925 214.991 22.9238 213.843 22.3805 213.688L22.3804 213.688Z" fill="#C9C9C9"/>
<path d="M119.7 214.232H21.3254V214.95H119.7V214.232Z" fill="#3F3D56"/>
<path d="M112.122 180.442C115.671 180.442 118.549 177.408 118.549 173.665C118.549 169.923 115.671 166.889 112.122 166.889C108.573 166.889 105.695 169.923 105.695 173.665C105.695 177.408 108.573 180.442 112.122 180.442Z" fill="#C3C0C0"/>
<path d="M45.4467 119.185C48.996 119.185 51.8732 116.151 51.8732 112.408C51.8732 108.666 48.996 105.632 45.4467 105.632C41.8974 105.632 39.0201 108.666 39.0201 112.408C39.0201 116.151 41.8974 119.185 45.4467 119.185Z" fill="#C3C0C0"/>
<path d="M57.4083 187.314C57.4083 187.314 51.8532 195.25 50.5988 196.573C49.3444 197.896 48.986 202.809 48.986 202.809L51.1364 208.099L49.882 210.745L40.2052 200.541L50.5988 184.291L57.4083 187.314Z" fill="#FFB8B8"/>
<path d="M81.0627 138.753C81.0627 138.753 60.9552 203.358 58.8048 204.87C56.6544 206.382 46.0642 196.893 43.0178 194.626C39.9715 192.359 66.0103 149.222 66.0103 149.222C61.8887 135.05 63.8595 131.761 63.8595 131.761L81.0627 138.753Z" fill="#231638"/>
<path d="M49.5236 209.233C49.5236 209.233 49.5236 206.966 50.2157 205.834C50.9078 204.703 52.2116 209.8 52.2116 209.8C52.2116 209.8 60.0963 212.068 56.5123 214.524C52.9284 216.981 42.3556 209.233 39.3092 207.155C36.2628 205.076 37.338 202.62 38.9508 200.919L42.0868 197.613L49.5236 209.233Z" fill="#2F2E41"/>
<path d="M87.5138 191.471C87.5138 191.471 89.1266 196.384 90.5602 201.108C91.9938 205.832 98.8034 208.289 98.8034 208.289L100.058 211.69L96.2946 213.579L85.3634 210.745C85.3634 210.745 85.7218 206.966 85.7218 205.643C85.7218 204.32 79.9874 193.172 79.9874 193.172L87.5138 191.471Z" fill="#FFB8B8"/>
<path d="M73.3571 82.2549C77.5138 82.2549 80.8834 78.7017 80.8834 74.3187C80.8834 69.9357 77.5138 66.3826 73.3571 66.3826C69.2004 66.3826 65.8307 69.9357 65.8307 74.3187C65.8307 78.7017 69.2004 82.2549 73.3571 82.2549Z" fill="#FFB8B8"/>
<path d="M69.2355 78.4757C69.2355 79.6094 63.8595 88.3014 63.8595 88.3014L71.735 92.0078L75.3283 81.1211L69.2355 78.4757Z" fill="#FFB8B8"/>
<path d="M76.4035 119.857C77.8821 119.849 79.3046 120.453 80.3659 121.538C81.4272 122.624 82.0426 124.105 82.08 125.663L82.3171 135.54L83.5715 137.808C83.5715 137.808 91.2895 198.499 91.2895 200.388C91.2895 202.278 83.6257 207.489 79.1457 207.111C76.9295 206.924 71.9605 185.454 69.9889 173.7C68.5853 165.332 67.2156 156.226 65.8399 149.503C65.3806 147.08 64.779 144.688 64.0387 142.343C60.0964 130.816 66.9059 119.857 66.9059 119.857H76.4035V119.857Z" fill="#231638"/>
<path d="M97.2803 210.839C97.2803 210.839 98.2659 211.123 97.1907 210.745C96.1155 210.367 96.4739 208.288 96.5181 207.232C96.5623 206.176 107.047 209.611 107.047 212.257C107.047 214.902 93.6067 214.902 89.6643 214.524C85.7219 214.146 84.8259 214.524 84.2883 211.879C83.7507 209.233 85.8115 205.549 85.8115 205.549L97.2803 210.839Z" fill="#2F2E41"/>
<path d="M67.6175 125.123C69.0189 125.123 72.033 121.328 73.6105 122.991C74.7578 124.201 75.7313 125.363 76.5902 126.388C79.0558 129.331 81.2112 132.029 82.709 130.093C82.9355 129.801 82.1743 130.476 82.809 130.021C83.0722 129.832 83.2732 129.561 83.3841 129.246C83.495 128.932 83.5103 128.588 83.428 128.264C81.2546 121.084 79.9013 114.206 81.6295 108.461C81.7577 108.005 81.819 107.531 81.8112 107.055C81.8113 106.986 81.8144 106.916 81.8204 106.846C81.9117 105.786 81.8888 101.989 77.7628 97.6385C73.992 93.6623 73.2685 91.219 73.1731 90.1164C73.1507 89.8596 67.072 83.2095 67.072 83.2095C66.7538 83.0686 66.3997 83.0455 66.0673 83.1438C65.735 83.2422 65.444 83.4563 65.2418 83.7512L63.2947 86.5742C61.1782 90.993 60.2545 95.9403 60.6245 100.875C61.1516 107.281 62.0668 119.949 62.8185 124.518C62.8808 124.935 63.0902 125.311 63.4047 125.571C63.6214 125.748 63.8797 125.86 64.1519 125.894C64.4241 125.928 64.6999 125.883 64.9498 125.764C65.786 125.353 66.6953 125.135 67.6175 125.123Z" fill="#9E63FF"/>
<path d="M75.1635 74.6216L73.8123 73.1161C73.9248 81.0438 81.0182 85.4672 81.0182 85.4672L65.1805 83.8024L64.7802 81.6994L63.9528 83.4311L62.0191 82.9148L61.4628 81.6325L60.2695 82.3174L62.718 72.1227C65.1361 62.3973 72.5098 63.8239 72.5098 63.8239C82.834 60.4189 81.5687 70.8024 81.5687 70.8024L75.1635 74.6216Z" fill="#2F2E41"/>
<path opacity="0.2" d="M69.1314 176.271L66.259 149.484L69.7908 174.297L69.1314 176.271Z" fill="black"/>
<path d="M64.0191 68.1247C66.2185 68.1247 68.0015 66.2447 68.0015 63.9255C68.0015 61.6064 66.2185 59.7263 64.0191 59.7263C61.8197 59.7263 60.0367 61.6064 60.0367 63.9255C60.0367 66.2447 61.8197 68.1247 64.0191 68.1247Z" fill="#2F2E41"/>
<path d="M64.6516 67.3275C64.7345 67.3273 64.8169 67.3296 64.9008 67.3239L64.9092 67.3233C65.9627 67.2502 66.9457 66.7389 67.6418 65.9018C68.338 65.0647 68.6903 63.9703 68.6215 62.8594C68.5526 61.7484 68.0682 60.7117 67.2746 59.9773C66.4811 59.2428 65.4434 58.8707 64.3898 58.9428C64.306 58.9485 64.2244 58.9618 64.1422 58.9728C65.1549 58.9698 66.1305 59.3741 66.8701 60.1034C67.6098 60.8327 68.0578 61.832 68.1227 62.8976C68.1877 63.9632 67.8648 65.0148 67.2198 65.8379C66.5748 66.6611 65.6563 67.1938 64.6516 67.3275V67.3275Z" fill="#2F2E41"/>
<path d="M73.9751 76.7856C74.6624 76.7856 75.2196 75.9631 75.2196 74.9485C75.2196 73.9339 74.6624 73.1113 73.9751 73.1113C73.2878 73.1113 72.7306 73.9339 72.7306 74.9485C72.7306 75.9631 73.2878 76.7856 73.9751 76.7856Z" fill="#FFB8B8"/>
<path d="M88.8799 135.875L93.9959 139.693C94.4413 140.025 94.8095 140.46 95.0729 140.964C95.3363 141.467 95.4881 142.028 95.5168 142.602C95.5456 143.177 95.4506 143.751 95.239 144.281C95.0273 144.811 94.7046 145.284 94.2949 145.664C93.9003 146.03 93.4348 146.3 92.9308 146.457C92.4268 146.614 91.8965 146.653 91.3768 146.571C90.857 146.49 90.3604 146.29 89.9216 145.985C89.4828 145.68 89.1122 145.278 88.8358 144.807L85.8753 139.76L75.457 123.158L79.774 119.809L88.8799 135.875Z" fill="#FEB8B8"/>
<path opacity="0.2" d="M80.6637 120.997C80.6842 123.939 77.9266 126.494 74.0315 126.864L65.0962 106.845C64.1583 104.744 63.8071 102.404 64.0834 100.101C64.3597 97.7966 65.2523 95.6233 66.6567 93.8345V93.8345L75.6767 105.393C75.9568 110.417 77.9898 115.625 80.6637 120.997Z" fill="black"/>
<path d="M80.6637 119.717C80.6842 122.659 79.141 124.574 75.2459 124.943L66.3105 104.924C65.3727 102.823 65.0214 100.484 65.2978 98.1798C65.5741 95.8759 66.4667 93.7025 67.8711 91.9137V91.9137L76.891 103.472C77.1712 108.497 77.9898 114.345 80.6637 119.717Z" fill="#9E63FF"/>
<path d="M293.045 88.247H283.356C282.608 88.2824 281.886 88.5435 281.274 88.9993C280.663 89.4551 280.188 90.0865 279.907 90.8183L278.15 95.9841L275.689 103.466C275.432 104.36 275.086 105.221 274.657 106.038C274.212 105.219 273.858 104.348 273.602 103.443L271.252 96.0072C270.79 94.571 270.021 92.2545 269.538 90.8183L267.341 84.1468C267.058 83.4115 266.581 82.7778 265.965 82.3217C265.349 81.8656 264.622 81.6065 263.87 81.5755H226.611C226.27 81.5755 225.933 81.6462 225.619 81.7835C225.304 81.9209 225.018 82.1222 224.778 82.3761C224.537 82.6299 224.346 82.9312 224.216 83.2629C224.086 83.5945 224.018 83.95 224.018 84.3089V99.8989C224.018 100.63 223.743 101.331 223.253 101.848C222.762 102.365 222 103 221.404 102.656L210.5 95.5C209.5 95 209.242 94.6263 208.753 94.1107C208.264 93.595 207.987 92.8974 207.981 92.1681V84.3089C207.982 83.6036 207.724 82.9253 207.261 82.4159C206.799 81.9065 206.167 81.6053 205.499 81.5754H196.491C195.802 81.5754 195.14 81.8627 194.651 82.3746C194.161 82.8866 193.883 83.5818 193.877 84.3089V91.5132C198.666 97.9531 198.666 109.675 193.877 127.141V135.457C193.883 136.184 194.161 136.879 194.651 137.391C195.14 137.903 195.802 138.191 196.491 138.191H205.499C205.839 138.191 206.176 138.12 206.491 137.983C206.805 137.845 207.091 137.644 207.332 137.39C207.572 137.136 207.763 136.835 207.894 136.503C208.024 136.172 208.091 135.816 208.091 135.457L208.027 110.409C208.026 109.698 208.287 109.014 208.753 108.5C209.22 107.986 209.857 107.683 210.531 107.653L221.5 115C222 115.5 222.753 115.973 223.244 116.482C223.734 116.99 224.013 117.683 224.018 118.408L224.018 118.431V135.434C224.018 136.159 224.292 136.854 224.778 137.367C225.264 137.879 225.923 138.167 226.611 138.167H256.994C257.681 138.167 258.341 137.879 258.827 137.367C259.313 136.854 259.586 136.159 259.586 135.434V128.392C259.586 127.667 259.313 126.972 258.827 126.459C258.341 125.946 257.681 125.658 256.994 125.658H240.869C240.179 125.652 239.52 125.359 239.034 124.843C238.549 124.327 238.276 123.629 238.276 122.902V118.269C238.276 117.542 238.549 116.844 239.034 116.328C239.52 115.811 240.179 115.518 240.869 115.512H250.601C251.288 115.512 251.948 115.224 252.434 114.711C252.92 114.199 253.193 113.504 253.193 112.779V105.737C253.193 105.012 252.92 104.316 252.434 103.804C251.948 103.291 251.288 103.003 250.601 103.003H240.869C240.179 102.997 239.52 102.704 239.034 102.188C238.549 101.671 238.276 100.974 238.276 100.246V96.8643C238.27 96.1394 238.538 95.4417 239.02 94.9248C239.502 94.4078 240.159 94.1139 240.847 94.1078L240.869 94.1077H254.05C254.815 94.1511 255.557 94.4048 256.2 94.8437C256.844 95.2825 257.367 95.8913 257.719 96.6095L266.265 116.184C266.935 117.842 267.307 119.617 267.363 121.419V135.457C267.363 136.182 267.636 136.877 268.122 137.39C268.608 137.903 269.268 138.191 269.955 138.191H278.963C279.65 138.197 280.312 137.915 280.802 137.406C281.292 136.898 281.571 136.205 281.577 135.48L281.577 135.457V121.419C281.636 119.62 282.001 117.847 282.653 116.184L294.561 90.7256C294.719 90.4639 294.803 90.1595 294.803 89.8488C294.802 89.5381 294.717 89.2341 294.557 88.973C294.398 88.7118 294.17 88.5046 293.902 88.3759C293.634 88.2472 293.336 88.2024 293.045 88.247Z" fill="url(#paint0_linear)"/>
<path d="M181.333 91.212C177.881 92.1976 174.751 94.1603 172.282 96.8874C169.404 86.2315 163.209 70.1087 157.167 67.4679C156.529 67.155 155.828 67.0085 155.125 67.0408C154.421 67.073 153.735 67.2831 153.125 67.6532C149.346 69.9697 146.886 77.4288 149.039 91.5595C140.734 75.5293 137.835 75.5525 136.495 75.5293C135.851 75.5388 135.224 75.7483 134.693 76.1314C134.161 76.5146 133.749 77.0546 133.507 77.6837C132.606 79.7917 130.805 86.3705 135.198 100.524C129.904 92.8799 128.278 91.9069 126.411 91.9996C125.813 92.0368 125.236 92.2437 124.741 92.5985C124.246 92.9533 123.851 93.4428 123.599 94.015C122.017 97.1654 122.193 105.088 127.114 116.902C125.428 115.334 123.294 114.404 121.05 114.261C120.446 114.306 119.862 114.509 119.352 114.853C118.841 115.197 118.421 115.671 118.129 116.23C116.129 120.099 120.325 130.963 125.51 138.33C129.706 144.376 138.12 153.665 150.335 153.665C152.045 153.662 153.751 153.491 155.432 153.155C156.016 153.046 156.535 152.697 156.876 152.184C157.216 151.671 157.349 151.037 157.246 150.421C157.143 149.804 156.812 149.257 156.326 148.897C155.84 148.538 155.238 148.398 154.654 148.506C154.628 148.511 154.601 148.516 154.575 148.522C144.425 150.607 136.78 144.723 132.145 139.441C125.224 131.542 122.193 122.045 122.017 119.149C123.467 119.774 127.641 122.369 135.77 133.349C136.113 133.856 136.634 134.198 137.217 134.3C137.8 134.402 138.397 134.256 138.878 133.893C139.359 133.531 139.683 132.982 139.78 132.367C139.877 131.753 139.738 131.122 139.394 130.616C127.971 112.338 126.85 101.266 127.224 97.536C130.585 101.15 138.977 114.4 145.304 124.407C145.622 124.914 146.114 125.272 146.676 125.406C147.239 125.54 147.828 125.439 148.322 125.125C148.816 124.811 149.175 124.308 149.325 123.721C149.475 123.134 149.404 122.508 149.127 121.975C135.945 96.4936 136.407 84.9111 137.176 81.0194C139.153 83.1274 144.403 90.4707 155.454 115.767C155.7 116.314 156.137 116.739 156.672 116.957C157.208 117.174 157.803 117.165 158.333 116.933C158.863 116.701 159.289 116.263 159.522 115.71C159.754 115.157 159.777 114.53 159.584 113.96C148.863 83.2664 153.52 72.8653 155.3 71.6839C157.607 71.6839 164.087 83.4054 168.13 98.7638C168.371 99.7135 168.613 100.64 168.833 101.544C168.266 102.594 167.823 103.715 167.515 104.879C165.318 113.381 163.121 132.677 167.361 137.982C167.783 138.538 168.328 138.975 168.949 139.253C169.571 139.532 170.247 139.645 170.92 139.58C171.771 139.483 172.591 139.187 173.32 138.714C174.05 138.241 174.671 137.604 175.138 136.847C179.07 130.801 176.763 115.628 173.622 102.354C175.762 99.1626 178.857 96.8213 182.409 95.706C183.169 95.4544 183.978 95.4249 184.752 95.6208C185.526 95.8166 186.235 96.2304 186.803 96.8179C188.605 98.9491 191.746 106.918 182.212 135.017C182.114 135.309 182.071 135.619 182.086 135.928C182.102 136.237 182.175 136.54 182.301 136.82C182.557 137.385 183.014 137.819 183.574 138.028C184.133 138.237 184.748 138.203 185.284 137.934C185.819 137.665 186.232 137.182 186.43 136.592C194.031 114.192 195.217 99.7599 190.142 93.6906C189.038 92.4541 187.629 91.567 186.072 91.1291C184.516 90.6912 182.875 90.7199 181.333 91.212ZM171.447 134.229C171.283 134.541 171.017 134.779 170.7 134.901C169.052 132.839 169.052 120.632 170.854 110.624C174.259 127.928 172.282 133.002 171.447 134.229Z" fill="url(#paint1_linear)"/>
<path d="M85.8677 8.28364L68.0232 16.4634C67.2351 16.8258 66.6155 17.503 66.3003 18.3465C65.9852 19.19 66.0002 20.1308 66.3421 20.9627L71.883 34.4026C72.2267 35.2336 72.869 35.887 73.6689 36.2193C74.4688 36.5517 75.3611 36.5358 76.15 36.1753L93.9944 27.9956C94.7826 27.6332 95.4022 26.956 95.7173 26.1125C96.0325 25.269 96.0175 24.3281 95.6756 23.4963L90.1346 10.0563C89.791 9.22532 89.1487 8.57197 88.3488 8.23964C87.5488 7.90731 86.6565 7.92314 85.8677 8.28364V8.28364ZM86.6065 10.0756C86.7132 10.0272 86.8252 9.99322 86.94 9.97436L80.907 21.9766L68.5159 18.401C68.593 18.3438 68.6755 18.295 68.762 18.2554L86.6065 10.0756ZM93.2556 26.2036L75.4112 34.3833C75.0731 34.5378 74.6907 34.5446 74.3479 34.4022C74.0051 34.2597 73.7298 33.9797 73.5825 33.6236L68.0913 20.3043L81.1337 24.0678C81.3368 24.1264 81.5527 24.1103 81.746 24.0222C81.9393 23.9341 82.0983 23.7792 82.1969 23.583L88.5115 11.0205L93.9761 24.2753C94.1227 24.6318 94.1291 25.0351 93.994 25.3965C93.8589 25.758 93.5934 26.0483 93.2556 26.2036H93.2556Z" fill="#CDC4C4"/>
</g>
<path opacity="0.1" d="M312.597 97.8323C312.54 98.2067 312.483 98.5811 312.42 98.9555C310.385 111.705 307.064 123.996 302.124 135.282C301.962 135.656 301.797 136.03 301.629 136.405C298.46 143.521 294.567 150.208 290.029 156.335C287.568 159.641 284.886 162.779 281.696 165.046C277.225 168.221 271.998 169.512 266.861 170.568C261.522 171.668 256.115 172.574 250.72 173.577C248.808 173.924 246.907 174.289 245.019 174.67C239.807 175.719 234.633 176.933 229.583 178.541C223.339 180.546 217.281 183.13 211.579 186.791C211.123 187.08 210.672 187.378 210.226 187.683C209.779 187.984 209.326 188.292 208.891 188.606C208.456 188.92 208.018 189.231 207.585 189.548L206.919 190.05C206.7 190.21 206.484 190.384 206.268 190.545C205.626 191.033 204.993 191.547 204.36 192.042L204.336 192.062C203.919 192.397 203.505 192.731 203.09 193.065C200.753 194.994 198.466 197.013 196.189 199.039L194.752 200.319C194.009 200.974 193.267 201.628 192.525 202.281C192.09 202.666 191.649 203.047 191.211 203.428C190.893 203.705 190.578 203.983 190.254 204.257C188.63 205.651 186.986 207.015 185.309 208.318C184.909 208.629 184.504 208.94 184.108 209.244C180.751 211.803 177.179 213.995 173.444 215.789L173.396 215.813C171.556 216.686 169.663 217.414 167.731 217.989C166.623 218.323 165.516 218.587 164.394 218.795C161.404 219.371 158.353 219.429 155.347 218.968C149.439 218.036 143.902 214.957 138.009 213.927C125.85 211.825 114.043 218.607 102.601 223.932C99.8005 225.238 96.9689 226.464 94.1062 227.609C92.2098 228.372 90.3044 229.097 88.3899 229.786C76.7268 233.988 64.7087 236.852 52.523 238.333C47.5479 238.938 42.3597 239.226 37.2946 238.791C35.3818 238.635 33.4784 238.359 31.5933 237.965C25.1809 236.628 19.1946 233.79 14.3725 228.606C10.3666 224.364 7.53996 218.818 5.38548 213.032C4.51929 210.707 3.75612 208.329 3.09597 205.898C2.05834 202.088 1.27898 198.196 0.764454 194.255C0.647428 193.366 0.542404 192.473 0.464387 191.581C0.308352 190.05 0.192325 188.512 0.116308 186.968C-0.303821 178.76 0.415809 170.529 2.24978 162.565C4.29324 153.744 7.702 145.297 9.20233 136.391C9.26534 136.017 9.32236 135.643 9.37937 135.268C9.57941 133.931 9.73145 132.569 9.83547 131.183C10.5916 120.293 7.66599 109.632 5.35548 98.9555C5.27446 98.5811 5.19344 98.2067 5.11542 97.8323C4.86537 96.649 4.62831 95.4645 4.40426 94.2789C2.26479 82.987 1.67966 70.9028 3.57908 59.6343C3.63909 59.2599 3.70811 58.8821 3.77712 58.5111C5.05841 51.5313 7.32091 44.8925 10.7867 38.9791C14.3425 32.9086 19.0115 27.8577 23.9896 23.4184C26.4202 21.2568 28.9337 19.2344 31.5303 17.3513C33.3967 16.0008 35.2971 14.7227 37.2316 13.5171C52.862 3.82301 70.695 -0.913726 88.3269 0.145939C89.2611 0.199423 90.1933 0.270736 91.1236 0.359877C92.0998 0.453475 93.073 0.564902 94.0432 0.694156C105.395 2.15496 116.44 5.7752 127.42 9.73641C131.098 11.0735 134.768 12.4106 138.438 13.7478C140.07 14.3405 141.702 14.9255 143.332 15.5027C151.329 18.314 159.458 20.8512 167.662 22.7633C169.564 23.209 171.464 23.6157 173.363 23.9834C179.963 25.3005 186.642 26.067 193.344 26.2765C195.945 26.3478 198.545 26.3178 201.146 26.1863C202.46 26.1194 203.776 26.0214 205.092 25.8921C218.688 24.5951 231.798 20.2461 244.962 16.1613C246.864 15.5696 248.77 14.9812 250.663 14.413C253.166 13.6642 255.671 12.9388 258.186 12.2702C273.843 8.08173 287.796 10.4885 302.353 19.1263C305.653 21.0885 308.954 23.4552 310.994 27.1189C313.035 30.7826 313.53 35.3188 313.908 39.6845C314.442 45.8954 314.808 52.1932 314.925 58.5178C314.925 58.8922 314.925 59.2665 314.946 59.6409C315.21 72.4472 314.511 85.3503 312.597 97.8323Z" fill="#6C63FF"/>
<defs>
<linearGradient id="paint0_linear" x1="113.441" y1="109.876" x2="298.134" y2="109.876" gradientUnits="userSpaceOnUse">
<stop stop-color="#6B2DD0"/>
<stop offset="0.99" stop-color="#91139C"/>
</linearGradient>
<linearGradient id="paint1_linear" x1="42344.4" y1="-2.87325e+06" x2="88331.6" y2="-2.87325e+06" gradientUnits="userSpaceOnUse">
<stop stop-color="#6B2DD0"/>
<stop offset="0.99" stop-color="#9C138E"/>
</linearGradient>
<clipPath id="clip0">
<rect width="283" height="207" fill="white" transform="translate(14 8)"/>
</clipPath>
</defs>
</svg>
